<?xml version="1.0" encoding="UTF-8" standalone="no"?>
<!DOCTYPE svg PUBLIC "-//W3C//DTD SVG 1.1//EN"
 "http://www.w3.org/Graphics/SVG/1.1/DTD/svg11.dtd">
<!-- Generated by graphviz version 2.43.0 (0)
 -->
<!-- Title: App\Http\Controllers\Auth\AuthenticatedSessionController Pages: 1 -->
<svg width="219pt" height="214pt"
 viewBox="0.00 0.00 219.00 214.00" xmlns="http://www.w3.org/2000/svg" xmlns:xlink="http://www.w3.org/1999/xlink">
<g id="graph0" class="graph" transform="scale(1 1) rotate(0) translate(4 210)">
<title>App\Http\Controllers\Auth\AuthenticatedSessionController</title>
<!-- Node1 -->
<g id="Node000001" class="node">
<title>Node1</title>
<g id="a_Node000001"><a xlink:title=" ">
<polygon fill="#999999" stroke="transparent" points="211,-102 0,-102 0,0 211,0 211,-102"/>
<text text-anchor="start" x="5.5" y="-88.4" font-family="Arial" font-size="12.00">App\Http\Controllers</text>
<text text-anchor="start" x="5.5" y="-75.4" font-family="Arial" font-size="12.00">\Auth\AuthenticatedSessionController</text>
<text text-anchor="start" x="104" y="-58.4" font-family="Arial" font-size="12.00"> </text>
<text text-anchor="start" x="40.5" y="-41.4" font-family="Arial" font-size="12.00">+</text>
<text text-anchor="start" x="87.5" y="-41.4" font-family="Arial" font-size="12.00">create()</text>
<text text-anchor="start" x="40.5" y="-24.4" font-family="Arial" font-size="12.00">+</text>
<text text-anchor="start" x="87.5" y="-24.4" font-family="Arial" font-size="12.00">store()</text>
<text text-anchor="start" x="40.5" y="-7.4" font-family="Arial" font-size="12.00">+</text>
<text text-anchor="start" x="87.5" y="-7.4" font-family="Arial" font-size="12.00">destroy()</text>
<polygon fill="#666666" stroke="#666666" points="0.5,-70 0.5,-70 211.5,-70 211.5,-70 0.5,-70"/>
<polygon fill="#666666" stroke="#666666" points="0.5,-53 0.5,-53 211.5,-53 211.5,-53 0.5,-53"/>
<polygon fill="none" stroke="#666666" points="0,0 0,-102 211,-102 211,0 0,0"/>
</a>
</g>
</g>
<!-- Node2 -->
<g id="Node000002" class="node">
<title>Node2</title>
<g id="a_Node000002"><a xlink:href="class_app_1_1_http_1_1_controllers_1_1_controller.html" target="_top" xlink:title=" ">
<polygon fill="white" stroke="transparent" points="165,-206 46,-206 46,-138 165,-138 165,-206"/>
<text text-anchor="start" x="51.5" y="-192.4" font-family="Arial" font-size="12.00">App\Http\Controllers</text>
<text text-anchor="start" x="78" y="-179.4" font-family="Arial" font-size="12.00">\Controller</text>
<text text-anchor="start" x="104" y="-162.4" font-family="Arial" font-size="12.00"> </text>
<text text-anchor="start" x="104" y="-145.4" font-family="Arial" font-size="12.00"> </text>
<polygon fill="#666666" stroke="#666666" points="46.5,-174 46.5,-174 165.5,-174 165.5,-174 46.5,-174"/>
<polygon fill="#666666" stroke="#666666" points="46.5,-157 46.5,-157 165.5,-157 165.5,-157 46.5,-157"/>
<polygon fill="none" stroke="#666666" points="46,-138 46,-206 165,-206 165,-138 46,-138"/>
</a>
</g>
</g>
<!-- Node2&#45;&gt;Node1 -->
<g id="edge1_Node000001_Node000002" class="edge">
<title>Node2&#45;&gt;Node1</title>
<g id="a_edge1_Node000001_Node000002"><a xlink:title=" ">
<path fill="none" stroke="#63b8ff" d="M105.5,-127.71C105.5,-119.47 105.5,-110.78 105.5,-102.34"/>
<polygon fill="none" stroke="#63b8ff" points="102,-127.85 105.5,-137.85 109,-127.85 102,-127.85"/>
</a>
</g>
</g>
</g>
</svg>
