<?xml version="1.0" encoding="UTF-8" standalone="no"?>
<!DOCTYPE svg PUBLIC "-//W3C//DTD SVG 1.1//EN"
 "http://www.w3.org/Graphics/SVG/1.1/DTD/svg11.dtd">
<!-- Generated by graphviz version 2.43.0 (0)
 -->
<!-- Title: Database\Factories\UserFactory Pages: 1 -->
<svg width="138pt" height="184pt"
 viewBox="0.00 0.00 138.00 184.00" xmlns="http://www.w3.org/2000/svg" xmlns:xlink="http://www.w3.org/1999/xlink">
<g id="graph0" class="graph" transform="scale(1 1) rotate(0) translate(4 180)">
<title>Database\Factories\UserFactory</title>
<!-- Node1 -->
<g id="Node000001" class="node">
<title>Node1</title>
<g id="a_Node000001"><a xlink:title="\Databaseloquent\Factories\Factory&lt;\App\Models\User&gt;">
<polygon fill="#999999" stroke="transparent" points="125.5,-85 10.5,-85 10.5,0 125.5,0 125.5,-85"/>
<text text-anchor="start" x="16" y="-70.9" font-family="Arial" font-size="12.00">Database\Factories</text>
<text text-anchor="start" x="34" y="-57.9" font-family="Arial" font-size="12.00">\UserFactory</text>
<text text-anchor="start" x="23.5" y="-40.9" font-family="Arial" font-size="12.00">#</text>
<text text-anchor="start" x="43" y="-40.9" font-family="Arial" font-size="12.00">$password</text>
<text text-anchor="start" x="23.5" y="-23.9" font-family="Arial" font-size="12.00">+</text>
<text text-anchor="start" x="43" y="-23.9" font-family="Arial" font-size="12.00">definition()</text>
<text text-anchor="start" x="23.5" y="-6.9" font-family="Arial" font-size="12.00">+</text>
<text text-anchor="start" x="43" y="-6.9" font-family="Arial" font-size="12.00">unverified()</text>
<polygon fill="#666666" stroke="#666666" points="11,-52.5 11,-52.5 126,-52.5 126,-52.5 11,-52.5"/>
<polygon fill="#666666" stroke="#666666" points="11,-35.5 11,-35.5 41,-35.5 41,-35.5 11,-35.5"/>
<polygon fill="#666666" stroke="#666666" points="41,-35.5 41,-35.5 126,-35.5 126,-35.5 41,-35.5"/>
<polygon fill="none" stroke="#666666" points="10.5,0 10.5,-85 125.5,-85 125.5,0 10.5,0"/>
</a>
</g>
</g>
<!-- Node2 -->
<g id="Node000002" class="node">
<title>Node2</title>
<g id="a_Node000002"><a xlink:href="class_illuminate.html" target="_top" xlink:title=" ">
<polygon fill="white" stroke="transparent" points="62,-176 0,-176 0,-121 62,-121 62,-176"/>
<text text-anchor="start" x="5" y="-161.9" font-family="Arial" font-size="12.00">Illuminate</text>
<text text-anchor="start" x="29" y="-144.9" font-family="Arial" font-size="12.00"> </text>
<text text-anchor="start" x="29" y="-127.9" font-family="Arial" font-size="12.00"> </text>
<polygon fill="#666666" stroke="#666666" points="0,-156.5 0,-156.5 62,-156.5 62,-156.5 0,-156.5"/>
<polygon fill="#666666" stroke="#666666" points="0,-139.5 0,-139.5 62,-139.5 62,-139.5 0,-139.5"/>
<polygon fill="none" stroke="#666666" points="0,-121 0,-176 62,-176 62,-121 0,-121"/>
</a>
</g>
</g>
<!-- Node2&#45;&gt;Node1 -->
<g id="edge1_Node000001_Node000002" class="edge">
<title>Node2&#45;&gt;Node1</title>
<g id="a_edge1_Node000001_Node000002"><a xlink:title=" ">
<path fill="none" stroke="#63b8ff" d="M43.83,-111.44C46.83,-103.02 50.04,-93.98 53.12,-85.33"/>
<polygon fill="none" stroke="#63b8ff" points="40.49,-110.39 40.43,-120.99 47.08,-112.74 40.49,-110.39"/>
</a>
</g>
</g>
<!-- Node3 -->
<g id="Node000003" class="node">
<title>Node3</title>
<g id="a_Node000003"><a xlink:title=" ">
<polygon fill="white" stroke="transparent" points="130,-176 80,-176 80,-121 130,-121 130,-176"/>
<text text-anchor="start" x="85" y="-161.9" font-family="Arial" font-size="12.00">Factory</text>
<text text-anchor="start" x="103" y="-144.9" font-family="Arial" font-size="12.00"> </text>
<text text-anchor="start" x="103" y="-127.9" font-family="Arial" font-size="12.00"> </text>
<polygon fill="#666666" stroke="#666666" points="80,-156.5 80,-156.5 130,-156.5 130,-156.5 80,-156.5"/>
<polygon fill="#666666" stroke="#666666" points="80,-139.5 80,-139.5 130,-139.5 130,-139.5 80,-139.5"/>
<polygon fill="none" stroke="#666666" points="80,-121 80,-176 130,-176 130,-121 80,-121"/>
</a>
</g>
</g>
<!-- Node3&#45;&gt;Node1 -->
<g id="edge2_Node000001_Node000003" class="edge">
<title>Node3&#45;&gt;Node1</title>
<g id="a_edge2_Node000001_Node000003"><a xlink:title=" ">
<path fill="none" stroke="#63b8ff" d="M92.17,-111.44C89.17,-103.02 85.96,-93.98 82.88,-85.33"/>
<polygon fill="none" stroke="#63b8ff" points="88.92,-112.74 95.57,-120.99 95.51,-110.39 88.92,-112.74"/>
</a>
</g>
</g>
</g>
</svg>
