<?xml version="1.0" encoding="UTF-8" standalone="no"?>
<!DOCTYPE svg PUBLIC "-//W3C//DTD SVG 1.1//EN"
 "http://www.w3.org/Graphics/SVG/1.1/DTD/svg11.dtd">
<!-- Generated by graphviz version 2.43.0 (0)
 -->
<!-- Title: Database\Seeders\UserSeeder Pages: 1 -->
<svg width="186pt" height="154pt"
 viewBox="0.00 0.00 186.00 154.00" xmlns="http://www.w3.org/2000/svg" xmlns:xlink="http://www.w3.org/1999/xlink">

<svg id="main" version="1.1" xmlns="http://www.w3.org/2000/svg" xmlns:xlink="http://www.w3.org/1999/xlink" xml:space="preserve" onload="init(evt)">
<style type="text/css"><![CDATA[
.node, .edge {opacity: 0.7;}
.node.selected, .edge.selected {opacity: 1;}
.edge:hover path { stroke: red; }
.edge:hover polygon { stroke: red; fill: red; }
]]></style>
<script type="application/ecmascript" xlink:href="svg.min.js"/>
<svg id="graph" class="graph">
<g id="graph0" class="graph" transform="scale(1 1) rotate(0) translate(4 150)">
<title>Database\Seeders\UserSeeder</title>
<!-- Node1 -->
<g id="Node000001" class="node">
<title>Node1</title>
<g id="a_Node000001"><a xlink:title=" ">
<polygon fill="#999999" stroke="transparent" points="178,-55 0,-55 0,0 178,0 178,-55"/>
<text text-anchor="start" x="5" y="-40.9" font-family="Arial" font-size="12.00">Database\Seeders\UserSeeder</text>
<text text-anchor="start" x="87" y="-23.9" font-family="Arial" font-size="12.00"> </text>
<text text-anchor="start" x="37.5" y="-6.9" font-family="Arial" font-size="12.00">+</text>
<text text-anchor="start" x="82" y="-6.9" font-family="Arial" font-size="12.00">run()</text>
<polygon fill="#666666" stroke="#666666" points="0,-35.5 0,-35.5 178,-35.5 178,-35.5 0,-35.5"/>
<polygon fill="#666666" stroke="#666666" points="0,-18.5 0,-18.5 178,-18.5 178,-18.5 0,-18.5"/>
<polygon fill="none" stroke="#666666" points="0,0 0,-55 178,-55 178,0 0,0"/>
</a>
</g>
</g>
<!-- Node2 -->
<g id="Node000002" class="node">
<title>Node2</title>
<g id="a_Node000002"><a xlink:title=" ">
<polygon fill="white" stroke="transparent" points="114,-146 64,-146 64,-91 114,-91 114,-146"/>
<text text-anchor="start" x="69" y="-131.9" font-family="Arial" font-size="12.00">Seeder</text>
<text text-anchor="start" x="87" y="-114.9" font-family="Arial" font-size="12.00"> </text>
<text text-anchor="start" x="87" y="-97.9" font-family="Arial" font-size="12.00"> </text>
<polygon fill="#666666" stroke="#666666" points="64,-126.5 64,-126.5 114,-126.5 114,-126.5 64,-126.5"/>
<polygon fill="#666666" stroke="#666666" points="64,-109.5 64,-109.5 114,-109.5 114,-109.5 64,-109.5"/>
<polygon fill="none" stroke="#666666" points="64,-91 64,-146 114,-146 114,-91 64,-91"/>
</a>
</g>
</g>
<!-- Node2&#45;&gt;Node1 -->
<g id="edge1_Node000001_Node000002" class="edge">
<title>Node2&#45;&gt;Node1</title>
<g id="a_edge1_Node000001_Node000002"><a xlink:title=" ">
<path fill="none" stroke="#63b8ff" d="M89,-80.66C89,-72.12 89,-63.19 89,-55.18"/>
<polygon fill="none" stroke="#63b8ff" points="85.5,-80.8 89,-90.8 92.5,-80.8 85.5,-80.8"/>
</a>
</g>
</g>
</g>
</svg>
</svg>

<style type='text/css'>
<![CDATA[
[data-mouse-over-selected='false'] { opacity: 0.7; }
[data-mouse-over-selected='true']  { opacity: 1.0; }
]]>
</style>
<script type="application/ecmascript"><![CDATA[
document.addEventListener('DOMContentLoaded', (event) => {
  highlightEdges();
  highlightAdjacentNodes();
});
]]></script>
</svg>
