<?xml version="1.0" encoding="UTF-8" standalone="no"?>
<!DOCTYPE svg PUBLIC "-//W3C//DTD SVG 1.1//EN"
 "http://www.w3.org/Graphics/SVG/1.1/DTD/svg11.dtd">
<!-- Generated by graphviz version 2.43.0 (0)
 -->
<!-- Title: App\Http\Controllers\Auth\AuthenticatedSessionController\store Pages: 1 -->
<svg width="868pt" height="75pt"
 viewBox="0.00 0.00 868.00 74.50" xmlns="http://www.w3.org/2000/svg" xmlns:xlink="http://www.w3.org/1999/xlink">
<g id="graph0" class="graph" transform="scale(1 1) rotate(0) translate(4 70.5)">
<title>App\Http\Controllers\Auth\AuthenticatedSessionController\store</title>
<!-- Node1 -->
<g id="Node000001" class="node">
<title>Node1</title>
<g id="a_Node000001"><a xlink:title="Handle an incoming authentication request.">
<polygon fill="#999999" stroke="#666666" points="246,-34 0,-34 0,0 246,0 246,-34"/>
<text text-anchor="start" x="8" y="-20.4" font-family="Arial" font-size="12.00">App\Http\Controllers</text>
<text text-anchor="middle" x="123" y="-7.4" font-family="Arial" font-size="12.00">\Auth\AuthenticatedSessionController\store</text>
</a>
</g>
</g>
<!-- Node2 -->
<g id="Node000002" class="node">
<title>Node2</title>
<g id="a_Node000002"><a xlink:href="class_app_1_1_http_1_1_requests_1_1_auth_1_1_login_request.html#a7be4cc5f6c415464b716807cc1b862ce" target="_top" xlink:title="Attempt to authenticate the request&#39;s credentials.">
<polygon fill="white" stroke="#666666" points="445,-34 282,-34 282,0 445,0 445,-34"/>
<text text-anchor="start" x="290" y="-20.4" font-family="Arial" font-size="12.00">App\Http\Requests\Auth</text>
<text text-anchor="middle" x="363.5" y="-7.4" font-family="Arial" font-size="12.00">\LoginRequest\authenticate</text>
</a>
</g>
</g>
<!-- Node1&#45;&gt;Node2 -->
<g id="edge1_Node000001_Node000002" class="edge">
<title>Node1&#45;&gt;Node2</title>
<g id="a_edge1_Node000001_Node000002"><a xlink:title=" ">
<path fill="none" stroke="#63b8ff" d="M246.04,-17C254.68,-17 263.3,-17 271.71,-17"/>
<polygon fill="#63b8ff" stroke="#63b8ff" points="271.87,-20.5 281.87,-17 271.87,-13.5 271.87,-20.5"/>
</a>
</g>
</g>
<!-- Node3 -->
<g id="Node000003" class="node">
<title>Node3</title>
<g id="a_Node000003"><a xlink:href="class_app_1_1_http_1_1_requests_1_1_auth_1_1_login_request.html#a673cadc2bf050f1c139636c261bc996e" target="_top" xlink:title="Ensure the login request is not rate limited.">
<polygon fill="white" stroke="#666666" points="669,-66.5 481,-66.5 481,-19.5 669,-19.5 669,-66.5"/>
<text text-anchor="start" x="489" y="-52.9" font-family="Arial" font-size="12.00">App\Http\Requests\Auth</text>
<text text-anchor="start" x="489" y="-39.9" font-family="Arial" font-size="12.00">\LoginRequest\ensureIsNotRate</text>
<text text-anchor="middle" x="575" y="-26.9" font-family="Arial" font-size="12.00">Limited</text>
</a>
</g>
</g>
<!-- Node2&#45;&gt;Node3 -->
<g id="edge2_Node000002_Node000003" class="edge">
<title>Node2&#45;&gt;Node3</title>
<g id="a_edge2_Node000002_Node000003"><a xlink:title=" ">
<path fill="none" stroke="#63b8ff" d="M445.2,-27.02C453.57,-28.05 462.15,-29.12 470.72,-30.18"/>
<polygon fill="#63b8ff" stroke="#63b8ff" points="470.41,-33.67 480.76,-31.43 471.27,-26.72 470.41,-33.67"/>
</a>
</g>
</g>
<!-- Node4 -->
<g id="Node000004" class="node">
<title>Node4</title>
<g id="a_Node000004"><a xlink:href="class_app_1_1_http_1_1_requests_1_1_auth_1_1_login_request.html#aea2a6943931bedd74179057a5d67bb5c" target="_top" xlink:title="Get the rate limiting throttle key for the request.">
<polygon fill="white" stroke="#666666" points="860,-34 705,-34 705,0 860,0 860,-34"/>
<text text-anchor="start" x="713" y="-20.4" font-family="Arial" font-size="12.00">App\Http\Requests\Auth</text>
<text text-anchor="middle" x="782.5" y="-7.4" font-family="Arial" font-size="12.00">\LoginRequest\throttleKey</text>
</a>
</g>
</g>
<!-- Node2&#45;&gt;Node4 -->
<g id="edge4_Node000002_Node000004" class="edge">
<title>Node2&#45;&gt;Node4</title>
<g id="a_edge4_Node000002_Node000004"><a xlink:title=" ">
<path fill="none" stroke="#63b8ff" d="M445.01,-12.31C457.07,-11.77 469.36,-11.3 481,-11 564.53,-8.85 585.47,-8.77 669,-11 677.36,-11.22 686.07,-11.54 694.77,-11.91"/>
<polygon fill="#63b8ff" stroke="#63b8ff" points="694.82,-15.42 704.97,-12.37 695.14,-8.42 694.82,-15.42"/>
</a>
</g>
</g>
<!-- Node3&#45;&gt;Node4 -->
<g id="edge3_Node000003_Node000004" class="edge">
<title>Node3&#45;&gt;Node4</title>
<g id="a_edge3_Node000003_Node000004"><a xlink:title=" ">
<path fill="none" stroke="#63b8ff" d="M669.13,-31.22C677.75,-30.13 686.47,-29.02 695.03,-27.94"/>
<polygon fill="#63b8ff" stroke="#63b8ff" points="695.52,-31.41 705,-26.68 694.64,-24.46 695.52,-31.41"/>
</a>
</g>
</g>
</g>
</svg>
