<?xml version="1.0" encoding="UTF-8" standalone="no"?>
<!DOCTYPE svg PUBLIC "-//W3C//DTD SVG 1.1//EN"
 "http://www.w3.org/Graphics/SVG/1.1/DTD/svg11.dtd">
<!-- Generated by graphviz version 2.43.0 (0)
 -->
<!-- Title: App\Http\Controllers\ProfileController Pages: 1 -->
<svg width="127pt" height="214pt"
 viewBox="0.00 0.00 127.00 214.00" xmlns="http://www.w3.org/2000/svg" xmlns:xlink="http://www.w3.org/1999/xlink">

<svg id="main" version="1.1" xmlns="http://www.w3.org/2000/svg" xmlns:xlink="http://www.w3.org/1999/xlink" xml:space="preserve" onload="init(evt)">
<style type="text/css"><![CDATA[
.node, .edge {opacity: 0.7;}
.node.selected, .edge.selected {opacity: 1;}
.edge:hover path { stroke: red; }
.edge:hover polygon { stroke: red; fill: red; }
]]></style>
<script type="application/ecmascript" xlink:href="svg.min.js"/>
<svg id="graph" class="graph">
<g id="graph0" class="graph" transform="scale(1 1) rotate(0) translate(4 210)">
<title>App\Http\Controllers\ProfileController</title>
<!-- Node1 -->
<g id="Node000001" class="node">
<title>Node1</title>
<g id="a_Node000001"><a xlink:title=" ">
<polygon fill="#999999" stroke="transparent" points="119,-102 0,-102 0,0 119,0 119,-102"/>
<text text-anchor="start" x="5.5" y="-88.4" font-family="Arial" font-size="12.00">App\Http\Controllers</text>
<text text-anchor="start" x="14.5" y="-75.4" font-family="Arial" font-size="12.00">\ProfileController</text>
<text text-anchor="start" x="58" y="-58.4" font-family="Arial" font-size="12.00"> </text>
<text text-anchor="start" x="17.5" y="-41.4" font-family="Arial" font-size="12.00">+</text>
<text text-anchor="start" x="41.5" y="-41.4" font-family="Arial" font-size="12.00">edit()</text>
<text text-anchor="start" x="17.5" y="-24.4" font-family="Arial" font-size="12.00">+</text>
<text text-anchor="start" x="41.5" y="-24.4" font-family="Arial" font-size="12.00">update()</text>
<text text-anchor="start" x="17.5" y="-7.4" font-family="Arial" font-size="12.00">+</text>
<text text-anchor="start" x="41.5" y="-7.4" font-family="Arial" font-size="12.00">destroy()</text>
<polygon fill="#666666" stroke="#666666" points="0.5,-70 0.5,-70 119.5,-70 119.5,-70 0.5,-70"/>
<polygon fill="#666666" stroke="#666666" points="0.5,-53 0.5,-53 119.5,-53 119.5,-53 0.5,-53"/>
<polygon fill="none" stroke="#666666" points="0,0 0,-102 119,-102 119,0 0,0"/>
</a>
</g>
</g>
<!-- Node2 -->
<g id="Node000002" class="node">
<title>Node2</title>
<g id="a_Node000002"><a xlink:href="class_app_1_1_http_1_1_controllers_1_1_controller.html" target="_top" xlink:title=" ">
<polygon fill="white" stroke="transparent" points="119,-206 0,-206 0,-138 119,-138 119,-206"/>
<text text-anchor="start" x="5.5" y="-192.4" font-family="Arial" font-size="12.00">App\Http\Controllers</text>
<text text-anchor="start" x="32" y="-179.4" font-family="Arial" font-size="12.00">\Controller</text>
<text text-anchor="start" x="58" y="-162.4" font-family="Arial" font-size="12.00"> </text>
<text text-anchor="start" x="58" y="-145.4" font-family="Arial" font-size="12.00"> </text>
<polygon fill="#666666" stroke="#666666" points="0.5,-174 0.5,-174 119.5,-174 119.5,-174 0.5,-174"/>
<polygon fill="#666666" stroke="#666666" points="0.5,-157 0.5,-157 119.5,-157 119.5,-157 0.5,-157"/>
<polygon fill="none" stroke="#666666" points="0,-138 0,-206 119,-206 119,-138 0,-138"/>
</a>
</g>
</g>
<!-- Node2&#45;&gt;Node1 -->
<g id="edge1_Node000001_Node000002" class="edge">
<title>Node2&#45;&gt;Node1</title>
<g id="a_edge1_Node000001_Node000002"><a xlink:title=" ">
<path fill="none" stroke="#63b8ff" d="M59.5,-127.71C59.5,-119.47 59.5,-110.78 59.5,-102.34"/>
<polygon fill="none" stroke="#63b8ff" points="56,-127.85 59.5,-137.85 63,-127.85 56,-127.85"/>
</a>
</g>
</g>
</g>
</svg>
</svg>

<style type='text/css'>
<![CDATA[
[data-mouse-over-selected='false'] { opacity: 0.7; }
[data-mouse-over-selected='true']  { opacity: 1.0; }
]]>
</style>
<script type="application/ecmascript"><![CDATA[
document.addEventListener('DOMContentLoaded', (event) => {
  highlightEdges();
  highlightAdjacentNodes();
});
]]></script>
</svg>
