<?xml version="1.0" encoding="UTF-8" standalone="no"?>
<!DOCTYPE svg PUBLIC "-//W3C//DTD SVG 1.1//EN"
 "http://www.w3.org/Graphics/SVG/1.1/DTD/svg11.dtd">
<!-- Generated by graphviz version 2.43.0 (0)
 -->
<!-- Title: Database\Seeders\ShortUrlSeeder Pages: 1 -->
<svg width="166pt" height="167pt"
 viewBox="0.00 0.00 166.00 167.00" xmlns="http://www.w3.org/2000/svg" xmlns:xlink="http://www.w3.org/1999/xlink">
<g id="graph0" class="graph" transform="scale(1 1) rotate(0) translate(4 163)">
<title>Database\Seeders\ShortUrlSeeder</title>
<!-- Node1 -->
<g id="Node000001" class="node">
<title>Node1</title>
<g id="a_Node000001"><a xlink:title="This class is responsible for seeding the database with short URLs.">
<polygon fill="#999999" stroke="transparent" points="158,-68 0,-68 0,0 158,0 158,-68"/>
<text text-anchor="start" x="5" y="-54.4" font-family="Arial" font-size="12.00">Database\Seeders\ShortUrl</text>
<text text-anchor="start" x="59" y="-41.4" font-family="Arial" font-size="12.00">Seeder</text>
<text text-anchor="start" x="77" y="-24.4" font-family="Arial" font-size="12.00"> </text>
<text text-anchor="start" x="32.5" y="-7.4" font-family="Arial" font-size="12.00">+</text>
<text text-anchor="start" x="72" y="-7.4" font-family="Arial" font-size="12.00">run()</text>
<polygon fill="#666666" stroke="#666666" points="0,-36 0,-36 158,-36 158,-36 0,-36"/>
<polygon fill="#666666" stroke="#666666" points="0,-19 0,-19 158,-19 158,-19 0,-19"/>
<polygon fill="none" stroke="#666666" points="0,0 0,-68 158,-68 158,0 0,0"/>
</a>
</g>
</g>
<!-- Node2 -->
<g id="Node000002" class="node">
<title>Node2</title>
<g id="a_Node000002"><a xlink:title=" ">
<polygon fill="white" stroke="transparent" points="104,-159 54,-159 54,-104 104,-104 104,-159"/>
<text text-anchor="start" x="59" y="-144.9" font-family="Arial" font-size="12.00">Seeder</text>
<text text-anchor="start" x="77" y="-127.9" font-family="Arial" font-size="12.00"> </text>
<text text-anchor="start" x="77" y="-110.9" font-family="Arial" font-size="12.00"> </text>
<polygon fill="#666666" stroke="#666666" points="54,-139.5 54,-139.5 104,-139.5 104,-139.5 54,-139.5"/>
<polygon fill="#666666" stroke="#666666" points="54,-122.5 54,-122.5 104,-122.5 104,-122.5 54,-122.5"/>
<polygon fill="none" stroke="#666666" points="54,-104 54,-159 104,-159 104,-104 54,-104"/>
</a>
</g>
</g>
<!-- Node2&#45;&gt;Node1 -->
<g id="edge1_Node000001_Node000002" class="edge">
<title>Node2&#45;&gt;Node1</title>
<g id="a_edge1_Node000001_Node000002"><a xlink:title=" ">
<path fill="none" stroke="#63b8ff" d="M79,-93.65C79,-85.3 79,-76.47 79,-68.28"/>
<polygon fill="none" stroke="#63b8ff" points="75.5,-93.9 79,-103.9 82.5,-93.9 75.5,-93.9"/>
</a>
</g>
</g>
</g>
</svg>
