<?xml version="1.0" encoding="UTF-8" standalone="no"?>
<!DOCTYPE svg PUBLIC "-//W3C//DTD SVG 1.1//EN"
 "http://www.w3.org/Graphics/SVG/1.1/DTD/svg11.dtd">
<!-- Generated by graphviz version 2.43.0 (0)
 -->
<!-- Title: App\Actions\Fortify\UpdateUserProfileInformation Pages: 1 -->
<svg width="183pt" height="184pt"
 viewBox="0.00 0.00 183.00 184.00" xmlns="http://www.w3.org/2000/svg" xmlns:xlink="http://www.w3.org/1999/xlink">
<g id="graph0" class="graph" transform="scale(1 1) rotate(0) translate(4 180)">
<title>App\Actions\Fortify\UpdateUserProfileInformation</title>
<!-- Node1 -->
<g id="Node000001" class="node">
<title>Node1</title>
<g id="a_Node000001"><a xlink:title=" ">
<polygon fill="#999999" stroke="transparent" points="173.5,-85 1.5,-85 1.5,0 173.5,0 173.5,-85"/>
<text text-anchor="start" x="6.5" y="-70.9" font-family="Arial" font-size="12.00">App\Actions\Fortify</text>
<text text-anchor="start" x="6.5" y="-57.9" font-family="Arial" font-size="12.00">\UpdateUserProfileInformation</text>
<text text-anchor="start" x="85.5" y="-40.9" font-family="Arial" font-size="12.00"> </text>
<text text-anchor="start" x="16" y="-23.9" font-family="Arial" font-size="12.00">+</text>
<text text-anchor="start" x="37.5" y="-23.9" font-family="Arial" font-size="12.00">update()</text>
<text text-anchor="start" x="16" y="-6.9" font-family="Arial" font-size="12.00">#</text>
<text text-anchor="start" x="37.5" y="-6.9" font-family="Arial" font-size="12.00">updateVerifiedUser()</text>
<polygon fill="#666666" stroke="#666666" points="1.5,-52.5 1.5,-52.5 173.5,-52.5 173.5,-52.5 1.5,-52.5"/>
<polygon fill="#666666" stroke="#666666" points="1.5,-35.5 1.5,-35.5 173.5,-35.5 173.5,-35.5 1.5,-35.5"/>
<polygon fill="none" stroke="#666666" points="1.5,0 1.5,-85 173.5,-85 173.5,0 1.5,0"/>
</a>
</g>
</g>
<!-- Node2 -->
<g id="Node000002" class="node">
<title>Node2</title>
<g id="a_Node000002"><a xlink:title=" ">
<polygon fill="white" stroke="transparent" points="175,-176 0,-176 0,-121 175,-121 175,-176"/>
<text text-anchor="start" x="5.5" y="-161.9" font-family="Arial" font-size="12.00">UpdatesUserProfileInformation</text>
<text text-anchor="start" x="86" y="-144.9" font-family="Arial" font-size="12.00"> </text>
<text text-anchor="start" x="86" y="-127.9" font-family="Arial" font-size="12.00"> </text>
<polygon fill="#666666" stroke="#666666" points="0.5,-156.5 0.5,-156.5 175.5,-156.5 175.5,-156.5 0.5,-156.5"/>
<polygon fill="#666666" stroke="#666666" points="0.5,-139.5 0.5,-139.5 175.5,-139.5 175.5,-139.5 0.5,-139.5"/>
<polygon fill="none" stroke="#666666" points="0,-121 0,-176 175,-176 175,-121 0,-121"/>
</a>
</g>
</g>
<!-- Node2&#45;&gt;Node1 -->
<g id="edge1_Node000001_Node000002" class="edge">
<title>Node2&#45;&gt;Node1</title>
<g id="a_edge1_Node000001_Node000002"><a xlink:title=" ">
<path fill="none" stroke="#63b8ff" d="M87.5,-110.89C87.5,-102.63 87.5,-93.79 87.5,-85.33"/>
<polygon fill="none" stroke="#63b8ff" points="84,-110.99 87.5,-120.99 91,-110.99 84,-110.99"/>
</a>
</g>
</g>
</g>
</svg>
