<?xml version="1.0" encoding="UTF-8" standalone="no"?>
<!DOCTYPE svg PUBLIC "-//W3C//DTD SVG 1.1//EN"
 "http://www.w3.org/Graphics/SVG/1.1/DTD/svg11.dtd">
<!-- Generated by graphviz version 2.43.0 (0)
 -->
<!-- Title: App\Http\Controllers\Auth\PasswordController Pages: 1 -->
<svg width="155pt" height="180pt"
 viewBox="0.00 0.00 155.00 180.00" xmlns="http://www.w3.org/2000/svg" xmlns:xlink="http://www.w3.org/1999/xlink">
<g id="graph0" class="graph" transform="scale(1 1) rotate(0) translate(4 176)">
<title>App\Http\Controllers\Auth\PasswordController</title>
<!-- Node1 -->
<g id="Node000001" class="node">
<title>Node1</title>
<g id="a_Node000001"><a xlink:title=" ">
<polygon fill="#999999" stroke="transparent" points="147,-68 0,-68 0,0 147,0 147,-68"/>
<text text-anchor="start" x="5.5" y="-54.4" font-family="Arial" font-size="12.00">App\Http\Controllers</text>
<text text-anchor="start" x="5.5" y="-41.4" font-family="Arial" font-size="12.00">\Auth\PasswordController</text>
<text text-anchor="start" x="72" y="-24.4" font-family="Arial" font-size="12.00"> </text>
<text text-anchor="start" x="25" y="-7.4" font-family="Arial" font-size="12.00">+</text>
<text text-anchor="start" x="56.5" y="-7.4" font-family="Arial" font-size="12.00">update()</text>
<polygon fill="#666666" stroke="#666666" points="0.5,-36 0.5,-36 147.5,-36 147.5,-36 0.5,-36"/>
<polygon fill="#666666" stroke="#666666" points="0.5,-19 0.5,-19 147.5,-19 147.5,-19 0.5,-19"/>
<polygon fill="none" stroke="#666666" points="0,0 0,-68 147,-68 147,0 0,0"/>
</a>
</g>
</g>
<!-- Node2 -->
<g id="Node000002" class="node">
<title>Node2</title>
<g id="a_Node000002"><a xlink:href="class_app_1_1_http_1_1_controllers_1_1_controller.html" target="_top" xlink:title=" ">
<polygon fill="white" stroke="transparent" points="133,-172 14,-172 14,-104 133,-104 133,-172"/>
<text text-anchor="start" x="19.5" y="-158.4" font-family="Arial" font-size="12.00">App\Http\Controllers</text>
<text text-anchor="start" x="46" y="-145.4" font-family="Arial" font-size="12.00">\Controller</text>
<text text-anchor="start" x="72" y="-128.4" font-family="Arial" font-size="12.00"> </text>
<text text-anchor="start" x="72" y="-111.4" font-family="Arial" font-size="12.00"> </text>
<polygon fill="#666666" stroke="#666666" points="14.5,-140 14.5,-140 133.5,-140 133.5,-140 14.5,-140"/>
<polygon fill="#666666" stroke="#666666" points="14.5,-123 14.5,-123 133.5,-123 133.5,-123 14.5,-123"/>
<polygon fill="none" stroke="#666666" points="14,-104 14,-172 133,-172 133,-104 14,-104"/>
</a>
</g>
</g>
<!-- Node2&#45;&gt;Node1 -->
<g id="edge1_Node000001_Node000002" class="edge">
<title>Node2&#45;&gt;Node1</title>
<g id="a_edge1_Node000001_Node000002"><a xlink:title=" ">
<path fill="none" stroke="#63b8ff" d="M73.5,-93.72C73.5,-85.21 73.5,-76.42 73.5,-68.3"/>
<polygon fill="none" stroke="#63b8ff" points="70,-93.88 73.5,-103.88 77,-93.88 70,-93.88"/>
</a>
</g>
</g>
</g>
</svg>
