<?xml version="1.0" encoding="UTF-8" standalone="no"?>
<!DOCTYPE svg PUBLIC "-//W3C//DTD SVG 1.1//EN"
 "http://www.w3.org/Graphics/SVG/1.1/DTD/svg11.dtd">
<!-- Generated by graphviz version 2.43.0 (0)
 -->
<!-- Title: App\Models\ShortUrl Pages: 1 -->
<svg width="130pt" height="154pt"
 viewBox="0.00 0.00 130.00 154.00" xmlns="http://www.w3.org/2000/svg" xmlns:xlink="http://www.w3.org/1999/xlink">
<g id="graph0" class="graph" transform="scale(1 1) rotate(0) translate(4 150)">
<title>App\Models\ShortUrl</title>
<!-- Node1 -->
<g id="Node000001" class="node">
<title>Node1</title>
<g id="a_Node000001"><a xlink:title=" ">
<polygon fill="#999999" stroke="transparent" points="122,-55 0,-55 0,0 122,0 122,-55"/>
<text text-anchor="start" x="5" y="-40.9" font-family="Arial" font-size="12.00">App\Models\ShortUrl</text>
<text text-anchor="start" x="19" y="-23.9" font-family="Arial" font-size="12.00">#</text>
<text text-anchor="start" x="45" y="-23.9" font-family="Arial" font-size="12.00">$fillable</text>
<text text-anchor="start" x="19" y="-6.9" font-family="Arial" font-size="12.00">+</text>
<text text-anchor="start" x="45" y="-6.9" font-family="Arial" font-size="12.00">user()</text>
<polygon fill="#666666" stroke="#666666" points="0,-35.5 0,-35.5 122,-35.5 122,-35.5 0,-35.5"/>
<polygon fill="#666666" stroke="#666666" points="0,-18.5 0,-18.5 43,-18.5 43,-18.5 0,-18.5"/>
<polygon fill="#666666" stroke="#666666" points="43,-18.5 43,-18.5 122,-18.5 122,-18.5 43,-18.5"/>
<polygon fill="none" stroke="#666666" points="0,0 0,-55 122,-55 122,0 0,0"/>
</a>
</g>
</g>
<!-- Node2 -->
<g id="Node000002" class="node">
<title>Node2</title>
<g id="a_Node000002"><a xlink:title=" ">
<polygon fill="white" stroke="transparent" points="83,-146 39,-146 39,-91 83,-91 83,-146"/>
<text text-anchor="start" x="44" y="-131.9" font-family="Arial" font-size="12.00">Model</text>
<text text-anchor="start" x="59" y="-114.9" font-family="Arial" font-size="12.00"> </text>
<text text-anchor="start" x="59" y="-97.9" font-family="Arial" font-size="12.00"> </text>
<polygon fill="#666666" stroke="#666666" points="39,-126.5 39,-126.5 83,-126.5 83,-126.5 39,-126.5"/>
<polygon fill="#666666" stroke="#666666" points="39,-109.5 39,-109.5 83,-109.5 83,-109.5 39,-109.5"/>
<polygon fill="none" stroke="#666666" points="39,-91 39,-146 83,-146 83,-91 39,-91"/>
</a>
</g>
</g>
<!-- Node2&#45;&gt;Node1 -->
<g id="edge1_Node000001_Node000002" class="edge">
<title>Node2&#45;&gt;Node1</title>
<g id="a_edge1_Node000001_Node000002"><a xlink:title=" ">
<path fill="none" stroke="#63b8ff" d="M61,-80.66C61,-72.12 61,-63.19 61,-55.18"/>
<polygon fill="none" stroke="#63b8ff" points="57.5,-80.8 61,-90.8 64.5,-80.8 57.5,-80.8"/>
</a>
</g>
</g>
</g>
</svg>
