<?xml version="1.0" encoding="UTF-8" standalone="no"?>
<!DOCTYPE svg PUBLIC "-//W3C//DTD SVG 1.1//EN"
 "http://www.w3.org/Graphics/SVG/1.1/DTD/svg11.dtd">
<!-- Generated by graphviz version 2.43.0 (0)
 -->
<!-- Title: Illuminate Pages: 1 -->
<svg width="319pt" height="252pt"
 viewBox="0.00 0.00 318.50 252.00" xmlns="http://www.w3.org/2000/svg" xmlns:xlink="http://www.w3.org/1999/xlink">

<svg id="main" version="1.1" xmlns="http://www.w3.org/2000/svg" xmlns:xlink="http://www.w3.org/1999/xlink" xml:space="preserve" onload="init(evt)">
<style type="text/css"><![CDATA[
.node, .edge {opacity: 0.7;}
.node.selected, .edge.selected {opacity: 1;}
.edge:hover path { stroke: red; }
.edge:hover polygon { stroke: red; fill: red; }
]]></style>
<script type="application/ecmascript" xlink:href="svg.min.js"/>
<svg id="graph" class="graph">
<g id="graph0" class="graph" transform="scale(1 1) rotate(0) translate(4 248)">
<title>Illuminate</title>
<!-- Node1 -->
<g id="Node000001" class="node">
<title>Node1</title>
<g id="a_Node000001"><a xlink:title=" ">
<polygon fill="#999999" stroke="transparent" points="202,-244 140,-244 140,-189 202,-189 202,-244"/>
<text text-anchor="start" x="145" y="-229.9" font-family="Arial" font-size="12.00">Illuminate</text>
<text text-anchor="start" x="169" y="-212.9" font-family="Arial" font-size="12.00"> </text>
<text text-anchor="start" x="169" y="-195.9" font-family="Arial" font-size="12.00"> </text>
<polygon fill="#666666" stroke="#666666" points="140,-224.5 140,-224.5 202,-224.5 202,-224.5 140,-224.5"/>
<polygon fill="#666666" stroke="#666666" points="140,-207.5 140,-207.5 202,-207.5 202,-207.5 140,-207.5"/>
<polygon fill="none" stroke="#666666" points="140,-189 140,-244 202,-244 202,-189 140,-189"/>
</a>
</g>
</g>
<!-- Node2 -->
<g id="Node000002" class="node">
<title>Node2</title>
<g id="a_Node000002"><a xlink:href="class_database_1_1_factories_1_1_short_url_factory.html" target="_top" xlink:title="Factory for generating ShortUrl instances.">
<polygon fill="white" stroke="transparent" points="178,-153 0,-153 0,0 178,0 178,-153"/>
<text text-anchor="start" x="36.5" y="-138.9" font-family="Arial" font-size="12.00">Database\Factories</text>
<text text-anchor="start" x="45" y="-125.9" font-family="Arial" font-size="12.00">\ShortUrlFactory</text>
<text text-anchor="start" x="4" y="-108.9" font-family="Arial" font-size="12.00">#</text>
<text text-anchor="start" x="15" y="-108.9" font-family="Arial" font-size="12.00">$model</text>
<text text-anchor="start" x="4" y="-91.9" font-family="Arial" font-size="12.00">+</text>
<text text-anchor="start" x="15" y="-91.9" font-family="Arial" font-size="12.00">definition()</text>
<text text-anchor="start" x="4" y="-74.9" font-family="Arial" font-size="12.00">+</text>
<text text-anchor="start" x="15" y="-74.9" font-family="Arial" font-size="12.00">neverUsed()</text>
<text text-anchor="start" x="4" y="-57.9" font-family="Arial" font-size="12.00">+</text>
<text text-anchor="start" x="15" y="-57.9" font-family="Arial" font-size="12.00">recentlyUsed()</text>
<text text-anchor="start" x="4" y="-40.9" font-family="Arial" font-size="12.00">+</text>
<text text-anchor="start" x="15" y="-40.9" font-family="Arial" font-size="12.00">oldUsage()</text>
<text text-anchor="start" x="4" y="-23.9" font-family="Arial" font-size="12.00">+</text>
<text text-anchor="start" x="15" y="-23.9" font-family="Arial" font-size="12.00">highTraffic()</text>
<text text-anchor="start" x="5.5" y="-6.9" font-family="Arial" font-size="12.00">&#45;</text>
<text text-anchor="start" x="15" y="-6.9" font-family="Arial" font-size="12.00">generateAlphanumericCode()</text>
<polygon fill="#666666" stroke="#666666" points="0,-120.5 0,-120.5 178,-120.5 178,-120.5 0,-120.5"/>
<polygon fill="#666666" stroke="#666666" points="0,-103.5 0,-103.5 13,-103.5 13,-103.5 0,-103.5"/>
<polygon fill="#666666" stroke="#666666" points="13,-103.5 13,-103.5 178,-103.5 178,-103.5 13,-103.5"/>
<polygon fill="none" stroke="#666666" points="0,0 0,-153 178,-153 178,0 0,0"/>
</a>
</g>
</g>
<!-- Node1&#45;&gt;Node2 -->
<g id="edge1_Node000001_Node000002" class="edge">
<title>Node1&#45;&gt;Node2</title>
<g id="a_edge1_Node000001_Node000002"><a xlink:title=" ">
<path fill="none" stroke="#63b8ff" d="M150.01,-180.18C145.03,-171.8 139.53,-162.55 133.94,-153.12"/>
<polygon fill="none" stroke="#63b8ff" points="147.07,-182.08 155.19,-188.89 153.09,-178.51 147.07,-182.08"/>
</a>
</g>
</g>
<!-- Node3 -->
<g id="Node000003" class="node">
<title>Node3</title>
<g id="a_Node000003"><a xlink:href="class_database_1_1_factories_1_1_user_factory.html" target="_top" xlink:title="\Databaseloquent\Factories\Factory&lt;\App\Models\User&gt;">
<polygon fill="white" stroke="transparent" points="310.5,-119 195.5,-119 195.5,-34 310.5,-34 310.5,-119"/>
<text text-anchor="start" x="201" y="-104.9" font-family="Arial" font-size="12.00">Database\Factories</text>
<text text-anchor="start" x="219" y="-91.9" font-family="Arial" font-size="12.00">\UserFactory</text>
<text text-anchor="start" x="208.5" y="-74.9" font-family="Arial" font-size="12.00">#</text>
<text text-anchor="start" x="228" y="-74.9" font-family="Arial" font-size="12.00">$password</text>
<text text-anchor="start" x="208.5" y="-57.9" font-family="Arial" font-size="12.00">+</text>
<text text-anchor="start" x="228" y="-57.9" font-family="Arial" font-size="12.00">definition()</text>
<text text-anchor="start" x="208.5" y="-40.9" font-family="Arial" font-size="12.00">+</text>
<text text-anchor="start" x="228" y="-40.9" font-family="Arial" font-size="12.00">unverified()</text>
<polygon fill="#666666" stroke="#666666" points="196,-86.5 196,-86.5 311,-86.5 311,-86.5 196,-86.5"/>
<polygon fill="#666666" stroke="#666666" points="196,-69.5 196,-69.5 226,-69.5 226,-69.5 196,-69.5"/>
<polygon fill="#666666" stroke="#666666" points="226,-69.5 226,-69.5 311,-69.5 311,-69.5 226,-69.5"/>
<polygon fill="none" stroke="#666666" points="195.5,-34 195.5,-119 310.5,-119 310.5,-34 195.5,-34"/>
</a>
</g>
</g>
<!-- Node1&#45;&gt;Node3 -->
<g id="edge2_Node000001_Node000003" class="edge">
<title>Node1&#45;&gt;Node3</title>
<g id="a_edge2_Node000001_Node000003"><a xlink:title=" ">
<path fill="none" stroke="#63b8ff" d="M192,-180.15C203.04,-161.57 216.65,-138.68 228.2,-119.23"/>
<polygon fill="none" stroke="#63b8ff" points="188.91,-178.51 186.81,-188.89 194.93,-182.08 188.91,-178.51"/>
</a>
</g>
</g>
</g>
</svg>
</svg>

<style type='text/css'>
<![CDATA[
[data-mouse-over-selected='false'] { opacity: 0.7; }
[data-mouse-over-selected='true']  { opacity: 1.0; }
]]>
</style>
<script type="application/ecmascript"><![CDATA[
document.addEventListener('DOMContentLoaded', (event) => {
  highlightEdges();
  highlightAdjacentNodes();
});
]]></script>
</svg>
