<?xml version="1.0" encoding="UTF-8" standalone="no"?>
<!DOCTYPE svg PUBLIC "-//W3C//DTD SVG 1.1//EN"
 "http://www.w3.org/Graphics/SVG/1.1/DTD/svg11.dtd">
<!-- Generated by graphviz version 2.43.0 (0)
 -->
<!-- Title: App\Http\Controllers\Auth\RegisteredUserController Pages: 1 -->
<svg width="186pt" height="197pt"
 viewBox="0.00 0.00 186.00 197.00" xmlns="http://www.w3.org/2000/svg" xmlns:xlink="http://www.w3.org/1999/xlink">
<g id="graph0" class="graph" transform="scale(1 1) rotate(0) translate(4 193)">
<title>App\Http\Controllers\Auth\RegisteredUserController</title>
<!-- Node1 -->
<g id="Node000001" class="node">
<title>Node1</title>
<g id="a_Node000001"><a xlink:title=" ">
<polygon fill="#999999" stroke="transparent" points="178,-85 0,-85 0,0 178,0 178,-85"/>
<text text-anchor="start" x="5" y="-70.9" font-family="Arial" font-size="12.00">App\Http\Controllers</text>
<text text-anchor="start" x="5" y="-57.9" font-family="Arial" font-size="12.00">\Auth\RegisteredUserController</text>
<text text-anchor="start" x="87" y="-40.9" font-family="Arial" font-size="12.00"> </text>
<text text-anchor="start" x="33.5" y="-23.9" font-family="Arial" font-size="12.00">+</text>
<text text-anchor="start" x="74" y="-23.9" font-family="Arial" font-size="12.00">create()</text>
<text text-anchor="start" x="33.5" y="-6.9" font-family="Arial" font-size="12.00">+</text>
<text text-anchor="start" x="74" y="-6.9" font-family="Arial" font-size="12.00">store()</text>
<polygon fill="#666666" stroke="#666666" points="0,-52.5 0,-52.5 178,-52.5 178,-52.5 0,-52.5"/>
<polygon fill="#666666" stroke="#666666" points="0,-35.5 0,-35.5 178,-35.5 178,-35.5 0,-35.5"/>
<polygon fill="none" stroke="#666666" points="0,0 0,-85 178,-85 178,0 0,0"/>
</a>
</g>
</g>
<!-- Node2 -->
<g id="Node000002" class="node">
<title>Node2</title>
<g id="a_Node000002"><a xlink:href="class_app_1_1_http_1_1_controllers_1_1_controller.html" target="_top" xlink:title=" ">
<polygon fill="white" stroke="transparent" points="148.5,-189 29.5,-189 29.5,-121 148.5,-121 148.5,-189"/>
<text text-anchor="start" x="35" y="-175.4" font-family="Arial" font-size="12.00">App\Http\Controllers</text>
<text text-anchor="start" x="61.5" y="-162.4" font-family="Arial" font-size="12.00">\Controller</text>
<text text-anchor="start" x="87.5" y="-145.4" font-family="Arial" font-size="12.00"> </text>
<text text-anchor="start" x="87.5" y="-128.4" font-family="Arial" font-size="12.00"> </text>
<polygon fill="#666666" stroke="#666666" points="30,-157 30,-157 149,-157 149,-157 30,-157"/>
<polygon fill="#666666" stroke="#666666" points="30,-140 30,-140 149,-140 149,-140 30,-140"/>
<polygon fill="none" stroke="#666666" points="29.5,-121 29.5,-189 148.5,-189 148.5,-121 29.5,-121"/>
</a>
</g>
</g>
<!-- Node2&#45;&gt;Node1 -->
<g id="edge1_Node000001_Node000002" class="edge">
<title>Node2&#45;&gt;Node1</title>
<g id="a_edge1_Node000001_Node000002"><a xlink:title=" ">
<path fill="none" stroke="#63b8ff" d="M89,-110.84C89,-102.43 89,-93.62 89,-85.26"/>
<polygon fill="none" stroke="#63b8ff" points="85.5,-110.85 89,-120.85 92.5,-110.85 85.5,-110.85"/>
</a>
</g>
</g>
</g>
</svg>
