<?xml version="1.0" encoding="UTF-8" standalone="no"?>
<!DOCTYPE svg PUBLIC "-//W3C//DTD SVG 1.1//EN"
 "http://www.w3.org/Graphics/SVG/1.1/DTD/svg11.dtd">
<!-- Generated by graphviz version 2.43.0 (0)
 -->
<!-- Title: Database\Factories\ShortUrlFactory Pages: 1 -->
<svg width="186pt" height="252pt"
 viewBox="0.00 0.00 186.00 252.00" xmlns="http://www.w3.org/2000/svg" xmlns:xlink="http://www.w3.org/1999/xlink">
<g id="graph0" class="graph" transform="scale(1 1) rotate(0) translate(4 248)">
<title>Database\Factories\ShortUrlFactory</title>
<!-- Node1 -->
<g id="Node000001" class="node">
<title>Node1</title>
<g id="a_Node000001"><a xlink:title="Factory for generating ShortUrl instances.">
<polygon fill="#999999" stroke="transparent" points="178,-153 0,-153 0,0 178,0 178,-153"/>
<text text-anchor="start" x="36.5" y="-138.9" font-family="Arial" font-size="12.00">Database\Factories</text>
<text text-anchor="start" x="45" y="-125.9" font-family="Arial" font-size="12.00">\ShortUrlFactory</text>
<text text-anchor="start" x="4" y="-108.9" font-family="Arial" font-size="12.00">#</text>
<text text-anchor="start" x="15" y="-108.9" font-family="Arial" font-size="12.00">$model</text>
<text text-anchor="start" x="4" y="-91.9" font-family="Arial" font-size="12.00">+</text>
<text text-anchor="start" x="15" y="-91.9" font-family="Arial" font-size="12.00">definition()</text>
<text text-anchor="start" x="4" y="-74.9" font-family="Arial" font-size="12.00">+</text>
<text text-anchor="start" x="15" y="-74.9" font-family="Arial" font-size="12.00">neverUsed()</text>
<text text-anchor="start" x="4" y="-57.9" font-family="Arial" font-size="12.00">+</text>
<text text-anchor="start" x="15" y="-57.9" font-family="Arial" font-size="12.00">recentlyUsed()</text>
<text text-anchor="start" x="4" y="-40.9" font-family="Arial" font-size="12.00">+</text>
<text text-anchor="start" x="15" y="-40.9" font-family="Arial" font-size="12.00">oldUsage()</text>
<text text-anchor="start" x="4" y="-23.9" font-family="Arial" font-size="12.00">+</text>
<text text-anchor="start" x="15" y="-23.9" font-family="Arial" font-size="12.00">highTraffic()</text>
<text text-anchor="start" x="5.5" y="-6.9" font-family="Arial" font-size="12.00">&#45;</text>
<text text-anchor="start" x="15" y="-6.9" font-family="Arial" font-size="12.00">generateAlphanumericCode()</text>
<polygon fill="#666666" stroke="#666666" points="0,-120.5 0,-120.5 178,-120.5 178,-120.5 0,-120.5"/>
<polygon fill="#666666" stroke="#666666" points="0,-103.5 0,-103.5 13,-103.5 13,-103.5 0,-103.5"/>
<polygon fill="#666666" stroke="#666666" points="13,-103.5 13,-103.5 178,-103.5 178,-103.5 13,-103.5"/>
<polygon fill="none" stroke="#666666" points="0,0 0,-153 178,-153 178,0 0,0"/>
</a>
</g>
</g>
<!-- Node2 -->
<g id="Node000002" class="node">
<title>Node2</title>
<g id="a_Node000002"><a xlink:href="class_illuminate.html" target="_top" xlink:title=" ">
<polygon fill="white" stroke="transparent" points="83,-244 21,-244 21,-189 83,-189 83,-244"/>
<text text-anchor="start" x="26" y="-229.9" font-family="Arial" font-size="12.00">Illuminate</text>
<text text-anchor="start" x="50" y="-212.9" font-family="Arial" font-size="12.00"> </text>
<text text-anchor="start" x="50" y="-195.9" font-family="Arial" font-size="12.00"> </text>
<polygon fill="#666666" stroke="#666666" points="21,-224.5 21,-224.5 83,-224.5 83,-224.5 21,-224.5"/>
<polygon fill="#666666" stroke="#666666" points="21,-207.5 21,-207.5 83,-207.5 83,-207.5 21,-207.5"/>
<polygon fill="none" stroke="#666666" points="21,-189 21,-244 83,-244 83,-189 21,-189"/>
</a>
</g>
</g>
<!-- Node2&#45;&gt;Node1 -->
<g id="edge1_Node000001_Node000002" class="edge">
<title>Node2&#45;&gt;Node1</title>
<g id="a_edge1_Node000001_Node000002"><a xlink:title=" ">
<path fill="none" stroke="#63b8ff" d="M61.76,-179.11C63.93,-171.01 66.31,-162.14 68.72,-153.12"/>
<polygon fill="none" stroke="#63b8ff" points="58.34,-178.33 59.13,-188.89 65.1,-180.14 58.34,-178.33"/>
</a>
</g>
</g>
<!-- Node3 -->
<g id="Node000003" class="node">
<title>Node3</title>
<g id="a_Node000003"><a xlink:title=" ">
<polygon fill="white" stroke="transparent" points="151,-244 101,-244 101,-189 151,-189 151,-244"/>
<text text-anchor="start" x="106" y="-229.9" font-family="Arial" font-size="12.00">Factory</text>
<text text-anchor="start" x="124" y="-212.9" font-family="Arial" font-size="12.00"> </text>
<text text-anchor="start" x="124" y="-195.9" font-family="Arial" font-size="12.00"> </text>
<polygon fill="#666666" stroke="#666666" points="101,-224.5 101,-224.5 151,-224.5 151,-224.5 101,-224.5"/>
<polygon fill="#666666" stroke="#666666" points="101,-207.5 101,-207.5 151,-207.5 151,-207.5 101,-207.5"/>
<polygon fill="none" stroke="#666666" points="101,-189 101,-244 151,-244 151,-189 101,-189"/>
</a>
</g>
</g>
<!-- Node3&#45;&gt;Node1 -->
<g id="edge2_Node000001_Node000003" class="edge">
<title>Node3&#45;&gt;Node1</title>
<g id="a_edge2_Node000001_Node000003"><a xlink:title=" ">
<path fill="none" stroke="#63b8ff" d="M116.24,-179.11C114.07,-171.01 111.69,-162.14 109.28,-153.12"/>
<polygon fill="none" stroke="#63b8ff" points="112.9,-180.14 118.87,-188.89 119.66,-178.33 112.9,-180.14"/>
</a>
</g>
</g>
</g>
</svg>
