<?xml version="1.0" encoding="UTF-8" standalone="no"?>
<!DOCTYPE svg PUBLIC "-//W3C//DTD SVG 1.1//EN"
 "http://www.w3.org/Graphics/SVG/1.1/DTD/svg11.dtd">
<!-- Generated by graphviz version 2.43.0 (0)
 -->
<!-- Title: App\Http\Requests\ProfileUpdateRequest Pages: 1 -->
<svg width="157pt" height="167pt"
 viewBox="0.00 0.00 157.00 167.00" xmlns="http://www.w3.org/2000/svg" xmlns:xlink="http://www.w3.org/1999/xlink">
<g id="graph0" class="graph" transform="scale(1 1) rotate(0) translate(4 163)">
<title>App\Http\Requests\ProfileUpdateRequest</title>
<!-- Node1 -->
<g id="Node000001" class="node">
<title>Node1</title>
<g id="a_Node000001"><a xlink:title=" ">
<polygon fill="#999999" stroke="transparent" points="149,-68 0,-68 0,0 149,0 149,-68"/>
<text text-anchor="start" x="5.5" y="-54.4" font-family="Arial" font-size="12.00">App\Http\Requests\Profile</text>
<text text-anchor="start" x="32.5" y="-41.4" font-family="Arial" font-size="12.00">UpdateRequest</text>
<text text-anchor="start" x="73" y="-24.4" font-family="Arial" font-size="12.00"> </text>
<text text-anchor="start" x="28.5" y="-7.4" font-family="Arial" font-size="12.00">+</text>
<text text-anchor="start" x="63.5" y="-7.4" font-family="Arial" font-size="12.00">rules()</text>
<polygon fill="#666666" stroke="#666666" points="0.5,-36 0.5,-36 149.5,-36 149.5,-36 0.5,-36"/>
<polygon fill="#666666" stroke="#666666" points="0.5,-19 0.5,-19 149.5,-19 149.5,-19 0.5,-19"/>
<polygon fill="none" stroke="#666666" points="0,0 0,-68 149,-68 149,0 0,0"/>
</a>
</g>
</g>
<!-- Node2 -->
<g id="Node000002" class="node">
<title>Node2</title>
<g id="a_Node000002"><a xlink:title=" ">
<polygon fill="white" stroke="transparent" points="116,-159 33,-159 33,-104 116,-104 116,-159"/>
<text text-anchor="start" x="38.5" y="-144.9" font-family="Arial" font-size="12.00">FormRequest</text>
<text text-anchor="start" x="73" y="-127.9" font-family="Arial" font-size="12.00"> </text>
<text text-anchor="start" x="73" y="-110.9" font-family="Arial" font-size="12.00"> </text>
<polygon fill="#666666" stroke="#666666" points="33.5,-139.5 33.5,-139.5 116.5,-139.5 116.5,-139.5 33.5,-139.5"/>
<polygon fill="#666666" stroke="#666666" points="33.5,-122.5 33.5,-122.5 116.5,-122.5 116.5,-122.5 33.5,-122.5"/>
<polygon fill="none" stroke="#666666" points="33,-104 33,-159 116,-159 116,-104 33,-104"/>
</a>
</g>
</g>
<!-- Node2&#45;&gt;Node1 -->
<g id="edge1_Node000001_Node000002" class="edge">
<title>Node2&#45;&gt;Node1</title>
<g id="a_edge1_Node000001_Node000002"><a xlink:title=" ">
<path fill="none" stroke="#63b8ff" d="M74.5,-93.65C74.5,-85.3 74.5,-76.47 74.5,-68.28"/>
<polygon fill="none" stroke="#63b8ff" points="71,-93.9 74.5,-103.9 78,-93.9 71,-93.9"/>
</a>
</g>
</g>
</g>
</svg>
