<?xml version="1.0" encoding="UTF-8" standalone="no"?>
<!DOCTYPE svg PUBLIC "-//W3C//DTD SVG 1.1//EN"
 "http://www.w3.org/Graphics/SVG/1.1/DTD/svg11.dtd">
<!-- Generated by graphviz version 2.43.0 (0)
 -->
<!-- Title: App\Http\Controllers\ShortUrlController Pages: 1 -->
<svg width="188pt" height="329pt"
 viewBox="0.00 0.00 187.50 329.00" xmlns="http://www.w3.org/2000/svg" xmlns:xlink="http://www.w3.org/1999/xlink">

<svg id="main" version="1.1" xmlns="http://www.w3.org/2000/svg" xmlns:xlink="http://www.w3.org/1999/xlink" xml:space="preserve" onload="init(evt)">
<style type="text/css"><![CDATA[
.node, .edge {opacity: 0.7;}
.node.selected, .edge.selected {opacity: 1;}
.edge:hover path { stroke: red; }
.edge:hover polygon { stroke: red; fill: red; }
]]></style>
<script type="application/ecmascript" xlink:href="svg.min.js"/>
<svg id="graph" class="graph">
<g id="graph0" class="graph" transform="scale(1 1) rotate(0) translate(4 325)">
<title>App\Http\Controllers\ShortUrlController</title>
<!-- Node1 -->
<g id="Node000001" class="node">
<title>Node1</title>
<g id="a_Node000001"><a xlink:title="Class ShortUrlController Handles the logic for the shortened URLs.">
<polygon fill="#999999" stroke="transparent" points="166,-204 47,-204 47,0 166,0 166,-204"/>
<text text-anchor="start" x="52.5" y="-190.4" font-family="Arial" font-size="12.00">App\Http\Controllers</text>
<text text-anchor="start" x="57" y="-177.4" font-family="Arial" font-size="12.00">\ShortUrlController</text>
<text text-anchor="start" x="105" y="-160.4" font-family="Arial" font-size="12.00"> </text>
<text text-anchor="start" x="53" y="-143.4" font-family="Arial" font-size="12.00">+</text>
<text text-anchor="start" x="65.5" y="-143.4" font-family="Arial" font-size="12.00">__construct()</text>
<text text-anchor="start" x="53" y="-126.4" font-family="Arial" font-size="12.00">+</text>
<text text-anchor="start" x="65.5" y="-126.4" font-family="Arial" font-size="12.00">index()</text>
<text text-anchor="start" x="53" y="-109.4" font-family="Arial" font-size="12.00">+</text>
<text text-anchor="start" x="65.5" y="-109.4" font-family="Arial" font-size="12.00">create()</text>
<text text-anchor="start" x="53" y="-92.4" font-family="Arial" font-size="12.00">+</text>
<text text-anchor="start" x="65.5" y="-92.4" font-family="Arial" font-size="12.00">store()</text>
<text text-anchor="start" x="53" y="-75.4" font-family="Arial" font-size="12.00">+</text>
<text text-anchor="start" x="65.5" y="-75.4" font-family="Arial" font-size="12.00">random()</text>
<text text-anchor="start" x="53" y="-58.4" font-family="Arial" font-size="12.00">+</text>
<text text-anchor="start" x="65.5" y="-58.4" font-family="Arial" font-size="12.00">edit()</text>
<text text-anchor="start" x="53" y="-41.4" font-family="Arial" font-size="12.00">+</text>
<text text-anchor="start" x="65.5" y="-41.4" font-family="Arial" font-size="12.00">update()</text>
<text text-anchor="start" x="53" y="-24.4" font-family="Arial" font-size="12.00">+</text>
<text text-anchor="start" x="65.5" y="-24.4" font-family="Arial" font-size="12.00">destroy()</text>
<text text-anchor="start" x="53" y="-7.4" font-family="Arial" font-size="12.00">+</text>
<text text-anchor="start" x="65.5" y="-7.4" font-family="Arial" font-size="12.00">incrementClicks()</text>
<polygon fill="#666666" stroke="#666666" points="47.5,-172 47.5,-172 166.5,-172 166.5,-172 47.5,-172"/>
<polygon fill="#666666" stroke="#666666" points="47.5,-155 47.5,-155 166.5,-155 166.5,-155 47.5,-155"/>
<polygon fill="none" stroke="#666666" points="47,0 47,-204 166,-204 166,0 47,0"/>
</a>
</g>
</g>
<!-- Node2 -->
<g id="Node000002" class="node">
<title>Node2</title>
<g id="a_Node000002"><a xlink:href="class_app_1_1_http_1_1_controllers_1_1_controller.html" target="_top" xlink:title=" ">
<polygon fill="white" stroke="transparent" points="119,-321 0,-321 0,-253 119,-253 119,-321"/>
<text text-anchor="start" x="5.5" y="-307.4" font-family="Arial" font-size="12.00">App\Http\Controllers</text>
<text text-anchor="start" x="32" y="-294.4" font-family="Arial" font-size="12.00">\Controller</text>
<text text-anchor="start" x="58" y="-277.4" font-family="Arial" font-size="12.00"> </text>
<text text-anchor="start" x="58" y="-260.4" font-family="Arial" font-size="12.00"> </text>
<polygon fill="#666666" stroke="#666666" points="0.5,-289 0.5,-289 119.5,-289 119.5,-289 0.5,-289"/>
<polygon fill="#666666" stroke="#666666" points="0.5,-272 0.5,-272 119.5,-272 119.5,-272 0.5,-272"/>
<polygon fill="none" stroke="#666666" points="0,-253 0,-321 119,-321 119,-253 0,-253"/>
</a>
</g>
</g>
<!-- Node2&#45;&gt;Node1 -->
<g id="edge1_Node000001_Node000002" class="edge">
<title>Node2&#45;&gt;Node1</title>
<g id="a_edge1_Node000001_Node000002"><a xlink:title=" ">
<path fill="none" stroke="#63b8ff" d="M70.57,-242.89C73.61,-231.06 77.04,-217.72 80.54,-204.09"/>
<polygon fill="none" stroke="#63b8ff" points="67.11,-242.3 68.01,-252.86 73.89,-244.05 67.11,-242.3"/>
</a>
</g>
</g>
<!-- Node3 -->
<g id="Node000003" class="node">
<title>Node3</title>
<g id="a_Node000003"><a xlink:title=" ">
<polygon fill="white" stroke="transparent" points="172,-314.5 137,-314.5 137,-259.5 172,-259.5 172,-314.5"/>
<text text-anchor="start" x="142.5" y="-300.4" font-family="Arial" font-size="12.00">Auth</text>
<text text-anchor="start" x="153" y="-283.4" font-family="Arial" font-size="12.00"> </text>
<text text-anchor="start" x="153" y="-266.4" font-family="Arial" font-size="12.00"> </text>
<polygon fill="#666666" stroke="#666666" points="137.5,-295 137.5,-295 172.5,-295 172.5,-295 137.5,-295"/>
<polygon fill="#666666" stroke="#666666" points="137.5,-278 137.5,-278 172.5,-278 172.5,-278 137.5,-278"/>
<polygon fill="none" stroke="#666666" points="137,-259.5 137,-314.5 172,-314.5 172,-259.5 137,-259.5"/>
</a>
</g>
</g>
<!-- Node3&#45;&gt;Node1 -->
<g id="edge2_Node000001_Node000003" class="edge">
<title>Node3&#45;&gt;Node1</title>
<g id="a_edge2_Node000001_Node000003"><a xlink:title=" ">
<path fill="none" stroke="#63b8ff" d="M147.52,-259.39C144.36,-247.35 140.39,-232.21 136.17,-216.13"/>
<polygon fill="none" stroke="#63b8ff" points="136.11,-215.89 130.72,-211.1 133.07,-204.28 138.46,-209.07 136.11,-215.89"/>
</a>
</g>
<text text-anchor="middle" x="159.5" y="-225.4" font-family="Arial" font-size="12.00" fill="grey"> #$user</text>
</g>
</g>
</svg>
</svg>

<style type='text/css'>
<![CDATA[
[data-mouse-over-selected='false'] { opacity: 0.7; }
[data-mouse-over-selected='true']  { opacity: 1.0; }
]]>
</style>
<script type="application/ecmascript"><![CDATA[
document.addEventListener('DOMContentLoaded', (event) => {
  highlightEdges();
  highlightAdjacentNodes();
});
]]></script>
</svg>
