<?xml version="1.0" encoding="UTF-8" standalone="no"?>
<!DOCTYPE svg PUBLIC "-//W3C//DTD SVG 1.1//EN"
 "http://www.w3.org/Graphics/SVG/1.1/DTD/svg11.dtd">
<!-- Generated by graphviz version 2.43.0 (0)
 -->
<!-- Title: App\Http\Controllers\Auth\NewPasswordController Pages: 1 -->
<svg width="180pt" height="197pt"
 viewBox="0.00 0.00 180.00 197.00" xmlns="http://www.w3.org/2000/svg" xmlns:xlink="http://www.w3.org/1999/xlink">
<g id="graph0" class="graph" transform="scale(1 1) rotate(0) translate(4 193)">
<title>App\Http\Controllers\Auth\NewPasswordController</title>
<!-- Node1 -->
<g id="Node000001" class="node">
<title>Node1</title>
<g id="a_Node000001"><a xlink:title=" ">
<polygon fill="#999999" stroke="transparent" points="172,-85 0,-85 0,0 172,0 172,-85"/>
<text text-anchor="start" x="5" y="-70.9" font-family="Arial" font-size="12.00">App\Http\Controllers</text>
<text text-anchor="start" x="5" y="-57.9" font-family="Arial" font-size="12.00">\Auth\NewPasswordController</text>
<text text-anchor="start" x="84" y="-40.9" font-family="Arial" font-size="12.00"> </text>
<text text-anchor="start" x="32" y="-23.9" font-family="Arial" font-size="12.00">+</text>
<text text-anchor="start" x="71" y="-23.9" font-family="Arial" font-size="12.00">create()</text>
<text text-anchor="start" x="32" y="-6.9" font-family="Arial" font-size="12.00">+</text>
<text text-anchor="start" x="71" y="-6.9" font-family="Arial" font-size="12.00">store()</text>
<polygon fill="#666666" stroke="#666666" points="0,-52.5 0,-52.5 172,-52.5 172,-52.5 0,-52.5"/>
<polygon fill="#666666" stroke="#666666" points="0,-35.5 0,-35.5 172,-35.5 172,-35.5 0,-35.5"/>
<polygon fill="none" stroke="#666666" points="0,0 0,-85 172,-85 172,0 0,0"/>
</a>
</g>
</g>
<!-- Node2 -->
<g id="Node000002" class="node">
<title>Node2</title>
<g id="a_Node000002"><a xlink:href="class_app_1_1_http_1_1_controllers_1_1_controller.html" target="_top" xlink:title=" ">
<polygon fill="white" stroke="transparent" points="145.5,-189 26.5,-189 26.5,-121 145.5,-121 145.5,-189"/>
<text text-anchor="start" x="32" y="-175.4" font-family="Arial" font-size="12.00">App\Http\Controllers</text>
<text text-anchor="start" x="58.5" y="-162.4" font-family="Arial" font-size="12.00">\Controller</text>
<text text-anchor="start" x="84.5" y="-145.4" font-family="Arial" font-size="12.00"> </text>
<text text-anchor="start" x="84.5" y="-128.4" font-family="Arial" font-size="12.00"> </text>
<polygon fill="#666666" stroke="#666666" points="27,-157 27,-157 146,-157 146,-157 27,-157"/>
<polygon fill="#666666" stroke="#666666" points="27,-140 27,-140 146,-140 146,-140 27,-140"/>
<polygon fill="none" stroke="#666666" points="26.5,-121 26.5,-189 145.5,-189 145.5,-121 26.5,-121"/>
</a>
</g>
</g>
<!-- Node2&#45;&gt;Node1 -->
<g id="edge1_Node000001_Node000002" class="edge">
<title>Node2&#45;&gt;Node1</title>
<g id="a_edge1_Node000001_Node000002"><a xlink:title=" ">
<path fill="none" stroke="#63b8ff" d="M86,-110.84C86,-102.43 86,-93.62 86,-85.26"/>
<polygon fill="none" stroke="#63b8ff" points="82.5,-110.85 86,-120.85 89.5,-110.85 82.5,-110.85"/>
</a>
</g>
</g>
</g>
</svg>
