<?xml version="1.0" encoding="UTF-8" standalone="no"?>
<!DOCTYPE svg PUBLIC "-//W3C//DTD SVG 1.1//EN"
 "http://www.w3.org/Graphics/SVG/1.1/DTD/svg11.dtd">
<!-- Generated by graphviz version 2.43.0 (0)
 -->
<!-- Title: Database\Seeders\DemoDataSeeder Pages: 1 -->
<svg width="179pt" height="167pt"
 viewBox="0.00 0.00 179.00 167.00" xmlns="http://www.w3.org/2000/svg" xmlns:xlink="http://www.w3.org/1999/xlink">
<g id="graph0" class="graph" transform="scale(1 1) rotate(0) translate(4 163)">
<title>Database\Seeders\DemoDataSeeder</title>
<!-- Node1 -->
<g id="Node000001" class="node">
<title>Node1</title>
<g id="a_Node000001"><a xlink:title="Seeder for creating demo data.">
<polygon fill="#999999" stroke="transparent" points="171,-68 0,-68 0,0 171,0 171,-68"/>
<text text-anchor="start" x="5.5" y="-54.4" font-family="Arial" font-size="12.00">Database\Seeders\DemoData</text>
<text text-anchor="start" x="66" y="-41.4" font-family="Arial" font-size="12.00">Seeder</text>
<text text-anchor="start" x="84" y="-24.4" font-family="Arial" font-size="12.00"> </text>
<text text-anchor="start" x="36" y="-7.4" font-family="Arial" font-size="12.00">+</text>
<text text-anchor="start" x="78.5" y="-7.4" font-family="Arial" font-size="12.00">run()</text>
<polygon fill="#666666" stroke="#666666" points="0.5,-36 0.5,-36 171.5,-36 171.5,-36 0.5,-36"/>
<polygon fill="#666666" stroke="#666666" points="0.5,-19 0.5,-19 171.5,-19 171.5,-19 0.5,-19"/>
<polygon fill="none" stroke="#666666" points="0,0 0,-68 171,-68 171,0 0,0"/>
</a>
</g>
</g>
<!-- Node2 -->
<g id="Node000002" class="node">
<title>Node2</title>
<g id="a_Node000002"><a xlink:title=" ">
<polygon fill="white" stroke="transparent" points="110.5,-159 60.5,-159 60.5,-104 110.5,-104 110.5,-159"/>
<text text-anchor="start" x="65.5" y="-144.9" font-family="Arial" font-size="12.00">Seeder</text>
<text text-anchor="start" x="83.5" y="-127.9" font-family="Arial" font-size="12.00"> </text>
<text text-anchor="start" x="83.5" y="-110.9" font-family="Arial" font-size="12.00"> </text>
<polygon fill="#666666" stroke="#666666" points="60.5,-139.5 60.5,-139.5 110.5,-139.5 110.5,-139.5 60.5,-139.5"/>
<polygon fill="#666666" stroke="#666666" points="60.5,-122.5 60.5,-122.5 110.5,-122.5 110.5,-122.5 60.5,-122.5"/>
<polygon fill="none" stroke="#666666" points="60.5,-104 60.5,-159 110.5,-159 110.5,-104 60.5,-104"/>
</a>
</g>
</g>
<!-- Node2&#45;&gt;Node1 -->
<g id="edge1_Node000001_Node000002" class="edge">
<title>Node2&#45;&gt;Node1</title>
<g id="a_edge1_Node000001_Node000002"><a xlink:title=" ">
<path fill="none" stroke="#63b8ff" d="M85.5,-93.65C85.5,-85.3 85.5,-76.47 85.5,-68.28"/>
<polygon fill="none" stroke="#63b8ff" points="82,-93.9 85.5,-103.9 89,-93.9 82,-93.9"/>
</a>
</g>
</g>
</g>
</svg>
