<?xml version="1.0" encoding="UTF-8" standalone="no"?>
<!DOCTYPE svg PUBLIC "-//W3C//DTD SVG 1.1//EN"
 "http://www.w3.org/Graphics/SVG/1.1/DTD/svg11.dtd">
<!-- Generated by graphviz version 2.43.0 (0)
 -->
<!-- Title: App\Http\Controllers\Auth\ConfirmablePasswordController Pages: 1 -->
<svg width="220pt" height="197pt"
 viewBox="0.00 0.00 220.00 197.00" xmlns="http://www.w3.org/2000/svg" xmlns:xlink="http://www.w3.org/1999/xlink">

<svg id="main" version="1.1" xmlns="http://www.w3.org/2000/svg" xmlns:xlink="http://www.w3.org/1999/xlink" xml:space="preserve" onload="init(evt)">
<style type="text/css"><![CDATA[
.node, .edge {opacity: 0.7;}
.node.selected, .edge.selected {opacity: 1;}
.edge:hover path { stroke: red; }
.edge:hover polygon { stroke: red; fill: red; }
]]></style>
<script type="application/ecmascript" xlink:href="svg.min.js"/>
<svg id="graph" class="graph">
<g id="graph0" class="graph" transform="scale(1 1) rotate(0) translate(4 193)">
<title>App\Http\Controllers\Auth\ConfirmablePasswordController</title>
<!-- Node1 -->
<g id="Node000001" class="node">
<title>Node1</title>
<g id="a_Node000001"><a xlink:title=" ">
<polygon fill="#999999" stroke="transparent" points="212,-85 0,-85 0,0 212,0 212,-85"/>
<text text-anchor="start" x="5" y="-70.9" font-family="Arial" font-size="12.00">App\Http\Controllers</text>
<text text-anchor="start" x="5" y="-57.9" font-family="Arial" font-size="12.00">\Auth\ConfirmablePasswordController</text>
<text text-anchor="start" x="104" y="-40.9" font-family="Arial" font-size="12.00"> </text>
<text text-anchor="start" x="43" y="-23.9" font-family="Arial" font-size="12.00">+</text>
<text text-anchor="start" x="93" y="-23.9" font-family="Arial" font-size="12.00">show()</text>
<text text-anchor="start" x="43" y="-6.9" font-family="Arial" font-size="12.00">+</text>
<text text-anchor="start" x="93" y="-6.9" font-family="Arial" font-size="12.00">store()</text>
<polygon fill="#666666" stroke="#666666" points="0,-52.5 0,-52.5 212,-52.5 212,-52.5 0,-52.5"/>
<polygon fill="#666666" stroke="#666666" points="0,-35.5 0,-35.5 212,-35.5 212,-35.5 0,-35.5"/>
<polygon fill="none" stroke="#666666" points="0,0 0,-85 212,-85 212,0 0,0"/>
</a>
</g>
</g>
<!-- Node2 -->
<g id="Node000002" class="node">
<title>Node2</title>
<g id="a_Node000002"><a xlink:href="class_app_1_1_http_1_1_controllers_1_1_controller.html" target="_top" xlink:title=" ">
<polygon fill="white" stroke="transparent" points="165.5,-189 46.5,-189 46.5,-121 165.5,-121 165.5,-189"/>
<text text-anchor="start" x="52" y="-175.4" font-family="Arial" font-size="12.00">App\Http\Controllers</text>
<text text-anchor="start" x="78.5" y="-162.4" font-family="Arial" font-size="12.00">\Controller</text>
<text text-anchor="start" x="104.5" y="-145.4" font-family="Arial" font-size="12.00"> </text>
<text text-anchor="start" x="104.5" y="-128.4" font-family="Arial" font-size="12.00"> </text>
<polygon fill="#666666" stroke="#666666" points="47,-157 47,-157 166,-157 166,-157 47,-157"/>
<polygon fill="#666666" stroke="#666666" points="47,-140 47,-140 166,-140 166,-140 47,-140"/>
<polygon fill="none" stroke="#666666" points="46.5,-121 46.5,-189 165.5,-189 165.5,-121 46.5,-121"/>
</a>
</g>
</g>
<!-- Node2&#45;&gt;Node1 -->
<g id="edge1_Node000001_Node000002" class="edge">
<title>Node2&#45;&gt;Node1</title>
<g id="a_edge1_Node000001_Node000002"><a xlink:title=" ">
<path fill="none" stroke="#63b8ff" d="M106,-110.84C106,-102.43 106,-93.62 106,-85.26"/>
<polygon fill="none" stroke="#63b8ff" points="102.5,-110.85 106,-120.85 109.5,-110.85 102.5,-110.85"/>
</a>
</g>
</g>
</g>
</svg>
</svg>

<style type='text/css'>
<![CDATA[
[data-mouse-over-selected='false'] { opacity: 0.7; }
[data-mouse-over-selected='true']  { opacity: 1.0; }
]]>
</style>
<script type="application/ecmascript"><![CDATA[
document.addEventListener('DOMContentLoaded', (event) => {
  highlightEdges();
  highlightAdjacentNodes();
});
]]></script>
</svg>
