<?xml version="1.0" encoding="UTF-8" standalone="no"?>
<!DOCTYPE svg PUBLIC "-//W3C//DTD SVG 1.1//EN"
 "http://www.w3.org/Graphics/SVG/1.1/DTD/svg11.dtd">
<!-- Generated by graphviz version 2.43.0 (0)
 -->
<!-- Title: App\Http\Requests\Auth\LoginRequest\authenticate Pages: 1 -->
<svg width="586pt" height="75pt"
 viewBox="0.00 0.00 586.00 74.50" xmlns="http://www.w3.org/2000/svg" xmlns:xlink="http://www.w3.org/1999/xlink">
<g id="graph0" class="graph" transform="scale(1 1) rotate(0) translate(4 70.5)">
<title>App\Http\Requests\Auth\LoginRequest\authenticate</title>
<!-- Node1 -->
<g id="Node000001" class="node">
<title>Node1</title>
<g id="a_Node000001"><a xlink:title="Attempt to authenticate the request&#39;s credentials.">
<polygon fill="#999999" stroke="#666666" points="163,-34 0,-34 0,0 163,0 163,-34"/>
<text text-anchor="start" x="8" y="-20.4" font-family="Arial" font-size="12.00">App\Http\Requests\Auth</text>
<text text-anchor="middle" x="81.5" y="-7.4" font-family="Arial" font-size="12.00">\LoginRequest\authenticate</text>
</a>
</g>
</g>
<!-- Node2 -->
<g id="Node000002" class="node">
<title>Node2</title>
<g id="a_Node000002"><a xlink:href="class_app_1_1_http_1_1_requests_1_1_auth_1_1_login_request.html#a673cadc2bf050f1c139636c261bc996e" target="_top" xlink:title="Ensure the login request is not rate limited.">
<polygon fill="white" stroke="#666666" points="387,-66.5 199,-66.5 199,-19.5 387,-19.5 387,-66.5"/>
<text text-anchor="start" x="207" y="-52.9" font-family="Arial" font-size="12.00">App\Http\Requests\Auth</text>
<text text-anchor="start" x="207" y="-39.9" font-family="Arial" font-size="12.00">\LoginRequest\ensureIsNotRate</text>
<text text-anchor="middle" x="293" y="-26.9" font-family="Arial" font-size="12.00">Limited</text>
</a>
</g>
</g>
<!-- Node1&#45;&gt;Node2 -->
<g id="edge1_Node000001_Node000002" class="edge">
<title>Node1&#45;&gt;Node2</title>
<g id="a_edge1_Node000001_Node000002"><a xlink:title=" ">
<path fill="none" stroke="#63b8ff" d="M163.2,-27.02C171.57,-28.05 180.15,-29.12 188.72,-30.18"/>
<polygon fill="#63b8ff" stroke="#63b8ff" points="188.41,-33.67 198.76,-31.43 189.27,-26.72 188.41,-33.67"/>
</a>
</g>
</g>
<!-- Node3 -->
<g id="Node000003" class="node">
<title>Node3</title>
<g id="a_Node000003"><a xlink:href="class_app_1_1_http_1_1_requests_1_1_auth_1_1_login_request.html#aea2a6943931bedd74179057a5d67bb5c" target="_top" xlink:title="Get the rate limiting throttle key for the request.">
<polygon fill="white" stroke="#666666" points="578,-34 423,-34 423,0 578,0 578,-34"/>
<text text-anchor="start" x="431" y="-20.4" font-family="Arial" font-size="12.00">App\Http\Requests\Auth</text>
<text text-anchor="middle" x="500.5" y="-7.4" font-family="Arial" font-size="12.00">\LoginRequest\throttleKey</text>
</a>
</g>
</g>
<!-- Node1&#45;&gt;Node3 -->
<g id="edge3_Node000001_Node000003" class="edge">
<title>Node1&#45;&gt;Node3</title>
<g id="a_edge3_Node000001_Node000003"><a xlink:title=" ">
<path fill="none" stroke="#63b8ff" d="M163.01,-12.31C175.07,-11.77 187.36,-11.3 199,-11 282.53,-8.85 303.47,-8.77 387,-11 395.36,-11.22 404.07,-11.54 412.77,-11.91"/>
<polygon fill="#63b8ff" stroke="#63b8ff" points="412.82,-15.42 422.97,-12.37 413.14,-8.42 412.82,-15.42"/>
</a>
</g>
</g>
<!-- Node2&#45;&gt;Node3 -->
<g id="edge2_Node000002_Node000003" class="edge">
<title>Node2&#45;&gt;Node3</title>
<g id="a_edge2_Node000002_Node000003"><a xlink:title=" ">
<path fill="none" stroke="#63b8ff" d="M387.13,-31.22C395.75,-30.13 404.47,-29.02 413.03,-27.94"/>
<polygon fill="#63b8ff" stroke="#63b8ff" points="413.52,-31.41 423,-26.68 412.64,-24.46 413.52,-31.41"/>
</a>
</g>
</g>
</g>
</svg>
