<?xml version="1.0" encoding="UTF-8" standalone="no"?>
<!DOCTYPE svg PUBLIC "-//W3C//DTD SVG 1.1//EN"
 "http://www.w3.org/Graphics/SVG/1.1/DTD/svg11.dtd">
<!-- Generated by graphviz version 2.43.0 (0)
 -->
<!-- Title: App\Http\Requests\Auth\LoginRequest\throttleKey Pages: 1 -->
<svg width="868pt" height="75pt"
 viewBox="0.00 0.00 868.00 74.50" xmlns="http://www.w3.org/2000/svg" xmlns:xlink="http://www.w3.org/1999/xlink">
<g id="graph0" class="graph" transform="scale(1 1) rotate(0) translate(4 70.5)">
<title>App\Http\Requests\Auth\LoginRequest\throttleKey</title>
<!-- Node1 -->
<g id="Node000001" class="node">
<title>Node1</title>
<g id="a_Node000001"><a xlink:title="Get the rate limiting throttle key for the request.">
<polygon fill="#999999" stroke="#666666" points="860,-66.5 705,-66.5 705,-32.5 860,-32.5 860,-66.5"/>
<text text-anchor="start" x="713" y="-52.9" font-family="Arial" font-size="12.00">App\Http\Requests\Auth</text>
<text text-anchor="middle" x="782.5" y="-39.9" font-family="Arial" font-size="12.00">\LoginRequest\throttleKey</text>
</a>
</g>
</g>
<!-- Node2 -->
<g id="Node000002" class="node">
<title>Node2</title>
<g id="a_Node000002"><a xlink:href="class_app_1_1_http_1_1_requests_1_1_auth_1_1_login_request.html#a7be4cc5f6c415464b716807cc1b862ce" target="_top" xlink:title="Attempt to authenticate the request&#39;s credentials.">
<polygon fill="white" stroke="#666666" points="445,-66.5 282,-66.5 282,-32.5 445,-32.5 445,-66.5"/>
<text text-anchor="start" x="290" y="-52.9" font-family="Arial" font-size="12.00">App\Http\Requests\Auth</text>
<text text-anchor="middle" x="363.5" y="-39.9" font-family="Arial" font-size="12.00">\LoginRequest\authenticate</text>
</a>
</g>
</g>
<!-- Node1&#45;&gt;Node2 -->
<g id="edge1_Node000001_Node000002" class="edge">
<title>Node1&#45;&gt;Node2</title>
<g id="a_edge1_Node000001_Node000002"><a xlink:title=" ">
<path fill="none" stroke="#63b8ff" d="M694.78,-55.44C686.07,-55.87 677.36,-56.24 669,-56.5 585.48,-59.1 564.52,-59.01 481,-56.5 469.35,-56.15 457.06,-55.6 445,-54.97"/>
<polygon fill="#63b8ff" stroke="#63b8ff" points="695.17,-58.92 704.98,-54.9 694.81,-51.93 695.17,-58.92"/>
</a>
</g>
</g>
<!-- Node4 -->
<g id="Node000004" class="node">
<title>Node4</title>
<g id="a_Node000004"><a xlink:href="class_app_1_1_http_1_1_requests_1_1_auth_1_1_login_request.html#a673cadc2bf050f1c139636c261bc996e" target="_top" xlink:title="Ensure the login request is not rate limited.">
<polygon fill="white" stroke="#666666" points="669,-47 481,-47 481,0 669,0 669,-47"/>
<text text-anchor="start" x="489" y="-33.4" font-family="Arial" font-size="12.00">App\Http\Requests\Auth</text>
<text text-anchor="start" x="489" y="-20.4" font-family="Arial" font-size="12.00">\LoginRequest\ensureIsNotRate</text>
<text text-anchor="middle" x="575" y="-7.4" font-family="Arial" font-size="12.00">Limited</text>
</a>
</g>
</g>
<!-- Node1&#45;&gt;Node4 -->
<g id="edge3_Node000001_Node000004" class="edge">
<title>Node1&#45;&gt;Node4</title>
<g id="a_edge3_Node000001_Node000004"><a xlink:title=" ">
<path fill="none" stroke="#63b8ff" d="M694.78,-38.53C686.35,-37.46 677.76,-36.38 669.27,-35.3"/>
<polygon fill="#63b8ff" stroke="#63b8ff" points="694.62,-42.04 704.98,-39.82 695.5,-35.09 694.62,-42.04"/>
</a>
</g>
</g>
<!-- Node3 -->
<g id="Node000003" class="node">
<title>Node3</title>
<g id="a_Node000003"><a xlink:href="class_app_1_1_http_1_1_controllers_1_1_auth_1_1_authenticated_session_controller.html#a0c8e698ebd6dd5f91721d442f53dbe66" target="_top" xlink:title="Handle an incoming authentication request.">
<polygon fill="white" stroke="#666666" points="246,-66.5 0,-66.5 0,-32.5 246,-32.5 246,-66.5"/>
<text text-anchor="start" x="8" y="-52.9" font-family="Arial" font-size="12.00">App\Http\Controllers</text>
<text text-anchor="middle" x="123" y="-39.9" font-family="Arial" font-size="12.00">\Auth\AuthenticatedSessionController\store</text>
</a>
</g>
</g>
<!-- Node2&#45;&gt;Node3 -->
<g id="edge2_Node000002_Node000003" class="edge">
<title>Node2&#45;&gt;Node3</title>
<g id="a_edge2_Node000002_Node000003"><a xlink:title=" ">
<path fill="none" stroke="#63b8ff" d="M271.67,-49.5C263.32,-49.5 254.76,-49.5 246.19,-49.5"/>
<polygon fill="#63b8ff" stroke="#63b8ff" points="271.75,-53 281.75,-49.5 271.75,-46 271.75,-53"/>
</a>
</g>
</g>
<!-- Node4&#45;&gt;Node2 -->
<g id="edge4_Node000004_Node000002" class="edge">
<title>Node4&#45;&gt;Node2</title>
<g id="a_edge4_Node000004_Node000002"><a xlink:title=" ">
<path fill="none" stroke="#63b8ff" d="M470.81,-36.31C462.2,-37.38 453.58,-38.45 445.17,-39.49"/>
<polygon fill="#63b8ff" stroke="#63b8ff" points="471.4,-39.76 480.89,-35.06 470.54,-32.81 471.4,-39.76"/>
</a>
</g>
</g>
</g>
</svg>
