<?xml version="1.0" encoding="UTF-8" standalone="no"?>
<!DOCTYPE svg PUBLIC "-//W3C//DTD SVG 1.1//EN"
 "http://www.w3.org/Graphics/SVG/1.1/DTD/svg11.dtd">
<!-- Generated by graphviz version 2.43.0 (0)
 -->
<!-- Title: App\Console\Commands\CleanOldShortUrls Pages: 1 -->
<svg width="153pt" height="184pt"
 viewBox="0.00 0.00 153.00 184.00" xmlns="http://www.w3.org/2000/svg" xmlns:xlink="http://www.w3.org/1999/xlink">
<g id="graph0" class="graph" transform="scale(1 1) rotate(0) translate(4 180)">
<title>App\Console\Commands\CleanOldShortUrls</title>
<!-- Node1 -->
<g id="Node000001" class="node">
<title>Node1</title>
<g id="a_Node000001"><a xlink:title="Clean up expired short URLs.">
<polygon fill="#999999" stroke="transparent" points="145,-85 0,-85 0,0 145,0 145,-85"/>
<text text-anchor="start" x="5.5" y="-70.9" font-family="Arial" font-size="12.00">App\Console\Commands</text>
<text text-anchor="start" x="20.5" y="-57.9" font-family="Arial" font-size="12.00">\CleanOldShortUrls</text>
<text text-anchor="start" x="19.5" y="-40.9" font-family="Arial" font-size="12.00">#</text>
<text text-anchor="start" x="45.5" y="-40.9" font-family="Arial" font-size="12.00">$signature</text>
<text text-anchor="start" x="19.5" y="-23.9" font-family="Arial" font-size="12.00">#</text>
<text text-anchor="start" x="45.5" y="-23.9" font-family="Arial" font-size="12.00">$description</text>
<text text-anchor="start" x="19.5" y="-6.9" font-family="Arial" font-size="12.00">+</text>
<text text-anchor="start" x="45.5" y="-6.9" font-family="Arial" font-size="12.00">handle()</text>
<polygon fill="#666666" stroke="#666666" points="0.5,-52.5 0.5,-52.5 145.5,-52.5 145.5,-52.5 0.5,-52.5"/>
<polygon fill="#666666" stroke="#666666" points="0.5,-18.5 0.5,-18.5 43.5,-18.5 43.5,-18.5 0.5,-18.5"/>
<polygon fill="#666666" stroke="#666666" points="43.5,-18.5 43.5,-18.5 145.5,-18.5 145.5,-18.5 43.5,-18.5"/>
<polygon fill="none" stroke="#666666" points="0,0 0,-85 145,-85 145,0 0,0"/>
</a>
</g>
</g>
<!-- Node2 -->
<g id="Node000002" class="node">
<title>Node2</title>
<g id="a_Node000002"><a xlink:title=" ">
<polygon fill="white" stroke="transparent" points="105.5,-176 39.5,-176 39.5,-121 105.5,-121 105.5,-176"/>
<text text-anchor="start" x="44.5" y="-161.9" font-family="Arial" font-size="12.00">Command</text>
<text text-anchor="start" x="70.5" y="-144.9" font-family="Arial" font-size="12.00"> </text>
<text text-anchor="start" x="70.5" y="-127.9" font-family="Arial" font-size="12.00"> </text>
<polygon fill="#666666" stroke="#666666" points="39.5,-156.5 39.5,-156.5 105.5,-156.5 105.5,-156.5 39.5,-156.5"/>
<polygon fill="#666666" stroke="#666666" points="39.5,-139.5 39.5,-139.5 105.5,-139.5 105.5,-139.5 39.5,-139.5"/>
<polygon fill="none" stroke="#666666" points="39.5,-121 39.5,-176 105.5,-176 105.5,-121 39.5,-121"/>
</a>
</g>
</g>
<!-- Node2&#45;&gt;Node1 -->
<g id="edge1_Node000001_Node000002" class="edge">
<title>Node2&#45;&gt;Node1</title>
<g id="a_edge1_Node000001_Node000002"><a xlink:title=" ">
<path fill="none" stroke="#63b8ff" d="M72.5,-110.89C72.5,-102.63 72.5,-93.79 72.5,-85.33"/>
<polygon fill="none" stroke="#63b8ff" points="69,-110.99 72.5,-120.99 76,-110.99 69,-110.99"/>
</a>
</g>
</g>
</g>
</svg>
