<?xml version="1.0" encoding="UTF-8" standalone="no"?>
<!DOCTYPE svg PUBLIC "-//W3C//DTD SVG 1.1//EN"
 "http://www.w3.org/Graphics/SVG/1.1/DTD/svg11.dtd">
<!-- Generated by graphviz version 2.43.0 (0)
 -->
<!-- Title: App\Http\Controllers\ShortUrlController Pages: 1 -->
<svg width="127pt" height="316pt"
 viewBox="0.00 0.00 127.00 316.00" xmlns="http://www.w3.org/2000/svg" xmlns:xlink="http://www.w3.org/1999/xlink">
<g id="graph0" class="graph" transform="scale(1 1) rotate(0) translate(4 312)">
<title>App\Http\Controllers\ShortUrlController</title>
<!-- Node1 -->
<g id="Node000001" class="node">
<title>Node1</title>
<g id="a_Node000001"><a xlink:title="Class ShortUrlController Handles the logic for the shortened URLs.">
<polygon fill="#999999" stroke="transparent" points="119,-204 0,-204 0,0 119,0 119,-204"/>
<text text-anchor="start" x="5.5" y="-190.4" font-family="Arial" font-size="12.00">App\Http\Controllers</text>
<text text-anchor="start" x="10" y="-177.4" font-family="Arial" font-size="12.00">\ShortUrlController</text>
<text text-anchor="start" x="6" y="-160.4" font-family="Arial" font-size="12.00">#</text>
<text text-anchor="start" x="18.5" y="-160.4" font-family="Arial" font-size="12.00">$user</text>
<text text-anchor="start" x="6" y="-143.4" font-family="Arial" font-size="12.00">+</text>
<text text-anchor="start" x="18.5" y="-143.4" font-family="Arial" font-size="12.00">__construct()</text>
<text text-anchor="start" x="6" y="-126.4" font-family="Arial" font-size="12.00">+</text>
<text text-anchor="start" x="18.5" y="-126.4" font-family="Arial" font-size="12.00">index()</text>
<text text-anchor="start" x="6" y="-109.4" font-family="Arial" font-size="12.00">+</text>
<text text-anchor="start" x="18.5" y="-109.4" font-family="Arial" font-size="12.00">create()</text>
<text text-anchor="start" x="6" y="-92.4" font-family="Arial" font-size="12.00">+</text>
<text text-anchor="start" x="18.5" y="-92.4" font-family="Arial" font-size="12.00">store()</text>
<text text-anchor="start" x="6" y="-75.4" font-family="Arial" font-size="12.00">+</text>
<text text-anchor="start" x="18.5" y="-75.4" font-family="Arial" font-size="12.00">random()</text>
<text text-anchor="start" x="6" y="-58.4" font-family="Arial" font-size="12.00">+</text>
<text text-anchor="start" x="18.5" y="-58.4" font-family="Arial" font-size="12.00">edit()</text>
<text text-anchor="start" x="6" y="-41.4" font-family="Arial" font-size="12.00">+</text>
<text text-anchor="start" x="18.5" y="-41.4" font-family="Arial" font-size="12.00">update()</text>
<text text-anchor="start" x="6" y="-24.4" font-family="Arial" font-size="12.00">+</text>
<text text-anchor="start" x="18.5" y="-24.4" font-family="Arial" font-size="12.00">destroy()</text>
<text text-anchor="start" x="6" y="-7.4" font-family="Arial" font-size="12.00">+</text>
<text text-anchor="start" x="18.5" y="-7.4" font-family="Arial" font-size="12.00">incrementClicks()</text>
<polygon fill="#666666" stroke="#666666" points="0.5,-172 0.5,-172 119.5,-172 119.5,-172 0.5,-172"/>
<polygon fill="#666666" stroke="#666666" points="0.5,-155 0.5,-155 16.5,-155 16.5,-155 0.5,-155"/>
<polygon fill="#666666" stroke="#666666" points="16.5,-155 16.5,-155 119.5,-155 119.5,-155 16.5,-155"/>
<polygon fill="none" stroke="#666666" points="0,0 0,-204 119,-204 119,0 0,0"/>
</a>
</g>
</g>
<!-- Node2 -->
<g id="Node000002" class="node">
<title>Node2</title>
<g id="a_Node000002"><a xlink:href="class_app_1_1_http_1_1_controllers_1_1_controller.html" target="_top" xlink:title=" ">
<polygon fill="white" stroke="transparent" points="119,-308 0,-308 0,-240 119,-240 119,-308"/>
<text text-anchor="start" x="5.5" y="-294.4" font-family="Arial" font-size="12.00">App\Http\Controllers</text>
<text text-anchor="start" x="32" y="-281.4" font-family="Arial" font-size="12.00">\Controller</text>
<text text-anchor="start" x="58" y="-264.4" font-family="Arial" font-size="12.00"> </text>
<text text-anchor="start" x="58" y="-247.4" font-family="Arial" font-size="12.00"> </text>
<polygon fill="#666666" stroke="#666666" points="0.5,-276 0.5,-276 119.5,-276 119.5,-276 0.5,-276"/>
<polygon fill="#666666" stroke="#666666" points="0.5,-259 0.5,-259 119.5,-259 119.5,-259 0.5,-259"/>
<polygon fill="none" stroke="#666666" points="0,-240 0,-308 119,-308 119,-240 0,-240"/>
</a>
</g>
</g>
<!-- Node2&#45;&gt;Node1 -->
<g id="edge1_Node000001_Node000002" class="edge">
<title>Node2&#45;&gt;Node1</title>
<g id="a_edge1_Node000001_Node000002"><a xlink:title=" ">
<path fill="none" stroke="#63b8ff" d="M59.5,-229.75C59.5,-221.78 59.5,-213.15 59.5,-204.28"/>
<polygon fill="none" stroke="#63b8ff" points="56,-229.82 59.5,-239.82 63,-229.82 56,-229.82"/>
</a>
</g>
</g>
</g>
</svg>
