<?xml version="1.0" encoding="UTF-8" standalone="no"?>
<!DOCTYPE svg PUBLIC "-//W3C//DTD SVG 1.1//EN"
 "http://www.w3.org/Graphics/SVG/1.1/DTD/svg11.dtd">
<!-- Generated by graphviz version 2.43.0 (0)
 -->
<!-- Title: App\Actions\Fortify\UpdateUserPassword Pages: 1 -->
<svg width="148pt" height="167pt"
 viewBox="0.00 0.00 148.00 167.00" xmlns="http://www.w3.org/2000/svg" xmlns:xlink="http://www.w3.org/1999/xlink">

<svg id="main" version="1.1" xmlns="http://www.w3.org/2000/svg" xmlns:xlink="http://www.w3.org/1999/xlink" xml:space="preserve" onload="init(evt)">
<style type="text/css"><![CDATA[
.node, .edge {opacity: 0.7;}
.node.selected, .edge.selected {opacity: 1;}
.edge:hover path { stroke: red; }
.edge:hover polygon { stroke: red; fill: red; }
]]></style>
<script type="application/ecmascript" xlink:href="svg.min.js"/>
<svg id="graph" class="graph">
<g id="graph0" class="graph" transform="scale(1 1) rotate(0) translate(4 163)">
<title>App\Actions\Fortify\UpdateUserPassword</title>
<!-- Node1 -->
<g id="Node000001" class="node">
<title>Node1</title>
<g id="a_Node000001"><a xlink:title=" ">
<polygon fill="#999999" stroke="transparent" points="135.5,-68 4.5,-68 4.5,0 135.5,0 135.5,-68"/>
<text text-anchor="start" x="10" y="-54.4" font-family="Arial" font-size="12.00">App\Actions\Fortify</text>
<text text-anchor="start" x="10" y="-41.4" font-family="Arial" font-size="12.00">\UpdateUserPassword</text>
<text text-anchor="start" x="68.5" y="-24.4" font-family="Arial" font-size="12.00"> </text>
<text text-anchor="start" x="25.5" y="-7.4" font-family="Arial" font-size="12.00">+</text>
<text text-anchor="start" x="53" y="-7.4" font-family="Arial" font-size="12.00">update()</text>
<polygon fill="#666666" stroke="#666666" points="5,-36 5,-36 136,-36 136,-36 5,-36"/>
<polygon fill="#666666" stroke="#666666" points="5,-19 5,-19 136,-19 136,-19 5,-19"/>
<polygon fill="none" stroke="#666666" points="4.5,0 4.5,-68 135.5,-68 135.5,0 4.5,0"/>
</a>
</g>
</g>
<!-- Node2 -->
<g id="Node000002" class="node">
<title>Node2</title>
<g id="a_Node000002"><a xlink:title=" ">
<polygon fill="white" stroke="transparent" points="140,-159 0,-159 0,-104 140,-104 140,-159"/>
<text text-anchor="start" x="5" y="-144.9" font-family="Arial" font-size="12.00">UpdatesUserPasswords</text>
<text text-anchor="start" x="68" y="-127.9" font-family="Arial" font-size="12.00"> </text>
<text text-anchor="start" x="68" y="-110.9" font-family="Arial" font-size="12.00"> </text>
<polygon fill="#666666" stroke="#666666" points="0,-139.5 0,-139.5 140,-139.5 140,-139.5 0,-139.5"/>
<polygon fill="#666666" stroke="#666666" points="0,-122.5 0,-122.5 140,-122.5 140,-122.5 0,-122.5"/>
<polygon fill="none" stroke="#666666" points="0,-104 0,-159 140,-159 140,-104 0,-104"/>
</a>
</g>
</g>
<!-- Node2&#45;&gt;Node1 -->
<g id="edge1_Node000001_Node000002" class="edge">
<title>Node2&#45;&gt;Node1</title>
<g id="a_edge1_Node000001_Node000002"><a xlink:title=" ">
<path fill="none" stroke="#63b8ff" d="M70,-93.65C70,-85.3 70,-76.47 70,-68.28"/>
<polygon fill="none" stroke="#63b8ff" points="66.5,-93.9 70,-103.9 73.5,-93.9 66.5,-93.9"/>
</a>
</g>
</g>
</g>
</svg>
</svg>

<style type='text/css'>
<![CDATA[
[data-mouse-over-selected='false'] { opacity: 0.7; }
[data-mouse-over-selected='true']  { opacity: 1.0; }
]]>
</style>
<script type="application/ecmascript"><![CDATA[
document.addEventListener('DOMContentLoaded', (event) => {
  highlightEdges();
  highlightAdjacentNodes();
});
]]></script>
</svg>
