<?xml version="1.0" encoding="UTF-8" standalone="no"?>
<!DOCTYPE svg PUBLIC "-//W3C//DTD SVG 1.1//EN"
 "http://www.w3.org/Graphics/SVG/1.1/DTD/svg11.dtd">
<!-- Generated by graphviz version 2.43.0 (0)
 -->
<!-- Title: App\Http\Controllers\Auth\EmailVerificationNotificationController Pages: 1 -->
<svg width="199pt" height="193pt"
 viewBox="0.00 0.00 199.00 193.00" xmlns="http://www.w3.org/2000/svg" xmlns:xlink="http://www.w3.org/1999/xlink">
<g id="graph0" class="graph" transform="scale(1 1) rotate(0) translate(4 189)">
<title>App\Http\Controllers\Auth\EmailVerificationNotificationController</title>
<!-- Node1 -->
<g id="Node000001" class="node">
<title>Node1</title>
<g id="a_Node000001"><a xlink:title=" ">
<polygon fill="#999999" stroke="transparent" points="191,-81 0,-81 0,0 191,0 191,-81"/>
<text text-anchor="start" x="5.5" y="-66.9" font-family="Arial" font-size="12.00">App\Http\Controllers</text>
<text text-anchor="start" x="5.5" y="-53.9" font-family="Arial" font-size="12.00">\Auth\EmailVerificationNotification</text>
<text text-anchor="start" x="69.5" y="-40.9" font-family="Arial" font-size="12.00">Controller</text>
<text text-anchor="start" x="94" y="-23.9" font-family="Arial" font-size="12.00"> </text>
<text text-anchor="start" x="39" y="-6.9" font-family="Arial" font-size="12.00">+</text>
<text text-anchor="start" x="84.5" y="-6.9" font-family="Arial" font-size="12.00">store()</text>
<polygon fill="#666666" stroke="#666666" points="0.5,-35.5 0.5,-35.5 191.5,-35.5 191.5,-35.5 0.5,-35.5"/>
<polygon fill="#666666" stroke="#666666" points="0.5,-18.5 0.5,-18.5 191.5,-18.5 191.5,-18.5 0.5,-18.5"/>
<polygon fill="none" stroke="#666666" points="0,0 0,-81 191,-81 191,0 0,0"/>
</a>
</g>
</g>
<!-- Node2 -->
<g id="Node000002" class="node">
<title>Node2</title>
<g id="a_Node000002"><a xlink:href="class_app_1_1_http_1_1_controllers_1_1_controller.html" target="_top" xlink:title=" ">
<polygon fill="white" stroke="transparent" points="155,-185 36,-185 36,-117 155,-117 155,-185"/>
<text text-anchor="start" x="41.5" y="-171.4" font-family="Arial" font-size="12.00">App\Http\Controllers</text>
<text text-anchor="start" x="68" y="-158.4" font-family="Arial" font-size="12.00">\Controller</text>
<text text-anchor="start" x="94" y="-141.4" font-family="Arial" font-size="12.00"> </text>
<text text-anchor="start" x="94" y="-124.4" font-family="Arial" font-size="12.00"> </text>
<polygon fill="#666666" stroke="#666666" points="36.5,-153 36.5,-153 155.5,-153 155.5,-153 36.5,-153"/>
<polygon fill="#666666" stroke="#666666" points="36.5,-136 36.5,-136 155.5,-136 155.5,-136 36.5,-136"/>
<polygon fill="none" stroke="#666666" points="36,-117 36,-185 155,-185 155,-117 36,-117"/>
</a>
</g>
</g>
<!-- Node2&#45;&gt;Node1 -->
<g id="edge1_Node000001_Node000002" class="edge">
<title>Node2&#45;&gt;Node1</title>
<g id="a_edge1_Node000001_Node000002"><a xlink:title=" ">
<path fill="none" stroke="#63b8ff" d="M95.5,-106.83C95.5,-98.41 95.5,-89.62 95.5,-81.31"/>
<polygon fill="none" stroke="#63b8ff" points="92,-106.86 95.5,-116.86 99,-106.86 92,-106.86"/>
</a>
</g>
</g>
</g>
</svg>
