<?xml version="1.0" encoding="UTF-8" standalone="no"?>
<!DOCTYPE svg PUBLIC "-//W3C//DTD SVG 1.1//EN"
 "http://www.w3.org/Graphics/SVG/1.1/DTD/svg11.dtd">
<!-- Generated by graphviz version 2.43.0 (0)
 -->
<!-- Title: App\Http\Controllers\Auth\PasswordResetLinkController Pages: 1 -->
<svg width="209pt" height="197pt"
 viewBox="0.00 0.00 209.00 197.00" xmlns="http://www.w3.org/2000/svg" xmlns:xlink="http://www.w3.org/1999/xlink">
<g id="graph0" class="graph" transform="scale(1 1) rotate(0) translate(4 193)">
<title>App\Http\Controllers\Auth\PasswordResetLinkController</title>
<!-- Node1 -->
<g id="Node000001" class="node">
<title>Node1</title>
<g id="a_Node000001"><a xlink:title=" ">
<polygon fill="#999999" stroke="transparent" points="201,-85 0,-85 0,0 201,0 201,-85"/>
<text text-anchor="start" x="5.5" y="-70.9" font-family="Arial" font-size="12.00">App\Http\Controllers</text>
<text text-anchor="start" x="5.5" y="-57.9" font-family="Arial" font-size="12.00">\Auth\PasswordResetLinkController</text>
<text text-anchor="start" x="99" y="-40.9" font-family="Arial" font-size="12.00"> </text>
<text text-anchor="start" x="39.5" y="-23.9" font-family="Arial" font-size="12.00">+</text>
<text text-anchor="start" x="85.5" y="-23.9" font-family="Arial" font-size="12.00">create()</text>
<text text-anchor="start" x="39.5" y="-6.9" font-family="Arial" font-size="12.00">+</text>
<text text-anchor="start" x="85.5" y="-6.9" font-family="Arial" font-size="12.00">store()</text>
<polygon fill="#666666" stroke="#666666" points="0.5,-52.5 0.5,-52.5 201.5,-52.5 201.5,-52.5 0.5,-52.5"/>
<polygon fill="#666666" stroke="#666666" points="0.5,-35.5 0.5,-35.5 201.5,-35.5 201.5,-35.5 0.5,-35.5"/>
<polygon fill="none" stroke="#666666" points="0,0 0,-85 201,-85 201,0 0,0"/>
</a>
</g>
</g>
<!-- Node2 -->
<g id="Node000002" class="node">
<title>Node2</title>
<g id="a_Node000002"><a xlink:href="class_app_1_1_http_1_1_controllers_1_1_controller.html" target="_top" xlink:title=" ">
<polygon fill="white" stroke="transparent" points="160,-189 41,-189 41,-121 160,-121 160,-189"/>
<text text-anchor="start" x="46.5" y="-175.4" font-family="Arial" font-size="12.00">App\Http\Controllers</text>
<text text-anchor="start" x="73" y="-162.4" font-family="Arial" font-size="12.00">\Controller</text>
<text text-anchor="start" x="99" y="-145.4" font-family="Arial" font-size="12.00"> </text>
<text text-anchor="start" x="99" y="-128.4" font-family="Arial" font-size="12.00"> </text>
<polygon fill="#666666" stroke="#666666" points="41.5,-157 41.5,-157 160.5,-157 160.5,-157 41.5,-157"/>
<polygon fill="#666666" stroke="#666666" points="41.5,-140 41.5,-140 160.5,-140 160.5,-140 41.5,-140"/>
<polygon fill="none" stroke="#666666" points="41,-121 41,-189 160,-189 160,-121 41,-121"/>
</a>
</g>
</g>
<!-- Node2&#45;&gt;Node1 -->
<g id="edge1_Node000001_Node000002" class="edge">
<title>Node2&#45;&gt;Node1</title>
<g id="a_edge1_Node000001_Node000002"><a xlink:title=" ">
<path fill="none" stroke="#63b8ff" d="M100.5,-110.84C100.5,-102.43 100.5,-93.62 100.5,-85.26"/>
<polygon fill="none" stroke="#63b8ff" points="97,-110.85 100.5,-120.85 104,-110.85 97,-110.85"/>
</a>
</g>
</g>
</g>
</svg>
