<?xml version="1.0" encoding="UTF-8" standalone="no"?>
<!DOCTYPE svg PUBLIC "-//W3C//DTD SVG 1.1//EN"
 "http://www.w3.org/Graphics/SVG/1.1/DTD/svg11.dtd">
<!-- Generated by graphviz version 2.43.0 (0)
 -->
<!-- Title: App\Actions\Fortify\CreateNewUser Pages: 1 -->
<svg width="119pt" height="167pt"
 viewBox="0.00 0.00 119.00 167.00" xmlns="http://www.w3.org/2000/svg" xmlns:xlink="http://www.w3.org/1999/xlink">

<svg id="main" version="1.1" xmlns="http://www.w3.org/2000/svg" xmlns:xlink="http://www.w3.org/1999/xlink" xml:space="preserve" onload="init(evt)">
<style type="text/css"><![CDATA[
.node, .edge {opacity: 0.7;}
.node.selected, .edge.selected {opacity: 1;}
.edge:hover path { stroke: red; }
.edge:hover polygon { stroke: red; fill: red; }
]]></style>
<script type="application/ecmascript" xlink:href="svg.min.js"/>
<svg id="graph" class="graph">
<g id="graph0" class="graph" transform="scale(1 1) rotate(0) translate(4 163)">
<title>App\Actions\Fortify\CreateNewUser</title>
<!-- Node1 -->
<g id="Node000001" class="node">
<title>Node1</title>
<g id="a_Node000001"><a xlink:title=" ">
<polygon fill="#999999" stroke="transparent" points="111,-68 0,-68 0,0 111,0 111,-68"/>
<text text-anchor="start" x="5.5" y="-54.4" font-family="Arial" font-size="12.00">App\Actions\Fortify</text>
<text text-anchor="start" x="11" y="-41.4" font-family="Arial" font-size="12.00">\CreateNewUser</text>
<text text-anchor="start" x="54" y="-24.4" font-family="Arial" font-size="12.00"> </text>
<text text-anchor="start" x="17" y="-7.4" font-family="Arial" font-size="12.00">+</text>
<text text-anchor="start" x="40.5" y="-7.4" font-family="Arial" font-size="12.00">create()</text>
<polygon fill="#666666" stroke="#666666" points="0.5,-36 0.5,-36 111.5,-36 111.5,-36 0.5,-36"/>
<polygon fill="#666666" stroke="#666666" points="0.5,-19 0.5,-19 111.5,-19 111.5,-19 0.5,-19"/>
<polygon fill="none" stroke="#666666" points="0,0 0,-68 111,-68 111,0 0,0"/>
</a>
</g>
</g>
<!-- Node2 -->
<g id="Node000002" class="node">
<title>Node2</title>
<g id="a_Node000002"><a xlink:title=" ">
<polygon fill="white" stroke="transparent" points="110,-159 1,-159 1,-104 110,-104 110,-159"/>
<text text-anchor="start" x="6.5" y="-144.9" font-family="Arial" font-size="12.00">CreatesNewUsers</text>
<text text-anchor="start" x="54" y="-127.9" font-family="Arial" font-size="12.00"> </text>
<text text-anchor="start" x="54" y="-110.9" font-family="Arial" font-size="12.00"> </text>
<polygon fill="#666666" stroke="#666666" points="1.5,-139.5 1.5,-139.5 110.5,-139.5 110.5,-139.5 1.5,-139.5"/>
<polygon fill="#666666" stroke="#666666" points="1.5,-122.5 1.5,-122.5 110.5,-122.5 110.5,-122.5 1.5,-122.5"/>
<polygon fill="none" stroke="#666666" points="1,-104 1,-159 110,-159 110,-104 1,-104"/>
</a>
</g>
</g>
<!-- Node2&#45;&gt;Node1 -->
<g id="edge1_Node000001_Node000002" class="edge">
<title>Node2&#45;&gt;Node1</title>
<g id="a_edge1_Node000001_Node000002"><a xlink:title=" ">
<path fill="none" stroke="#63b8ff" d="M55.5,-93.65C55.5,-85.3 55.5,-76.47 55.5,-68.28"/>
<polygon fill="none" stroke="#63b8ff" points="52,-93.9 55.5,-103.9 59,-93.9 52,-93.9"/>
</a>
</g>
</g>
</g>
</svg>
</svg>

<style type='text/css'>
<![CDATA[
[data-mouse-over-selected='false'] { opacity: 0.7; }
[data-mouse-over-selected='true']  { opacity: 1.0; }
]]>
</style>
<script type="application/ecmascript"><![CDATA[
document.addEventListener('DOMContentLoaded', (event) => {
  highlightEdges();
  highlightAdjacentNodes();
});
]]></script>
</svg>
