<?xml version="1.0" encoding="UTF-8" standalone="no"?>
<!DOCTYPE svg PUBLIC "-//W3C//DTD SVG 1.1//EN"
 "http://www.w3.org/Graphics/SVG/1.1/DTD/svg11.dtd">
<!-- Generated by graphviz version 2.43.0 (0)
 -->
<!-- Title: App\Http\Controllers\Auth\EmailVerificationPromptController Pages: 1 -->
<svg width="178pt" height="193pt"
 viewBox="0.00 0.00 178.00 193.00" xmlns="http://www.w3.org/2000/svg" xmlns:xlink="http://www.w3.org/1999/xlink">
<g id="graph0" class="graph" transform="scale(1 1) rotate(0) translate(4 189)">
<title>App\Http\Controllers\Auth\EmailVerificationPromptController</title>
<!-- Node1 -->
<g id="Node000001" class="node">
<title>Node1</title>
<g id="a_Node000001"><a xlink:title=" ">
<polygon fill="#999999" stroke="transparent" points="170,-81 0,-81 0,0 170,0 170,-81"/>
<text text-anchor="start" x="5" y="-66.9" font-family="Arial" font-size="12.00">App\Http\Controllers</text>
<text text-anchor="start" x="5" y="-53.9" font-family="Arial" font-size="12.00">\Auth\EmailVerificationPrompt</text>
<text text-anchor="start" x="58.5" y="-40.9" font-family="Arial" font-size="12.00">Controller</text>
<text text-anchor="start" x="83" y="-23.9" font-family="Arial" font-size="12.00"> </text>
<text text-anchor="start" x="27.5" y="-6.9" font-family="Arial" font-size="12.00">+</text>
<text text-anchor="start" x="62" y="-6.9" font-family="Arial" font-size="12.00">__invoke()</text>
<polygon fill="#666666" stroke="#666666" points="0,-35.5 0,-35.5 170,-35.5 170,-35.5 0,-35.5"/>
<polygon fill="#666666" stroke="#666666" points="0,-18.5 0,-18.5 170,-18.5 170,-18.5 0,-18.5"/>
<polygon fill="none" stroke="#666666" points="0,0 0,-81 170,-81 170,0 0,0"/>
</a>
</g>
</g>
<!-- Node2 -->
<g id="Node000002" class="node">
<title>Node2</title>
<g id="a_Node000002"><a xlink:href="class_app_1_1_http_1_1_controllers_1_1_controller.html" target="_top" xlink:title=" ">
<polygon fill="white" stroke="transparent" points="144.5,-185 25.5,-185 25.5,-117 144.5,-117 144.5,-185"/>
<text text-anchor="start" x="31" y="-171.4" font-family="Arial" font-size="12.00">App\Http\Controllers</text>
<text text-anchor="start" x="57.5" y="-158.4" font-family="Arial" font-size="12.00">\Controller</text>
<text text-anchor="start" x="83.5" y="-141.4" font-family="Arial" font-size="12.00"> </text>
<text text-anchor="start" x="83.5" y="-124.4" font-family="Arial" font-size="12.00"> </text>
<polygon fill="#666666" stroke="#666666" points="26,-153 26,-153 145,-153 145,-153 26,-153"/>
<polygon fill="#666666" stroke="#666666" points="26,-136 26,-136 145,-136 145,-136 26,-136"/>
<polygon fill="none" stroke="#666666" points="25.5,-117 25.5,-185 144.5,-185 144.5,-117 25.5,-117"/>
</a>
</g>
</g>
<!-- Node2&#45;&gt;Node1 -->
<g id="edge1_Node000001_Node000002" class="edge">
<title>Node2&#45;&gt;Node1</title>
<g id="a_edge1_Node000001_Node000002"><a xlink:title=" ">
<path fill="none" stroke="#63b8ff" d="M85,-106.83C85,-98.41 85,-89.62 85,-81.31"/>
<polygon fill="none" stroke="#63b8ff" points="81.5,-106.86 85,-116.86 88.5,-106.86 81.5,-106.86"/>
</a>
</g>
</g>
</g>
</svg>
