<?xml version="1.0" encoding="UTF-8" standalone="no"?>
<!DOCTYPE svg PUBLIC "-//W3C//DTD SVG 1.1//EN"
 "http://www.w3.org/Graphics/SVG/1.1/DTD/svg11.dtd">
<!-- Generated by graphviz version 2.43.0 (0)
 -->
<!-- Title: App\Http\Requests\Auth\LoginRequest Pages: 1 -->
<svg width="164pt" height="235pt"
 viewBox="0.00 0.00 164.00 235.00" xmlns="http://www.w3.org/2000/svg" xmlns:xlink="http://www.w3.org/1999/xlink">
<g id="graph0" class="graph" transform="scale(1 1) rotate(0) translate(4 231)">
<title>App\Http\Requests\Auth\LoginRequest</title>
<!-- Node1 -->
<g id="Node000001" class="node">
<title>Node1</title>
<g id="a_Node000001"><a xlink:title=" ">
<polygon fill="#999999" stroke="transparent" points="156,-136 0,-136 0,0 156,0 156,-136"/>
<text text-anchor="start" x="13.5" y="-122.4" font-family="Arial" font-size="12.00">App\Http\Requests\Auth</text>
<text text-anchor="start" x="38.5" y="-109.4" font-family="Arial" font-size="12.00">\LoginRequest</text>
<text text-anchor="start" x="76" y="-92.4" font-family="Arial" font-size="12.00"> </text>
<text text-anchor="start" x="4" y="-75.4" font-family="Arial" font-size="12.00">+</text>
<text text-anchor="start" x="15" y="-75.4" font-family="Arial" font-size="12.00">authorize()</text>
<text text-anchor="start" x="4" y="-58.4" font-family="Arial" font-size="12.00">+</text>
<text text-anchor="start" x="15" y="-58.4" font-family="Arial" font-size="12.00">rules()</text>
<text text-anchor="start" x="4" y="-41.4" font-family="Arial" font-size="12.00">+</text>
<text text-anchor="start" x="15" y="-41.4" font-family="Arial" font-size="12.00">authenticate()</text>
<text text-anchor="start" x="4" y="-24.4" font-family="Arial" font-size="12.00">+</text>
<text text-anchor="start" x="15" y="-24.4" font-family="Arial" font-size="12.00">ensureIsNotRateLimited()</text>
<text text-anchor="start" x="4" y="-7.4" font-family="Arial" font-size="12.00">+</text>
<text text-anchor="start" x="15" y="-7.4" font-family="Arial" font-size="12.00">throttleKey()</text>
<polygon fill="#666666" stroke="#666666" points="0,-104 0,-104 156,-104 156,-104 0,-104"/>
<polygon fill="#666666" stroke="#666666" points="0,-87 0,-87 156,-87 156,-87 0,-87"/>
<polygon fill="none" stroke="#666666" points="0,0 0,-136 156,-136 156,0 0,0"/>
</a>
</g>
</g>
<!-- Node2 -->
<g id="Node000002" class="node">
<title>Node2</title>
<g id="a_Node000002"><a xlink:title=" ">
<polygon fill="white" stroke="transparent" points="119.5,-227 36.5,-227 36.5,-172 119.5,-172 119.5,-227"/>
<text text-anchor="start" x="42" y="-212.9" font-family="Arial" font-size="12.00">FormRequest</text>
<text text-anchor="start" x="76.5" y="-195.9" font-family="Arial" font-size="12.00"> </text>
<text text-anchor="start" x="76.5" y="-178.9" font-family="Arial" font-size="12.00"> </text>
<polygon fill="#666666" stroke="#666666" points="37,-207.5 37,-207.5 120,-207.5 120,-207.5 37,-207.5"/>
<polygon fill="#666666" stroke="#666666" points="37,-190.5 37,-190.5 120,-190.5 120,-190.5 37,-190.5"/>
<polygon fill="none" stroke="#666666" points="36.5,-172 36.5,-227 119.5,-227 119.5,-172 36.5,-172"/>
</a>
</g>
</g>
<!-- Node2&#45;&gt;Node1 -->
<g id="edge1_Node000001_Node000002" class="edge">
<title>Node2&#45;&gt;Node1</title>
<g id="a_edge1_Node000001_Node000002"><a xlink:title=" ">
<path fill="none" stroke="#63b8ff" d="M78,-161.85C78,-153.78 78,-145 78,-136.15"/>
<polygon fill="none" stroke="#63b8ff" points="74.5,-161.98 78,-171.98 81.5,-161.98 74.5,-161.98"/>
</a>
</g>
</g>
</g>
</svg>
