<?xml version="1.0" encoding="UTF-8" standalone="no"?>
<!DOCTYPE svg PUBLIC "-//W3C//DTD SVG 1.1//EN"
 "http://www.w3.org/Graphics/SVG/1.1/DTD/svg11.dtd">
<!-- Generated by graphviz version 2.43.0 (0)
 -->
<!-- Title: App\Providers\FortifyServiceProvider Pages: 1 -->
<svg width="171pt" height="184pt"
 viewBox="0.00 0.00 171.00 184.00" xmlns="http://www.w3.org/2000/svg" xmlns:xlink="http://www.w3.org/1999/xlink">

<svg id="main" version="1.1" xmlns="http://www.w3.org/2000/svg" xmlns:xlink="http://www.w3.org/1999/xlink" xml:space="preserve" onload="init(evt)">
<style type="text/css"><![CDATA[
.node, .edge {opacity: 0.7;}
.node.selected, .edge.selected {opacity: 1;}
.edge:hover path { stroke: red; }
.edge:hover polygon { stroke: red; fill: red; }
]]></style>
<script type="application/ecmascript" xlink:href="svg.min.js"/>
<svg id="graph" class="graph">
<g id="graph0" class="graph" transform="scale(1 1) rotate(0) translate(4 180)">
<title>App\Providers\FortifyServiceProvider</title>
<!-- Node1 -->
<g id="Node000001" class="node">
<title>Node1</title>
<g id="a_Node000001"><a xlink:title=" ">
<polygon fill="#999999" stroke="transparent" points="163,-85 0,-85 0,0 163,0 163,-85"/>
<text text-anchor="start" x="5.5" y="-70.9" font-family="Arial" font-size="12.00">App\Providers\FortifyService</text>
<text text-anchor="start" x="59" y="-57.9" font-family="Arial" font-size="12.00">Provider</text>
<text text-anchor="start" x="80" y="-40.9" font-family="Arial" font-size="12.00"> </text>
<text text-anchor="start" x="28.5" y="-23.9" font-family="Arial" font-size="12.00">+</text>
<text text-anchor="start" x="63.5" y="-23.9" font-family="Arial" font-size="12.00">register()</text>
<text text-anchor="start" x="28.5" y="-6.9" font-family="Arial" font-size="12.00">+</text>
<text text-anchor="start" x="63.5" y="-6.9" font-family="Arial" font-size="12.00">boot()</text>
<polygon fill="#666666" stroke="#666666" points="0.5,-52.5 0.5,-52.5 163.5,-52.5 163.5,-52.5 0.5,-52.5"/>
<polygon fill="#666666" stroke="#666666" points="0.5,-35.5 0.5,-35.5 163.5,-35.5 163.5,-35.5 0.5,-35.5"/>
<polygon fill="none" stroke="#666666" points="0,0 0,-85 163,-85 163,0 0,0"/>
</a>
</g>
</g>
<!-- Node2 -->
<g id="Node000002" class="node">
<title>Node2</title>
<g id="a_Node000002"><a xlink:title=" ">
<polygon fill="white" stroke="transparent" points="129.5,-176 33.5,-176 33.5,-121 129.5,-121 129.5,-176"/>
<text text-anchor="start" x="38.5" y="-161.9" font-family="Arial" font-size="12.00">ServiceProvider</text>
<text text-anchor="start" x="79.5" y="-144.9" font-family="Arial" font-size="12.00"> </text>
<text text-anchor="start" x="79.5" y="-127.9" font-family="Arial" font-size="12.00"> </text>
<polygon fill="#666666" stroke="#666666" points="33.5,-156.5 33.5,-156.5 129.5,-156.5 129.5,-156.5 33.5,-156.5"/>
<polygon fill="#666666" stroke="#666666" points="33.5,-139.5 33.5,-139.5 129.5,-139.5 129.5,-139.5 33.5,-139.5"/>
<polygon fill="none" stroke="#666666" points="33.5,-121 33.5,-176 129.5,-176 129.5,-121 33.5,-121"/>
</a>
</g>
</g>
<!-- Node2&#45;&gt;Node1 -->
<g id="edge1_Node000001_Node000002" class="edge">
<title>Node2&#45;&gt;Node1</title>
<g id="a_edge1_Node000001_Node000002"><a xlink:title=" ">
<path fill="none" stroke="#63b8ff" d="M81.5,-110.89C81.5,-102.63 81.5,-93.79 81.5,-85.33"/>
<polygon fill="none" stroke="#63b8ff" points="78,-110.99 81.5,-120.99 85,-110.99 78,-110.99"/>
</a>
</g>
</g>
</g>
</svg>
</svg>

<style type='text/css'>
<![CDATA[
[data-mouse-over-selected='false'] { opacity: 0.7; }
[data-mouse-over-selected='true']  { opacity: 1.0; }
]]>
</style>
<script type="application/ecmascript"><![CDATA[
document.addEventListener('DOMContentLoaded', (event) => {
  highlightEdges();
  highlightAdjacentNodes();
});
]]></script>
</svg>
