<?xml version="1.0" encoding="UTF-8" standalone="no"?>
<!DOCTYPE svg PUBLIC "-//W3C//DTD SVG 1.1//EN"
 "http://www.w3.org/Graphics/SVG/1.1/DTD/svg11.dtd">
<!-- Generated by graphviz version 2.43.0 (0)
 -->
<!-- Title: App\Http\Requests\Auth\LoginRequest\ensureIsNotRateLimited Pages: 1 -->
<svg width="677pt" height="55pt"
 viewBox="0.00 0.00 677.00 55.00" xmlns="http://www.w3.org/2000/svg" xmlns:xlink="http://www.w3.org/1999/xlink">
<g id="graph0" class="graph" transform="scale(1 1) rotate(0) translate(4 51)">
<title>App\Http\Requests\Auth\LoginRequest\ensureIsNotRateLimited</title>
<!-- Node1 -->
<g id="Node000001" class="node">
<title>Node1</title>
<g id="a_Node000001"><a xlink:title="Ensure the login request is not rate limited.">
<polygon fill="#999999" stroke="#666666" points="669,-47 481,-47 481,0 669,0 669,-47"/>
<text text-anchor="start" x="489" y="-33.4" font-family="Arial" font-size="12.00">App\Http\Requests\Auth</text>
<text text-anchor="start" x="489" y="-20.4" font-family="Arial" font-size="12.00">\LoginRequest\ensureIsNotRate</text>
<text text-anchor="middle" x="575" y="-7.4" font-family="Arial" font-size="12.00">Limited</text>
</a>
</g>
</g>
<!-- Node2 -->
<g id="Node000002" class="node">
<title>Node2</title>
<g id="a_Node000002"><a xlink:href="class_app_1_1_http_1_1_requests_1_1_auth_1_1_login_request.html#a7be4cc5f6c415464b716807cc1b862ce" target="_top" xlink:title="Attempt to authenticate the request&#39;s credentials.">
<polygon fill="white" stroke="#666666" points="445,-40.5 282,-40.5 282,-6.5 445,-6.5 445,-40.5"/>
<text text-anchor="start" x="290" y="-26.9" font-family="Arial" font-size="12.00">App\Http\Requests\Auth</text>
<text text-anchor="middle" x="363.5" y="-13.9" font-family="Arial" font-size="12.00">\LoginRequest\authenticate</text>
</a>
</g>
</g>
<!-- Node1&#45;&gt;Node2 -->
<g id="edge1_Node000001_Node000002" class="edge">
<title>Node1&#45;&gt;Node2</title>
<g id="a_edge1_Node000001_Node000002"><a xlink:title=" ">
<path fill="none" stroke="#63b8ff" d="M470.81,-23.5C462.2,-23.5 453.58,-23.5 445.17,-23.5"/>
<polygon fill="#63b8ff" stroke="#63b8ff" points="470.89,-27 480.89,-23.5 470.89,-20 470.89,-27"/>
</a>
</g>
</g>
<!-- Node3 -->
<g id="Node000003" class="node">
<title>Node3</title>
<g id="a_Node000003"><a xlink:href="class_app_1_1_http_1_1_controllers_1_1_auth_1_1_authenticated_session_controller.html#a0c8e698ebd6dd5f91721d442f53dbe66" target="_top" xlink:title="Handle an incoming authentication request.">
<polygon fill="white" stroke="#666666" points="246,-40.5 0,-40.5 0,-6.5 246,-6.5 246,-40.5"/>
<text text-anchor="start" x="8" y="-26.9" font-family="Arial" font-size="12.00">App\Http\Controllers</text>
<text text-anchor="middle" x="123" y="-13.9" font-family="Arial" font-size="12.00">\Auth\AuthenticatedSessionController\store</text>
</a>
</g>
</g>
<!-- Node2&#45;&gt;Node3 -->
<g id="edge2_Node000002_Node000003" class="edge">
<title>Node2&#45;&gt;Node3</title>
<g id="a_edge2_Node000002_Node000003"><a xlink:title=" ">
<path fill="none" stroke="#63b8ff" d="M271.67,-23.5C263.32,-23.5 254.76,-23.5 246.19,-23.5"/>
<polygon fill="#63b8ff" stroke="#63b8ff" points="271.75,-27 281.75,-23.5 271.75,-20 271.75,-27"/>
</a>
</g>
</g>
</g>
</svg>
