<?xml version="1.0" encoding="UTF-8" standalone="no"?>
<!DOCTYPE svg PUBLIC "-//W3C//DTD SVG 1.1//EN"
 "http://www.w3.org/Graphics/SVG/1.1/DTD/svg11.dtd">
<!-- Generated by graphviz version 2.43.0 (0)
 -->
<!-- Title: Migration Pages: 1 -->
<svg width="98pt" height="233pt"
 viewBox="0.00 0.00 98.00 233.00" xmlns="http://www.w3.org/2000/svg" xmlns:xlink="http://www.w3.org/1999/xlink">
<g id="graph0" class="graph" transform="scale(1 1) rotate(0) translate(4 229)">
<title>Migration</title>
<!-- Node1 -->
<g id="Node000001" class="node">
<title>Node1</title>
<g id="a_Node000001"><a xlink:title=" ">
<polygon fill="#999999" stroke="transparent" points="90,-225 0,-225 0,0 90,0 90,-225"/>
<text text-anchor="start" x="20" y="-210.9" font-family="Arial" font-size="12.00">Migration</text>
<text text-anchor="start" x="43" y="-193.9" font-family="Arial" font-size="12.00"> </text>
<text text-anchor="start" x="4" y="-176.9" font-family="Arial" font-size="12.00">+</text>
<text text-anchor="start" x="15" y="-176.9" font-family="Arial" font-size="12.00">up()</text>
<text text-anchor="start" x="4" y="-159.9" font-family="Arial" font-size="12.00">+</text>
<text text-anchor="start" x="15" y="-159.9" font-family="Arial" font-size="12.00">down()</text>
<text text-anchor="start" x="4" y="-142.9" font-family="Arial" font-size="12.00">+</text>
<text text-anchor="start" x="15" y="-142.9" font-family="Arial" font-size="12.00">up()</text>
<text text-anchor="start" x="4" y="-125.9" font-family="Arial" font-size="12.00">+</text>
<text text-anchor="start" x="15" y="-125.9" font-family="Arial" font-size="12.00">down()</text>
<text text-anchor="start" x="4" y="-108.9" font-family="Arial" font-size="12.00">+</text>
<text text-anchor="start" x="15" y="-108.9" font-family="Arial" font-size="12.00">up()</text>
<text text-anchor="start" x="4" y="-91.9" font-family="Arial" font-size="12.00">+</text>
<text text-anchor="start" x="15" y="-91.9" font-family="Arial" font-size="12.00">down()</text>
<text text-anchor="start" x="4" y="-74.9" font-family="Arial" font-size="12.00">+</text>
<text text-anchor="start" x="15" y="-74.9" font-family="Arial" font-size="12.00">up()</text>
<text text-anchor="start" x="4" y="-57.9" font-family="Arial" font-size="12.00">+</text>
<text text-anchor="start" x="15" y="-57.9" font-family="Arial" font-size="12.00">down()</text>
<text text-anchor="start" x="4" y="-40.9" font-family="Arial" font-size="12.00">+</text>
<text text-anchor="start" x="15" y="-40.9" font-family="Arial" font-size="12.00">up()</text>
<text text-anchor="start" x="4" y="-23.9" font-family="Arial" font-size="12.00">+</text>
<text text-anchor="start" x="15" y="-23.9" font-family="Arial" font-size="12.00">down()</text>
<text text-anchor="start" x="15" y="-6.9" font-family="Arial" font-size="12.00">et 6 de plus...</text>
<polygon fill="#666666" stroke="#666666" points="0,-205.5 0,-205.5 90,-205.5 90,-205.5 0,-205.5"/>
<polygon fill="#666666" stroke="#666666" points="0,-188.5 0,-188.5 90,-188.5 90,-188.5 0,-188.5"/>
<polygon fill="none" stroke="#666666" points="0,0 0,-225 90,-225 90,0 0,0"/>
</a>
</g>
</g>
</g>
</svg>
