<?xml version="1.0" encoding="UTF-8" standalone="no"?>
<!DOCTYPE svg PUBLIC "-//W3C//DTD SVG 1.1//EN"
 "http://www.w3.org/Graphics/SVG/1.1/DTD/svg11.dtd">
<!-- Generated by graphviz version 2.43.0 (0)
 -->
<!-- Title: App\Http\Controllers\RedirectController Pages: 1 -->
<svg width="127pt" height="180pt"
 viewBox="0.00 0.00 127.00 180.00" xmlns="http://www.w3.org/2000/svg" xmlns:xlink="http://www.w3.org/1999/xlink">

<svg id="main" version="1.1" xmlns="http://www.w3.org/2000/svg" xmlns:xlink="http://www.w3.org/1999/xlink" xml:space="preserve" onload="init(evt)">
<style type="text/css"><![CDATA[
.node, .edge {opacity: 0.7;}
.node.selected, .edge.selected {opacity: 1;}
.edge:hover path { stroke: red; }
.edge:hover polygon { stroke: red; fill: red; }
]]></style>
<script type="application/ecmascript" xlink:href="svg.min.js"/>
<svg id="graph" class="graph">
<g id="graph0" class="graph" transform="scale(1 1) rotate(0) translate(4 176)">
<title>App\Http\Controllers\RedirectController</title>
<!-- Node1 -->
<g id="Node000001" class="node">
<title>Node1</title>
<g id="a_Node000001"><a xlink:title=" ">
<polygon fill="#999999" stroke="transparent" points="119,-68 0,-68 0,0 119,0 119,-68"/>
<text text-anchor="start" x="5.5" y="-54.4" font-family="Arial" font-size="12.00">App\Http\Controllers</text>
<text text-anchor="start" x="9.5" y="-41.4" font-family="Arial" font-size="12.00">\RedirectController</text>
<text text-anchor="start" x="58" y="-24.4" font-family="Arial" font-size="12.00"> </text>
<text text-anchor="start" x="17.5" y="-7.4" font-family="Arial" font-size="12.00">+</text>
<text text-anchor="start" x="41.5" y="-7.4" font-family="Arial" font-size="12.00">redirect()</text>
<polygon fill="#666666" stroke="#666666" points="0.5,-36 0.5,-36 119.5,-36 119.5,-36 0.5,-36"/>
<polygon fill="#666666" stroke="#666666" points="0.5,-19 0.5,-19 119.5,-19 119.5,-19 0.5,-19"/>
<polygon fill="none" stroke="#666666" points="0,0 0,-68 119,-68 119,0 0,0"/>
</a>
</g>
</g>
<!-- Node2 -->
<g id="Node000002" class="node">
<title>Node2</title>
<g id="a_Node000002"><a xlink:href="class_app_1_1_http_1_1_controllers_1_1_controller.html" target="_top" xlink:title=" ">
<polygon fill="white" stroke="transparent" points="119,-172 0,-172 0,-104 119,-104 119,-172"/>
<text text-anchor="start" x="5.5" y="-158.4" font-family="Arial" font-size="12.00">App\Http\Controllers</text>
<text text-anchor="start" x="32" y="-145.4" font-family="Arial" font-size="12.00">\Controller</text>
<text text-anchor="start" x="58" y="-128.4" font-family="Arial" font-size="12.00"> </text>
<text text-anchor="start" x="58" y="-111.4" font-family="Arial" font-size="12.00"> </text>
<polygon fill="#666666" stroke="#666666" points="0.5,-140 0.5,-140 119.5,-140 119.5,-140 0.5,-140"/>
<polygon fill="#666666" stroke="#666666" points="0.5,-123 0.5,-123 119.5,-123 119.5,-123 0.5,-123"/>
<polygon fill="none" stroke="#666666" points="0,-104 0,-172 119,-172 119,-104 0,-104"/>
</a>
</g>
</g>
<!-- Node2&#45;&gt;Node1 -->
<g id="edge1_Node000001_Node000002" class="edge">
<title>Node2&#45;&gt;Node1</title>
<g id="a_edge1_Node000001_Node000002"><a xlink:title=" ">
<path fill="none" stroke="#63b8ff" d="M59.5,-93.72C59.5,-85.21 59.5,-76.42 59.5,-68.3"/>
<polygon fill="none" stroke="#63b8ff" points="56,-93.88 59.5,-103.88 63,-93.88 56,-93.88"/>
</a>
</g>
</g>
</g>
</svg>
</svg>

<style type='text/css'>
<![CDATA[
[data-mouse-over-selected='false'] { opacity: 0.7; }
[data-mouse-over-selected='true']  { opacity: 1.0; }
]]>
</style>
<script type="application/ecmascript"><![CDATA[
document.addEventListener('DOMContentLoaded', (event) => {
  highlightEdges();
  highlightAdjacentNodes();
});
]]></script>
</svg>
