<?xml version="1.0" encoding="UTF-8" standalone="no"?>
<!DOCTYPE svg PUBLIC "-//W3C//DTD SVG 1.1//EN"
 "http://www.w3.org/Graphics/SVG/1.1/DTD/svg11.dtd">
<!-- Generated by graphviz version 2.43.0 (0)
 -->
<!-- Title: App\Http\Controllers\Controller Pages: 1 -->
<svg width="2203pt" height="316pt"
 viewBox="0.00 0.00 2203.00 316.00" xmlns="http://www.w3.org/2000/svg" xmlns:xlink="http://www.w3.org/1999/xlink">
<g id="graph0" class="graph" transform="scale(1 1) rotate(0) translate(4 312)">
<title>App\Http\Controllers\Controller</title>
<!-- Node1 -->
<g id="Node000001" class="node">
<title>Node1</title>
<g id="a_Node000001"><a xlink:title=" ">
<polygon fill="#999999" stroke="transparent" points="1277,-308 1158,-308 1158,-240 1277,-240 1277,-308"/>
<text text-anchor="start" x="1163.5" y="-294.4" font-family="Arial" font-size="12.00">App\Http\Controllers</text>
<text text-anchor="start" x="1190" y="-281.4" font-family="Arial" font-size="12.00">\Controller</text>
<text text-anchor="start" x="1216" y="-264.4" font-family="Arial" font-size="12.00"> </text>
<text text-anchor="start" x="1216" y="-247.4" font-family="Arial" font-size="12.00"> </text>
<polygon fill="#666666" stroke="#666666" points="1158.5,-276 1158.5,-276 1277.5,-276 1277.5,-276 1158.5,-276"/>
<polygon fill="#666666" stroke="#666666" points="1158.5,-259 1158.5,-259 1277.5,-259 1277.5,-259 1158.5,-259"/>
<polygon fill="none" stroke="#666666" points="1158,-240 1158,-308 1277,-308 1277,-240 1158,-240"/>
</a>
</g>
</g>
<!-- Node2 -->
<g id="Node000002" class="node">
<title>Node2</title>
<g id="a_Node000002"><a xlink:href="class_app_1_1_http_1_1_controllers_1_1_auth_1_1_authenticated_session_controller.html" target="_top" xlink:title=" ">
<polygon fill="white" stroke="transparent" points="211,-153 0,-153 0,-51 211,-51 211,-153"/>
<text text-anchor="start" x="5.5" y="-139.4" font-family="Arial" font-size="12.00">App\Http\Controllers</text>
<text text-anchor="start" x="5.5" y="-126.4" font-family="Arial" font-size="12.00">\Auth\AuthenticatedSessionController</text>
<text text-anchor="start" x="104" y="-109.4" font-family="Arial" font-size="12.00"> </text>
<text text-anchor="start" x="40.5" y="-92.4" font-family="Arial" font-size="12.00">+</text>
<text text-anchor="start" x="87.5" y="-92.4" font-family="Arial" font-size="12.00">create()</text>
<text text-anchor="start" x="40.5" y="-75.4" font-family="Arial" font-size="12.00">+</text>
<text text-anchor="start" x="87.5" y="-75.4" font-family="Arial" font-size="12.00">store()</text>
<text text-anchor="start" x="40.5" y="-58.4" font-family="Arial" font-size="12.00">+</text>
<text text-anchor="start" x="87.5" y="-58.4" font-family="Arial" font-size="12.00">destroy()</text>
<polygon fill="#666666" stroke="#666666" points="0.5,-121 0.5,-121 211.5,-121 211.5,-121 0.5,-121"/>
<polygon fill="#666666" stroke="#666666" points="0.5,-104 0.5,-104 211.5,-104 211.5,-104 0.5,-104"/>
<polygon fill="none" stroke="#666666" points="0,-51 0,-153 211,-153 211,-51 0,-51"/>
</a>
</g>
</g>
<!-- Node1&#45;&gt;Node2 -->
<g id="edge1_Node000001_Node000002" class="edge">
<title>Node1&#45;&gt;Node2</title>
<g id="a_edge1_Node000001_Node000002"><a xlink:title=" ">
<path fill="none" stroke="#63b8ff" d="M1147.61,-270.75C935.03,-263.54 305.49,-239.42 220.5,-204 193.52,-192.76 168.49,-172.53 148.72,-153.11"/>
<polygon fill="none" stroke="#63b8ff" points="1147.61,-274.25 1157.72,-271.09 1147.84,-267.25 1147.61,-274.25"/>
</a>
</g>
</g>
<!-- Node3 -->
<g id="Node000003" class="node">
<title>Node3</title>
<g id="a_Node000003"><a xlink:href="class_app_1_1_http_1_1_controllers_1_1_auth_1_1_confirmable_password_controller.html" target="_top" xlink:title=" ">
<polygon fill="white" stroke="transparent" points="441.5,-144.5 229.5,-144.5 229.5,-59.5 441.5,-59.5 441.5,-144.5"/>
<text text-anchor="start" x="234.5" y="-130.4" font-family="Arial" font-size="12.00">App\Http\Controllers</text>
<text text-anchor="start" x="234.5" y="-117.4" font-family="Arial" font-size="12.00">\Auth\ConfirmablePasswordController</text>
<text text-anchor="start" x="333.5" y="-100.4" font-family="Arial" font-size="12.00"> </text>
<text text-anchor="start" x="272.5" y="-83.4" font-family="Arial" font-size="12.00">+</text>
<text text-anchor="start" x="322.5" y="-83.4" font-family="Arial" font-size="12.00">show()</text>
<text text-anchor="start" x="272.5" y="-66.4" font-family="Arial" font-size="12.00">+</text>
<text text-anchor="start" x="322.5" y="-66.4" font-family="Arial" font-size="12.00">store()</text>
<polygon fill="#666666" stroke="#666666" points="229.5,-112 229.5,-112 441.5,-112 441.5,-112 229.5,-112"/>
<polygon fill="#666666" stroke="#666666" points="229.5,-95 229.5,-95 441.5,-95 441.5,-95 229.5,-95"/>
<polygon fill="none" stroke="#666666" points="229.5,-59.5 229.5,-144.5 441.5,-144.5 441.5,-59.5 229.5,-59.5"/>
</a>
</g>
</g>
<!-- Node1&#45;&gt;Node3 -->
<g id="edge2_Node000001_Node000003" class="edge">
<title>Node1&#45;&gt;Node3</title>
<g id="a_edge2_Node000001_Node000003"><a xlink:title=" ">
<path fill="none" stroke="#63b8ff" d="M1147.93,-272.22C983.44,-269.51 575.06,-257.43 450.5,-204 419.85,-190.85 391.62,-166.32 370.79,-144.73"/>
<polygon fill="none" stroke="#63b8ff" points="1147.88,-275.72 1157.93,-272.38 1147.99,-268.72 1147.88,-275.72"/>
</a>
</g>
</g>
<!-- Node4 -->
<g id="Node000004" class="node">
<title>Node4</title>
<g id="a_Node000004"><a xlink:href="class_app_1_1_http_1_1_controllers_1_1_auth_1_1_email_verification_notification_controller.html" target="_top" xlink:title=" ">
<polygon fill="white" stroke="transparent" points="651,-142.5 460,-142.5 460,-61.5 651,-61.5 651,-142.5"/>
<text text-anchor="start" x="465.5" y="-128.4" font-family="Arial" font-size="12.00">App\Http\Controllers</text>
<text text-anchor="start" x="465.5" y="-115.4" font-family="Arial" font-size="12.00">\Auth\EmailVerificationNotification</text>
<text text-anchor="start" x="529.5" y="-102.4" font-family="Arial" font-size="12.00">Controller</text>
<text text-anchor="start" x="554" y="-85.4" font-family="Arial" font-size="12.00"> </text>
<text text-anchor="start" x="499" y="-68.4" font-family="Arial" font-size="12.00">+</text>
<text text-anchor="start" x="544.5" y="-68.4" font-family="Arial" font-size="12.00">store()</text>
<polygon fill="#666666" stroke="#666666" points="460.5,-97 460.5,-97 651.5,-97 651.5,-97 460.5,-97"/>
<polygon fill="#666666" stroke="#666666" points="460.5,-80 460.5,-80 651.5,-80 651.5,-80 460.5,-80"/>
<polygon fill="none" stroke="#666666" points="460,-61.5 460,-142.5 651,-142.5 651,-61.5 460,-61.5"/>
</a>
</g>
</g>
<!-- Node1&#45;&gt;Node4 -->
<g id="edge3_Node000001_Node000004" class="edge">
<title>Node1&#45;&gt;Node4</title>
<g id="a_edge3_Node000001_Node000004"><a xlink:title=" ">
<path fill="none" stroke="#63b8ff" d="M1147.39,-269.82C1017.55,-263.03 745.18,-244.35 660.5,-204 631.04,-189.97 604.61,-164.43 585.64,-142.55"/>
<polygon fill="none" stroke="#63b8ff" points="1147.45,-273.33 1157.62,-270.34 1147.81,-266.34 1147.45,-273.33"/>
</a>
</g>
</g>
<!-- Node5 -->
<g id="Node000005" class="node">
<title>Node5</title>
<g id="a_Node000005"><a xlink:href="class_app_1_1_http_1_1_controllers_1_1_auth_1_1_email_verification_prompt_controller.html" target="_top" xlink:title=" ">
<polygon fill="white" stroke="transparent" points="839.5,-142.5 669.5,-142.5 669.5,-61.5 839.5,-61.5 839.5,-142.5"/>
<text text-anchor="start" x="674.5" y="-128.4" font-family="Arial" font-size="12.00">App\Http\Controllers</text>
<text text-anchor="start" x="674.5" y="-115.4" font-family="Arial" font-size="12.00">\Auth\EmailVerificationPrompt</text>
<text text-anchor="start" x="728" y="-102.4" font-family="Arial" font-size="12.00">Controller</text>
<text text-anchor="start" x="752.5" y="-85.4" font-family="Arial" font-size="12.00"> </text>
<text text-anchor="start" x="697" y="-68.4" font-family="Arial" font-size="12.00">+</text>
<text text-anchor="start" x="731.5" y="-68.4" font-family="Arial" font-size="12.00">__invoke()</text>
<polygon fill="#666666" stroke="#666666" points="669.5,-97 669.5,-97 839.5,-97 839.5,-97 669.5,-97"/>
<polygon fill="#666666" stroke="#666666" points="669.5,-80 669.5,-80 839.5,-80 839.5,-80 669.5,-80"/>
<polygon fill="none" stroke="#666666" points="669.5,-61.5 669.5,-142.5 839.5,-142.5 839.5,-61.5 669.5,-61.5"/>
</a>
</g>
</g>
<!-- Node1&#45;&gt;Node5 -->
<g id="edge4_Node000001_Node000005" class="edge">
<title>Node1&#45;&gt;Node5</title>
<g id="a_edge4_Node000001_Node000005"><a xlink:title=" ">
<path fill="none" stroke="#63b8ff" d="M1147.62,-272.74C1070,-269.65 943.17,-256.1 848.5,-204 821.74,-189.28 798.32,-164.16 781.55,-142.67"/>
<polygon fill="none" stroke="#63b8ff" points="1147.65,-276.24 1157.77,-273.1 1147.9,-269.25 1147.65,-276.24"/>
</a>
</g>
</g>
<!-- Node6 -->
<g id="Node000006" class="node">
<title>Node6</title>
<g id="a_Node000006"><a xlink:href="class_app_1_1_http_1_1_controllers_1_1_auth_1_1_new_password_controller.html" target="_top" xlink:title=" ">
<polygon fill="white" stroke="transparent" points="1029.5,-144.5 857.5,-144.5 857.5,-59.5 1029.5,-59.5 1029.5,-144.5"/>
<text text-anchor="start" x="862.5" y="-130.4" font-family="Arial" font-size="12.00">App\Http\Controllers</text>
<text text-anchor="start" x="862.5" y="-117.4" font-family="Arial" font-size="12.00">\Auth\NewPasswordController</text>
<text text-anchor="start" x="941.5" y="-100.4" font-family="Arial" font-size="12.00"> </text>
<text text-anchor="start" x="889.5" y="-83.4" font-family="Arial" font-size="12.00">+</text>
<text text-anchor="start" x="928.5" y="-83.4" font-family="Arial" font-size="12.00">create()</text>
<text text-anchor="start" x="889.5" y="-66.4" font-family="Arial" font-size="12.00">+</text>
<text text-anchor="start" x="928.5" y="-66.4" font-family="Arial" font-size="12.00">store()</text>
<polygon fill="#666666" stroke="#666666" points="857.5,-112 857.5,-112 1029.5,-112 1029.5,-112 857.5,-112"/>
<polygon fill="#666666" stroke="#666666" points="857.5,-95 857.5,-95 1029.5,-95 1029.5,-95 857.5,-95"/>
<polygon fill="none" stroke="#666666" points="857.5,-59.5 857.5,-144.5 1029.5,-144.5 1029.5,-59.5 857.5,-59.5"/>
</a>
</g>
</g>
<!-- Node1&#45;&gt;Node6 -->
<g id="edge5_Node000001_Node000006" class="edge">
<title>Node1&#45;&gt;Node6</title>
<g id="a_edge5_Node000001_Node000006"><a xlink:title=" ">
<path fill="none" stroke="#63b8ff" d="M1148.27,-254.34C1113.52,-243.04 1071.85,-226.42 1038.5,-204 1014.53,-187.88 992.16,-164.68 975.15,-144.58"/>
<polygon fill="none" stroke="#63b8ff" points="1147.28,-257.7 1157.87,-257.38 1149.4,-251.02 1147.28,-257.7"/>
</a>
</g>
</g>
<!-- Node7 -->
<g id="Node000007" class="node">
<title>Node7</title>
<g id="a_Node000007"><a xlink:href="class_app_1_1_http_1_1_controllers_1_1_auth_1_1_password_controller.html" target="_top" xlink:title=" ">
<polygon fill="white" stroke="transparent" points="1195,-136 1048,-136 1048,-68 1195,-68 1195,-136"/>
<text text-anchor="start" x="1053.5" y="-122.4" font-family="Arial" font-size="12.00">App\Http\Controllers</text>
<text text-anchor="start" x="1053.5" y="-109.4" font-family="Arial" font-size="12.00">\Auth\PasswordController</text>
<text text-anchor="start" x="1120" y="-92.4" font-family="Arial" font-size="12.00"> </text>
<text text-anchor="start" x="1073" y="-75.4" font-family="Arial" font-size="12.00">+</text>
<text text-anchor="start" x="1104.5" y="-75.4" font-family="Arial" font-size="12.00">update()</text>
<polygon fill="#666666" stroke="#666666" points="1048.5,-104 1048.5,-104 1195.5,-104 1195.5,-104 1048.5,-104"/>
<polygon fill="#666666" stroke="#666666" points="1048.5,-87 1048.5,-87 1195.5,-87 1195.5,-87 1048.5,-87"/>
<polygon fill="none" stroke="#666666" points="1048,-68 1048,-136 1195,-136 1195,-68 1048,-68"/>
</a>
</g>
</g>
<!-- Node1&#45;&gt;Node7 -->
<g id="edge6_Node000001_Node000007" class="edge">
<title>Node1&#45;&gt;Node7</title>
<g id="a_edge6_Node000001_Node000007"><a xlink:title=" ">
<path fill="none" stroke="#63b8ff" d="M1193.81,-231.05C1177.27,-201.77 1155.51,-163.22 1140.19,-136.1"/>
<polygon fill="none" stroke="#63b8ff" points="1190.8,-232.83 1198.76,-239.82 1196.89,-229.39 1190.8,-232.83"/>
</a>
</g>
</g>
<!-- Node8 -->
<g id="Node000008" class="node">
<title>Node8</title>
<g id="a_Node000008"><a xlink:href="class_app_1_1_http_1_1_controllers_1_1_auth_1_1_password_reset_link_controller.html" target="_top" xlink:title=" ">
<polygon fill="white" stroke="transparent" points="1414,-144.5 1213,-144.5 1213,-59.5 1414,-59.5 1414,-144.5"/>
<text text-anchor="start" x="1218.5" y="-130.4" font-family="Arial" font-size="12.00">App\Http\Controllers</text>
<text text-anchor="start" x="1218.5" y="-117.4" font-family="Arial" font-size="12.00">\Auth\PasswordResetLinkController</text>
<text text-anchor="start" x="1312" y="-100.4" font-family="Arial" font-size="12.00"> </text>
<text text-anchor="start" x="1252.5" y="-83.4" font-family="Arial" font-size="12.00">+</text>
<text text-anchor="start" x="1298.5" y="-83.4" font-family="Arial" font-size="12.00">create()</text>
<text text-anchor="start" x="1252.5" y="-66.4" font-family="Arial" font-size="12.00">+</text>
<text text-anchor="start" x="1298.5" y="-66.4" font-family="Arial" font-size="12.00">store()</text>
<polygon fill="#666666" stroke="#666666" points="1213.5,-112 1213.5,-112 1414.5,-112 1414.5,-112 1213.5,-112"/>
<polygon fill="#666666" stroke="#666666" points="1213.5,-95 1213.5,-95 1414.5,-95 1414.5,-95 1213.5,-95"/>
<polygon fill="none" stroke="#666666" points="1213,-59.5 1213,-144.5 1414,-144.5 1414,-59.5 1213,-59.5"/>
</a>
</g>
</g>
<!-- Node1&#45;&gt;Node8 -->
<g id="edge7_Node000001_Node000008" class="edge">
<title>Node1&#45;&gt;Node8</title>
<g id="a_edge7_Node000001_Node000008"><a xlink:title=" ">
<path fill="none" stroke="#63b8ff" d="M1241.31,-230.84C1256.18,-204.5 1275.25,-170.74 1290.05,-144.53"/>
<polygon fill="none" stroke="#63b8ff" points="1238.11,-229.39 1236.24,-239.82 1244.2,-232.83 1238.11,-229.39"/>
</a>
</g>
</g>
<!-- Node9 -->
<g id="Node000009" class="node">
<title>Node9</title>
<g id="a_Node000009"><a xlink:href="class_app_1_1_http_1_1_controllers_1_1_auth_1_1_registered_user_controller.html" target="_top" xlink:title=" ">
<polygon fill="white" stroke="transparent" points="1610.5,-144.5 1432.5,-144.5 1432.5,-59.5 1610.5,-59.5 1610.5,-144.5"/>
<text text-anchor="start" x="1437.5" y="-130.4" font-family="Arial" font-size="12.00">App\Http\Controllers</text>
<text text-anchor="start" x="1437.5" y="-117.4" font-family="Arial" font-size="12.00">\Auth\RegisteredUserController</text>
<text text-anchor="start" x="1519.5" y="-100.4" font-family="Arial" font-size="12.00"> </text>
<text text-anchor="start" x="1466" y="-83.4" font-family="Arial" font-size="12.00">+</text>
<text text-anchor="start" x="1506.5" y="-83.4" font-family="Arial" font-size="12.00">create()</text>
<text text-anchor="start" x="1466" y="-66.4" font-family="Arial" font-size="12.00">+</text>
<text text-anchor="start" x="1506.5" y="-66.4" font-family="Arial" font-size="12.00">store()</text>
<polygon fill="#666666" stroke="#666666" points="1432.5,-112 1432.5,-112 1610.5,-112 1610.5,-112 1432.5,-112"/>
<polygon fill="#666666" stroke="#666666" points="1432.5,-95 1432.5,-95 1610.5,-95 1610.5,-95 1432.5,-95"/>
<polygon fill="none" stroke="#666666" points="1432.5,-59.5 1432.5,-144.5 1610.5,-144.5 1610.5,-59.5 1432.5,-59.5"/>
</a>
</g>
</g>
<!-- Node1&#45;&gt;Node9 -->
<g id="edge8_Node000001_Node000009" class="edge">
<title>Node1&#45;&gt;Node9</title>
<g id="a_edge8_Node000001_Node000009"><a xlink:title=" ">
<path fill="none" stroke="#63b8ff" d="M1286.97,-258.54C1328.73,-247.77 1381.69,-230.32 1423.5,-204 1448.42,-188.32 1471.59,-165.02 1489.14,-144.75"/>
<polygon fill="none" stroke="#63b8ff" points="1286.01,-255.17 1277.16,-261 1287.71,-261.96 1286.01,-255.17"/>
</a>
</g>
</g>
<!-- Node10 -->
<g id="Node000010" class="node">
<title>Node10</title>
<g id="a_Node000010"><a xlink:href="class_app_1_1_http_1_1_controllers_1_1_auth_1_1_verify_email_controller.html" target="_top" xlink:title=" ">
<polygon fill="white" stroke="transparent" points="1784,-136 1629,-136 1629,-68 1784,-68 1784,-136"/>
<text text-anchor="start" x="1634.5" y="-122.4" font-family="Arial" font-size="12.00">App\Http\Controllers</text>
<text text-anchor="start" x="1634.5" y="-109.4" font-family="Arial" font-size="12.00">\Auth\VerifyEmailController</text>
<text text-anchor="start" x="1705" y="-92.4" font-family="Arial" font-size="12.00"> </text>
<text text-anchor="start" x="1653" y="-75.4" font-family="Arial" font-size="12.00">+</text>
<text text-anchor="start" x="1683.5" y="-75.4" font-family="Arial" font-size="12.00">__invoke()</text>
<polygon fill="#666666" stroke="#666666" points="1629.5,-104 1629.5,-104 1784.5,-104 1784.5,-104 1629.5,-104"/>
<polygon fill="#666666" stroke="#666666" points="1629.5,-87 1629.5,-87 1784.5,-87 1784.5,-87 1629.5,-87"/>
<polygon fill="none" stroke="#666666" points="1629,-68 1629,-136 1784,-136 1784,-68 1629,-68"/>
</a>
</g>
</g>
<!-- Node1&#45;&gt;Node10 -->
<g id="edge9_Node000001_Node000010" class="edge">
<title>Node1&#45;&gt;Node10</title>
<g id="a_edge9_Node000001_Node000010"><a xlink:title=" ">
<path fill="none" stroke="#63b8ff" d="M1287.18,-266.75C1386.75,-256.88 1563.86,-235.48 1619.5,-204 1647.9,-187.93 1671.41,-158.92 1686.8,-136.11"/>
<polygon fill="none" stroke="#63b8ff" points="1286.81,-263.27 1277.2,-267.73 1287.49,-270.24 1286.81,-263.27"/>
</a>
</g>
</g>
<!-- Node11 -->
<g id="Node000011" class="node">
<title>Node11</title>
<g id="a_Node000011"><a xlink:href="class_app_1_1_http_1_1_controllers_1_1_profile_controller.html" target="_top" xlink:title=" ">
<polygon fill="white" stroke="transparent" points="1921,-153 1802,-153 1802,-51 1921,-51 1921,-153"/>
<text text-anchor="start" x="1807.5" y="-139.4" font-family="Arial" font-size="12.00">App\Http\Controllers</text>
<text text-anchor="start" x="1816.5" y="-126.4" font-family="Arial" font-size="12.00">\ProfileController</text>
<text text-anchor="start" x="1860" y="-109.4" font-family="Arial" font-size="12.00"> </text>
<text text-anchor="start" x="1819.5" y="-92.4" font-family="Arial" font-size="12.00">+</text>
<text text-anchor="start" x="1843.5" y="-92.4" font-family="Arial" font-size="12.00">edit()</text>
<text text-anchor="start" x="1819.5" y="-75.4" font-family="Arial" font-size="12.00">+</text>
<text text-anchor="start" x="1843.5" y="-75.4" font-family="Arial" font-size="12.00">update()</text>
<text text-anchor="start" x="1819.5" y="-58.4" font-family="Arial" font-size="12.00">+</text>
<text text-anchor="start" x="1843.5" y="-58.4" font-family="Arial" font-size="12.00">destroy()</text>
<polygon fill="#666666" stroke="#666666" points="1802.5,-121 1802.5,-121 1921.5,-121 1921.5,-121 1802.5,-121"/>
<polygon fill="#666666" stroke="#666666" points="1802.5,-104 1802.5,-104 1921.5,-104 1921.5,-104 1802.5,-104"/>
<polygon fill="none" stroke="#666666" points="1802,-51 1802,-153 1921,-153 1921,-51 1802,-51"/>
</a>
</g>
</g>
<!-- Node1&#45;&gt;Node11 -->
<g id="edge10_Node000001_Node000011" class="edge">
<title>Node1&#45;&gt;Node11</title>
<g id="a_edge10_Node000001_Node000011"><a xlink:title=" ">
<path fill="none" stroke="#63b8ff" d="M1287.43,-271.8C1421.78,-268.33 1710.07,-255.01 1793.5,-204 1813.07,-192.04 1828.26,-172.07 1839.28,-153.04"/>
<polygon fill="none" stroke="#63b8ff" points="1287.16,-268.3 1277.25,-272.05 1287.33,-275.3 1287.16,-268.3"/>
</a>
</g>
</g>
<!-- Node12 -->
<g id="Node000012" class="node">
<title>Node12</title>
<g id="a_Node000012"><a xlink:href="class_app_1_1_http_1_1_controllers_1_1_redirect_controller.html" target="_top" xlink:title=" ">
<polygon fill="white" stroke="transparent" points="2058,-136 1939,-136 1939,-68 2058,-68 2058,-136"/>
<text text-anchor="start" x="1944.5" y="-122.4" font-family="Arial" font-size="12.00">App\Http\Controllers</text>
<text text-anchor="start" x="1948.5" y="-109.4" font-family="Arial" font-size="12.00">\RedirectController</text>
<text text-anchor="start" x="1997" y="-92.4" font-family="Arial" font-size="12.00"> </text>
<text text-anchor="start" x="1956.5" y="-75.4" font-family="Arial" font-size="12.00">+</text>
<text text-anchor="start" x="1980.5" y="-75.4" font-family="Arial" font-size="12.00">redirect()</text>
<polygon fill="#666666" stroke="#666666" points="1939.5,-104 1939.5,-104 2058.5,-104 2058.5,-104 1939.5,-104"/>
<polygon fill="#666666" stroke="#666666" points="1939.5,-87 1939.5,-87 2058.5,-87 2058.5,-87 1939.5,-87"/>
<polygon fill="none" stroke="#666666" points="1939,-68 1939,-136 2058,-136 2058,-68 1939,-68"/>
</a>
</g>
</g>
<!-- Node1&#45;&gt;Node12 -->
<g id="edge11_Node000001_Node000012" class="edge">
<title>Node1&#45;&gt;Node12</title>
<g id="a_edge11_Node000001_Node000012"><a xlink:title=" ">
<path fill="none" stroke="#63b8ff" d="M1287.31,-273.67C1444.96,-274.02 1823.15,-267.96 1930.5,-204 1956.29,-188.64 1974.39,-159.24 1985.4,-136.11"/>
<polygon fill="none" stroke="#63b8ff" points="1287.26,-270.17 1277.25,-273.64 1287.24,-277.17 1287.26,-270.17"/>
</a>
</g>
</g>
<!-- Node13 -->
<g id="Node000013" class="node">
<title>Node13</title>
<g id="a_Node000013"><a xlink:href="class_app_1_1_http_1_1_controllers_1_1_short_url_controller.html" target="_top" xlink:title="Class ShortUrlController Handles the logic for the shortened URLs.">
<polygon fill="white" stroke="transparent" points="2195,-204 2076,-204 2076,0 2195,0 2195,-204"/>
<text text-anchor="start" x="2081.5" y="-190.4" font-family="Arial" font-size="12.00">App\Http\Controllers</text>
<text text-anchor="start" x="2086" y="-177.4" font-family="Arial" font-size="12.00">\ShortUrlController</text>
<text text-anchor="start" x="2082" y="-160.4" font-family="Arial" font-size="12.00">#</text>
<text text-anchor="start" x="2094.5" y="-160.4" font-family="Arial" font-size="12.00">$user</text>
<text text-anchor="start" x="2082" y="-143.4" font-family="Arial" font-size="12.00">+</text>
<text text-anchor="start" x="2094.5" y="-143.4" font-family="Arial" font-size="12.00">__construct()</text>
<text text-anchor="start" x="2082" y="-126.4" font-family="Arial" font-size="12.00">+</text>
<text text-anchor="start" x="2094.5" y="-126.4" font-family="Arial" font-size="12.00">index()</text>
<text text-anchor="start" x="2082" y="-109.4" font-family="Arial" font-size="12.00">+</text>
<text text-anchor="start" x="2094.5" y="-109.4" font-family="Arial" font-size="12.00">create()</text>
<text text-anchor="start" x="2082" y="-92.4" font-family="Arial" font-size="12.00">+</text>
<text text-anchor="start" x="2094.5" y="-92.4" font-family="Arial" font-size="12.00">store()</text>
<text text-anchor="start" x="2082" y="-75.4" font-family="Arial" font-size="12.00">+</text>
<text text-anchor="start" x="2094.5" y="-75.4" font-family="Arial" font-size="12.00">random()</text>
<text text-anchor="start" x="2082" y="-58.4" font-family="Arial" font-size="12.00">+</text>
<text text-anchor="start" x="2094.5" y="-58.4" font-family="Arial" font-size="12.00">edit()</text>
<text text-anchor="start" x="2082" y="-41.4" font-family="Arial" font-size="12.00">+</text>
<text text-anchor="start" x="2094.5" y="-41.4" font-family="Arial" font-size="12.00">update()</text>
<text text-anchor="start" x="2082" y="-24.4" font-family="Arial" font-size="12.00">+</text>
<text text-anchor="start" x="2094.5" y="-24.4" font-family="Arial" font-size="12.00">destroy()</text>
<text text-anchor="start" x="2082" y="-7.4" font-family="Arial" font-size="12.00">+</text>
<text text-anchor="start" x="2094.5" y="-7.4" font-family="Arial" font-size="12.00">incrementClicks()</text>
<polygon fill="#666666" stroke="#666666" points="2076.5,-172 2076.5,-172 2195.5,-172 2195.5,-172 2076.5,-172"/>
<polygon fill="#666666" stroke="#666666" points="2076.5,-155 2076.5,-155 2092.5,-155 2092.5,-155 2076.5,-155"/>
<polygon fill="#666666" stroke="#666666" points="2092.5,-155 2092.5,-155 2195.5,-155 2195.5,-155 2092.5,-155"/>
<polygon fill="none" stroke="#666666" points="2076,0 2076,-204 2195,-204 2195,0 2076,0"/>
</a>
</g>
</g>
<!-- Node1&#45;&gt;Node13 -->
<g id="edge12_Node000001_Node000013" class="edge">
<title>Node1&#45;&gt;Node13</title>
<g id="a_edge12_Node000001_Node000013"><a xlink:title=" ">
<path fill="none" stroke="#63b8ff" d="M1287.45,-270.79C1478.76,-264.25 2000.89,-243 2067.5,-204 2070.42,-202.29 2073.24,-200.4 2075.96,-198.36"/>
<polygon fill="none" stroke="#63b8ff" points="1287.1,-267.29 1277.23,-271.13 1287.34,-274.29 1287.1,-267.29"/>
</a>
</g>
</g>
</g>
</svg>
