<?xml version="1.0" encoding="UTF-8" standalone="no"?>
<!DOCTYPE svg PUBLIC "-//W3C//DTD SVG 1.1//EN"
 "http://www.w3.org/Graphics/SVG/1.1/DTD/svg11.dtd">
<!-- Generated by graphviz version 2.43.0 (0)
 -->
<!-- Title: Database\Factories\UserFactory Pages: 1 -->
<svg width="230pt" height="197pt"
 viewBox="0.00 0.00 230.00 197.00" xmlns="http://www.w3.org/2000/svg" xmlns:xlink="http://www.w3.org/1999/xlink">
<g id="graph0" class="graph" transform="scale(1 1) rotate(0) translate(4 193)">
<title>Database\Factories\UserFactory</title>
<!-- Node1 -->
<g id="Node000001" class="node">
<title>Node1</title>
<g id="a_Node000001"><a xlink:title="\Databaseloquent\Factories\Factory&lt;\App\Models\User&gt;">
<polygon fill="#999999" stroke="transparent" points="162.5,-85 47.5,-85 47.5,0 162.5,0 162.5,-85"/>
<text text-anchor="start" x="53" y="-70.9" font-family="Arial" font-size="12.00">Database\Factories</text>
<text text-anchor="start" x="71" y="-57.9" font-family="Arial" font-size="12.00">\UserFactory</text>
<text text-anchor="start" x="103.5" y="-40.9" font-family="Arial" font-size="12.00"> </text>
<text text-anchor="start" x="60.5" y="-23.9" font-family="Arial" font-size="12.00">+</text>
<text text-anchor="start" x="80" y="-23.9" font-family="Arial" font-size="12.00">definition()</text>
<text text-anchor="start" x="60.5" y="-6.9" font-family="Arial" font-size="12.00">+</text>
<text text-anchor="start" x="80" y="-6.9" font-family="Arial" font-size="12.00">unverified()</text>
<polygon fill="#666666" stroke="#666666" points="48,-52.5 48,-52.5 163,-52.5 163,-52.5 48,-52.5"/>
<polygon fill="#666666" stroke="#666666" points="48,-35.5 48,-35.5 163,-35.5 163,-35.5 48,-35.5"/>
<polygon fill="none" stroke="#666666" points="47.5,0 47.5,-85 162.5,-85 162.5,0 47.5,0"/>
</a>
</g>
</g>
<!-- Node2 -->
<g id="Node000002" class="node">
<title>Node2</title>
<g id="a_Node000002"><a xlink:href="class_illuminate.html" target="_top" xlink:title=" ">
<polygon fill="white" stroke="transparent" points="62,-189 0,-189 0,-134 62,-134 62,-189"/>
<text text-anchor="start" x="5" y="-174.9" font-family="Arial" font-size="12.00">Illuminate</text>
<text text-anchor="start" x="29" y="-157.9" font-family="Arial" font-size="12.00"> </text>
<text text-anchor="start" x="29" y="-140.9" font-family="Arial" font-size="12.00"> </text>
<polygon fill="#666666" stroke="#666666" points="0,-169.5 0,-169.5 62,-169.5 62,-169.5 0,-169.5"/>
<polygon fill="#666666" stroke="#666666" points="0,-152.5 0,-152.5 62,-152.5 62,-152.5 0,-152.5"/>
<polygon fill="none" stroke="#666666" points="0,-134 0,-189 62,-189 62,-134 0,-134"/>
</a>
</g>
</g>
<!-- Node2&#45;&gt;Node1 -->
<g id="edge1_Node000001_Node000002" class="edge">
<title>Node2&#45;&gt;Node1</title>
<g id="a_edge1_Node000001_Node000002"><a xlink:title=" ">
<path fill="none" stroke="#63b8ff" d="M53.15,-125.48C61.18,-112.78 70.34,-98.3 78.69,-85.09"/>
<polygon fill="none" stroke="#63b8ff" points="50.18,-123.63 47.79,-133.95 56.1,-127.37 50.18,-123.63"/>
</a>
</g>
</g>
<!-- Node3 -->
<g id="Node000003" class="node">
<title>Node3</title>
<g id="a_Node000003"><a xlink:title=" ">
<polygon fill="white" stroke="transparent" points="130,-189 80,-189 80,-134 130,-134 130,-189"/>
<text text-anchor="start" x="85" y="-174.9" font-family="Arial" font-size="12.00">Factory</text>
<text text-anchor="start" x="103" y="-157.9" font-family="Arial" font-size="12.00"> </text>
<text text-anchor="start" x="103" y="-140.9" font-family="Arial" font-size="12.00"> </text>
<polygon fill="#666666" stroke="#666666" points="80,-169.5 80,-169.5 130,-169.5 130,-169.5 80,-169.5"/>
<polygon fill="#666666" stroke="#666666" points="80,-152.5 80,-152.5 130,-152.5 130,-152.5 80,-152.5"/>
<polygon fill="none" stroke="#666666" points="80,-134 80,-189 130,-189 130,-134 80,-134"/>
</a>
</g>
</g>
<!-- Node3&#45;&gt;Node1 -->
<g id="edge2_Node000001_Node000003" class="edge">
<title>Node3&#45;&gt;Node1</title>
<g id="a_edge2_Node000001_Node000003"><a xlink:title=" ">
<path fill="none" stroke="#63b8ff" d="M105,-123.63C105,-111.39 105,-97.67 105,-85.09"/>
<polygon fill="none" stroke="#63b8ff" points="101.5,-123.95 105,-133.95 108.5,-123.95 101.5,-123.95"/>
</a>
</g>
</g>
<!-- Node4 -->
<g id="Node000004" class="node">
<title>Node4</title>
<g id="a_Node000004"><a xlink:title=" ">
<polygon fill="white" stroke="transparent" points="219.5,-189 148.5,-189 148.5,-134 219.5,-134 219.5,-189"/>
<text text-anchor="start" x="154" y="-174.9" font-family="Arial" font-size="12.00">static string</text>
<text text-anchor="start" x="182.5" y="-157.9" font-family="Arial" font-size="12.00"> </text>
<text text-anchor="start" x="182.5" y="-140.9" font-family="Arial" font-size="12.00"> </text>
<polygon fill="#666666" stroke="#666666" points="149,-169.5 149,-169.5 220,-169.5 220,-169.5 149,-169.5"/>
<polygon fill="#666666" stroke="#666666" points="149,-152.5 149,-152.5 220,-152.5 220,-152.5 149,-152.5"/>
<polygon fill="none" stroke="#666666" points="148.5,-134 148.5,-189 219.5,-189 219.5,-134 148.5,-134"/>
</a>
</g>
</g>
<!-- Node4&#45;&gt;Node1 -->
<g id="edge3_Node000001_Node000004" class="edge">
<title>Node4&#45;&gt;Node1</title>
<g id="a_edge3_Node000001_Node000004"><a xlink:title=" ">
<path fill="none" stroke="#63b8ff" d="M166.07,-133.95C158.31,-122.45 148.94,-108.58 139.9,-95.19"/>
<polygon fill="none" stroke="#63b8ff" points="139.8,-95.04 133.13,-92.3 133.08,-85.09 139.76,-87.83 139.8,-95.04"/>
</a>
</g>
<text text-anchor="middle" x="187.5" y="-106.4" font-family="Arial" font-size="12.00" fill="grey"> #$password</text>
</g>
</g>
</svg>
