<?xml version="1.0" encoding="UTF-8" standalone="no"?>
<!DOCTYPE svg PUBLIC "-//W3C//DTD SVG 1.1//EN"
 "http://www.w3.org/Graphics/SVG/1.1/DTD/svg11.dtd">
<!-- Generated by graphviz version 2.43.0 (0)
 -->
<!-- Title: Graphe hiérarchique des classes Pages: 1 -->
<svg width="233pt" height="94pt"
 viewBox="0.00 0.00 233.00 94.00" xmlns="http://www.w3.org/2000/svg" xmlns:xlink="http://www.w3.org/1999/xlink">
<g id="graph0" class="graph" transform="scale(1 1) rotate(0) translate(4 90)">
<title>Graphe hiérarchique des classes</title>
<!-- Node0 -->
<g id="Node000000" class="node">
<title>Node0</title>
<g id="a_Node000000"><a xlink:href="class_illuminate.html" target="_top" xlink:title=" ">
<polygon fill="white" stroke="#666666" points="68,-75.5 0,-75.5 0,-54.5 68,-54.5 68,-75.5"/>
<text text-anchor="middle" x="34" y="-61.9" font-family="Arial" font-size="12.00">Illuminate</text>
</a>
</g>
</g>
<!-- Node1 -->
<g id="Node000001" class="node">
<title>Node1</title>
<g id="a_Node000001"><a xlink:href="class_database_1_1_factories_1_1_short_url_factory.html" target="_top" xlink:title="Factory for generating ShortUrl instances.">
<polygon fill="white" stroke="#666666" points="225,-86 104,-86 104,-52 225,-52 225,-86"/>
<text text-anchor="start" x="112" y="-72.4" font-family="Arial" font-size="12.00">Database\Factories</text>
<text text-anchor="middle" x="164.5" y="-59.4" font-family="Arial" font-size="12.00">\ShortUrlFactory</text>
</a>
</g>
</g>
<!-- Node0&#45;&gt;Node1 -->
<g id="edge31_Node000000_Node000001" class="edge">
<title>Node0&#45;&gt;Node1</title>
<g id="a_edge31_Node000000_Node000001"><a xlink:title=" ">
<path fill="none" stroke="#63b8ff" d="M78.2,-66.34C86.44,-66.6 95.19,-66.87 103.84,-67.14"/>
<polygon fill="#63b8ff" stroke="#63b8ff" points="78.2,-62.84 68.09,-66.03 77.98,-69.84 78.2,-62.84"/>
</a>
</g>
</g>
<!-- Node3 -->
<g id="Node000003" class="node">
<title>Node3</title>
<g id="a_Node000003"><a xlink:href="class_database_1_1_factories_1_1_user_factory.html" target="_top" xlink:title="\Databaseloquent\Factories\Factory&lt;\App\Models\User&gt;">
<polygon fill="white" stroke="#666666" points="225,-34 104,-34 104,0 225,0 225,-34"/>
<text text-anchor="start" x="112" y="-20.4" font-family="Arial" font-size="12.00">Database\Factories</text>
<text text-anchor="middle" x="164.5" y="-7.4" font-family="Arial" font-size="12.00">\UserFactory</text>
</a>
</g>
</g>
<!-- Node0&#45;&gt;Node3 -->
<g id="edge32_Node000000_Node000003" class="edge">
<title>Node0&#45;&gt;Node3</title>
<g id="a_edge32_Node000000_Node000003"><a xlink:title=" ">
<path fill="none" stroke="#63b8ff" d="M72.64,-50.94C86.83,-45.64 103.11,-39.56 117.94,-34.02"/>
<polygon fill="#63b8ff" stroke="#63b8ff" points="71.34,-47.69 63.2,-54.47 73.79,-54.25 71.34,-47.69"/>
</a>
</g>
</g>
<!-- Node2 -->
<g id="Node000002" class="node">
<title>Node2</title>
<g id="a_Node000002"><a xlink:title=" ">
<polygon fill="#e0e0e0" stroke="#999999" points="62,-33.5 6,-33.5 6,-12.5 62,-12.5 62,-33.5"/>
<text text-anchor="middle" x="34" y="-19.9" font-family="Arial" font-size="12.00">Factory</text>
</a>
</g>
</g>
<!-- Node2&#45;&gt;Node1 -->
<g id="edge33_Node000002_Node000001" class="edge">
<title>Node2&#45;&gt;Node1</title>
<g id="a_edge33_Node000002_Node000001"><a xlink:title=" ">
<path fill="none" stroke="#63b8ff" d="M71.81,-36.18C85.51,-41.08 101.25,-46.72 115.78,-51.92"/>
<polygon fill="#63b8ff" stroke="#63b8ff" points="72.85,-32.83 62.25,-32.76 70.49,-39.42 72.85,-32.83"/>
</a>
</g>
</g>
<!-- Node2&#45;&gt;Node3 -->
<g id="edge34_Node000002_Node000003" class="edge">
<title>Node2&#45;&gt;Node3</title>
<g id="a_edge34_Node000002_Node000003"><a xlink:title=" ">
<path fill="none" stroke="#63b8ff" d="M72.45,-21.25C82.27,-20.79 93.1,-20.29 103.77,-19.79"/>
<polygon fill="#63b8ff" stroke="#63b8ff" points="72.08,-17.76 62.25,-21.73 72.4,-24.76 72.08,-17.76"/>
</a>
</g>
</g>
</g>
</svg>
