<?xml version="1.0" encoding="UTF-8" standalone="no"?>
<!DOCTYPE svg PUBLIC "-//W3C//DTD SVG 1.1//EN"
 "http://www.w3.org/Graphics/SVG/1.1/DTD/svg11.dtd">
<!-- Generated by graphviz version 2.43.0 (0)
 -->
<!-- Title: Graphe hiérarchique des classes Pages: 1 -->
<svg width="315pt" height="146pt"
 viewBox="0.00 0.00 315.00 146.00" xmlns="http://www.w3.org/2000/svg" xmlns:xlink="http://www.w3.org/1999/xlink">
<g id="graph0" class="graph" transform="scale(1 1) rotate(0) translate(4 142)">
<title>Graphe hiérarchique des classes</title>
<!-- Node0 -->
<g id="Node000000" class="node">
<title>Node0</title>
<g id="a_Node000000"><a xlink:title=" ">
<polygon fill="#e0e0e0" stroke="#999999" points="102,-79.5 0,-79.5 0,-58.5 102,-58.5 102,-79.5"/>
<text text-anchor="middle" x="51" y="-65.9" font-family="Arial" font-size="12.00">ServiceProvider</text>
</a>
</g>
</g>
<!-- Node1 -->
<g id="Node000001" class="node">
<title>Node1</title>
<g id="a_Node000001"><a xlink:href="class_app_1_1_providers_1_1_app_service_provider.html" target="_top" xlink:title=" ">
<polygon fill="white" stroke="#666666" points="301.5,-138 143.5,-138 143.5,-104 301.5,-104 301.5,-138"/>
<text text-anchor="start" x="151.5" y="-124.4" font-family="Arial" font-size="12.00">App\Providers\AppService</text>
<text text-anchor="middle" x="222.5" y="-111.4" font-family="Arial" font-size="12.00">Provider</text>
</a>
</g>
</g>
<!-- Node0&#45;&gt;Node1 -->
<g id="edge41_Node000000_Node000001" class="edge">
<title>Node0&#45;&gt;Node1</title>
<g id="a_edge41_Node000000_Node000001"><a xlink:title=" ">
<path fill="none" stroke="#63b8ff" d="M96.06,-82.52C117.39,-89.06 143.23,-96.99 165.9,-103.94"/>
<polygon fill="#63b8ff" stroke="#63b8ff" points="96.89,-79.11 86.3,-79.52 94.83,-85.8 96.89,-79.11"/>
</a>
</g>
</g>
<!-- Node2 -->
<g id="Node000002" class="node">
<title>Node2</title>
<g id="a_Node000002"><a xlink:href="class_app_1_1_providers_1_1_auth_service_provider.html" target="_top" xlink:title=" ">
<polygon fill="white" stroke="#666666" points="303,-86 142,-86 142,-52 303,-52 303,-86"/>
<text text-anchor="start" x="150" y="-72.4" font-family="Arial" font-size="12.00">App\Providers\AuthService</text>
<text text-anchor="middle" x="222.5" y="-59.4" font-family="Arial" font-size="12.00">Provider</text>
</a>
</g>
</g>
<!-- Node0&#45;&gt;Node2 -->
<g id="edge42_Node000000_Node000002" class="edge">
<title>Node0&#45;&gt;Node2</title>
<g id="a_edge42_Node000000_Node000002"><a xlink:title=" ">
<path fill="none" stroke="#63b8ff" d="M112.5,-69C121.99,-69 131.92,-69 141.77,-69"/>
<polygon fill="#63b8ff" stroke="#63b8ff" points="112.4,-65.5 102.4,-69 112.4,-72.5 112.4,-65.5"/>
</a>
</g>
</g>
<!-- Node3 -->
<g id="Node000003" class="node">
<title>Node3</title>
<g id="a_Node000003"><a xlink:href="class_app_1_1_providers_1_1_fortify_service_provider.html" target="_top" xlink:title=" ">
<polygon fill="white" stroke="#666666" points="307,-34 138,-34 138,0 307,0 307,-34"/>
<text text-anchor="start" x="146" y="-20.4" font-family="Arial" font-size="12.00">App\Providers\FortifyService</text>
<text text-anchor="middle" x="222.5" y="-7.4" font-family="Arial" font-size="12.00">Provider</text>
</a>
</g>
</g>
<!-- Node0&#45;&gt;Node3 -->
<g id="edge43_Node000000_Node000003" class="edge">
<title>Node0&#45;&gt;Node3</title>
<g id="a_edge43_Node000000_Node000003"><a xlink:title=" ">
<path fill="none" stroke="#63b8ff" d="M96.06,-55.48C117.39,-48.94 143.23,-41.01 165.9,-34.06"/>
<polygon fill="#63b8ff" stroke="#63b8ff" points="94.83,-52.2 86.3,-58.48 96.89,-58.89 94.83,-52.2"/>
</a>
</g>
</g>
</g>
</svg>
