<?xml version="1.0" encoding="UTF-8" standalone="no"?>
<!DOCTYPE svg PUBLIC "-//W3C//DTD SVG 1.1//EN"
 "http://www.w3.org/Graphics/SVG/1.1/DTD/svg11.dtd">
<!-- Generated by graphviz version 2.43.0 (0)
 -->
<!-- Title: Graphe hiérarchique des classes Pages: 1 -->
<svg width="284pt" height="186pt"
 viewBox="0.00 0.00 284.00 185.50" xmlns="http://www.w3.org/2000/svg" xmlns:xlink="http://www.w3.org/1999/xlink">
<g id="graph0" class="graph" transform="scale(1 1) rotate(0) translate(4 181.5)">
<title>Graphe hiérarchique des classes</title>
<!-- Node0 -->
<g id="Node000000" class="node">
<title>Node0</title>
<g id="a_Node000000"><a xlink:title=" ">
<polygon fill="#e0e0e0" stroke="#999999" points="56,-93 0,-93 0,-72 56,-72 56,-93"/>
<text text-anchor="middle" x="28" y="-79.4" font-family="Arial" font-size="12.00">Seeder</text>
</a>
</g>
</g>
<!-- Node1 -->
<g id="Node000001" class="node">
<title>Node1</title>
<g id="a_Node000001"><a xlink:href="class_database_1_1_seeders_1_1_database_seeder.html" target="_top" xlink:title=" ">
<polygon fill="white" stroke="#666666" points="269.5,-177.5 98.5,-177.5 98.5,-143.5 269.5,-143.5 269.5,-177.5"/>
<text text-anchor="start" x="106.5" y="-163.9" font-family="Arial" font-size="12.00">Database\Seeders\Database</text>
<text text-anchor="middle" x="184" y="-150.9" font-family="Arial" font-size="12.00">Seeder</text>
</a>
</g>
</g>
<!-- Node0&#45;&gt;Node1 -->
<g id="edge37_Node000000_Node000001" class="edge">
<title>Node0&#45;&gt;Node1</title>
<g id="a_edge37_Node000000_Node000001"><a xlink:title=" ">
<path fill="none" stroke="#63b8ff" d="M46.59,-100.43C58.49,-111.64 75.07,-125.6 92,-134.5 98.4,-137.87 105.29,-140.84 112.3,-143.46"/>
<polygon fill="#63b8ff" stroke="#63b8ff" points="48.77,-97.66 39.16,-93.2 43.89,-102.68 48.77,-97.66"/>
</a>
</g>
</g>
<!-- Node2 -->
<g id="Node000002" class="node">
<title>Node2</title>
<g id="a_Node000002"><a xlink:href="class_database_1_1_seeders_1_1_demo_data_seeder.html" target="_top" xlink:title="Seeder for creating demo data.">
<polygon fill="white" stroke="#666666" points="272.5,-125.5 95.5,-125.5 95.5,-91.5 272.5,-91.5 272.5,-125.5"/>
<text text-anchor="start" x="103.5" y="-111.9" font-family="Arial" font-size="12.00">Database\Seeders\DemoData</text>
<text text-anchor="middle" x="184" y="-98.9" font-family="Arial" font-size="12.00">Seeder</text>
</a>
</g>
</g>
<!-- Node0&#45;&gt;Node2 -->
<g id="edge38_Node000000_Node000002" class="edge">
<title>Node0&#45;&gt;Node2</title>
<g id="a_edge38_Node000000_Node000002"><a xlink:title=" ">
<path fill="none" stroke="#63b8ff" d="M66.19,-88.78C75.15,-90.29 85.1,-91.97 95.3,-93.69"/>
<polygon fill="#63b8ff" stroke="#63b8ff" points="66.62,-85.3 56.18,-87.09 65.46,-92.2 66.62,-85.3"/>
</a>
</g>
</g>
<!-- Node3 -->
<g id="Node000003" class="node">
<title>Node3</title>
<g id="a_Node000003"><a xlink:href="class_database_1_1_seeders_1_1_short_url_seeder.html" target="_top" xlink:title="This class is responsible for seeding the database with short URLs.">
<polygon fill="white" stroke="#666666" points="266,-73.5 102,-73.5 102,-39.5 266,-39.5 266,-73.5"/>
<text text-anchor="start" x="110" y="-59.9" font-family="Arial" font-size="12.00">Database\Seeders\ShortUrl</text>
<text text-anchor="middle" x="184" y="-46.9" font-family="Arial" font-size="12.00">Seeder</text>
</a>
</g>
</g>
<!-- Node0&#45;&gt;Node3 -->
<g id="edge39_Node000000_Node000003" class="edge">
<title>Node0&#45;&gt;Node3</title>
<g id="a_edge39_Node000000_Node000003"><a xlink:title=" ">
<path fill="none" stroke="#63b8ff" d="M66.12,-76.23C77.01,-74.39 89.37,-72.31 101.88,-70.2"/>
<polygon fill="#63b8ff" stroke="#63b8ff" points="65.46,-72.8 56.18,-77.91 66.62,-79.7 65.46,-72.8"/>
</a>
</g>
</g>
<!-- Node4 -->
<g id="Node000004" class="node">
<title>Node4</title>
<g id="a_Node000004"><a xlink:href="class_database_1_1_seeders_1_1_user_seeder.html" target="_top" xlink:title=" ">
<polygon fill="white" stroke="#666666" points="276,-21 92,-21 92,0 276,0 276,-21"/>
<text text-anchor="middle" x="184" y="-7.4" font-family="Arial" font-size="12.00">Database\Seeders\UserSeeder</text>
</a>
</g>
</g>
<!-- Node0&#45;&gt;Node4 -->
<g id="edge40_Node000000_Node000004" class="edge">
<title>Node0&#45;&gt;Node4</title>
<g id="a_edge40_Node000000_Node000004"><a xlink:title=" ">
<path fill="none" stroke="#63b8ff" d="M45.99,-64.63C57.84,-53.2 74.6,-38.98 92,-30.5 99.85,-26.68 108.44,-23.57 117.11,-21.06"/>
<polygon fill="#63b8ff" stroke="#63b8ff" points="43.22,-62.44 38.62,-71.99 48.17,-67.4 43.22,-62.44"/>
</a>
</g>
</g>
</g>
</svg>
