<?xml version="1.0" encoding="UTF-8" standalone="no"?>
<!DOCTYPE svg PUBLIC "-//W3C//DTD SVG 1.1//EN"
 "http://www.w3.org/Graphics/SVG/1.1/DTD/svg11.dtd">
<!-- Generated by graphviz version 2.43.0 (0)
 -->
<!-- Title: Graphe hiérarchique des classes Pages: 1 -->
<svg width="288pt" height="94pt"
 viewBox="0.00 0.00 288.00 94.00" xmlns="http://www.w3.org/2000/svg" xmlns:xlink="http://www.w3.org/1999/xlink">
<g id="graph0" class="graph" transform="scale(1 1) rotate(0) translate(4 90)">
<title>Graphe hiérarchique des classes</title>
<!-- Node0 -->
<g id="Node000000" class="node">
<title>Node0</title>
<g id="a_Node000000"><a xlink:title=" ">
<polygon fill="#e0e0e0" stroke="#999999" points="89,-53.5 0,-53.5 0,-32.5 89,-32.5 89,-53.5"/>
<text text-anchor="middle" x="44.5" y="-39.9" font-family="Arial" font-size="12.00">FormRequest</text>
</a>
</g>
</g>
<!-- Node1 -->
<g id="Node000001" class="node">
<title>Node1</title>
<g id="a_Node000001"><a xlink:href="class_app_1_1_http_1_1_requests_1_1_auth_1_1_login_request.html" target="_top" xlink:title=" ">
<polygon fill="white" stroke="#666666" points="275,-86 130,-86 130,-52 275,-52 275,-86"/>
<text text-anchor="start" x="138" y="-72.4" font-family="Arial" font-size="12.00">App\Http\Requests\Auth</text>
<text text-anchor="middle" x="202.5" y="-59.4" font-family="Arial" font-size="12.00">\LoginRequest</text>
</a>
</g>
</g>
<!-- Node0&#45;&gt;Node1 -->
<g id="edge29_Node000000_Node000001" class="edge">
<title>Node0&#45;&gt;Node1</title>
<g id="a_edge29_Node000000_Node000001"><a xlink:title=" ">
<path fill="none" stroke="#63b8ff" d="M99.39,-51.98C109.24,-53.62 119.65,-55.36 129.92,-57.07"/>
<polygon fill="#63b8ff" stroke="#63b8ff" points="99.81,-48.5 89.37,-50.31 98.66,-55.41 99.81,-48.5"/>
</a>
</g>
</g>
<!-- Node2 -->
<g id="Node000002" class="node">
<title>Node2</title>
<g id="a_Node000002"><a xlink:href="class_app_1_1_http_1_1_requests_1_1_profile_update_request.html" target="_top" xlink:title=" ">
<polygon fill="white" stroke="#666666" points="280,-34 125,-34 125,0 280,0 280,-34"/>
<text text-anchor="start" x="133" y="-20.4" font-family="Arial" font-size="12.00">App\Http\Requests\Profile</text>
<text text-anchor="middle" x="202.5" y="-7.4" font-family="Arial" font-size="12.00">UpdateRequest</text>
</a>
</g>
</g>
<!-- Node0&#45;&gt;Node2 -->
<g id="edge30_Node000000_Node000002" class="edge">
<title>Node0&#45;&gt;Node2</title>
<g id="a_edge30_Node000000_Node000002"><a xlink:title=" ">
<path fill="none" stroke="#63b8ff" d="M99.24,-34.04C107.52,-32.66 116.21,-31.22 124.87,-29.77"/>
<polygon fill="#63b8ff" stroke="#63b8ff" points="98.66,-30.59 89.37,-35.69 99.81,-37.5 98.66,-30.59"/>
</a>
</g>
</g>
</g>
</svg>
