<?xml version="1.0" encoding="UTF-8" standalone="no"?>
<!DOCTYPE svg PUBLIC "-//W3C//DTD SVG 1.1//EN"
 "http://www.w3.org/Graphics/SVG/1.1/DTD/svg11.dtd">
<!-- Generated by graphviz version 2.43.0 (0)
 -->
<!-- Title: Graphe hiérarchique des classes Pages: 1 -->
<svg width="262pt" height="94pt"
 viewBox="0.00 0.00 262.00 94.00" xmlns="http://www.w3.org/2000/svg" xmlns:xlink="http://www.w3.org/1999/xlink">
<g id="graph0" class="graph" transform="scale(1 1) rotate(0) translate(4 90)">
<title>Graphe hiérarchique des classes</title>
<!-- Node0 -->
<g id="Node000000" class="node">
<title>Node0</title>
<g id="a_Node000000"><a xlink:title=" ">
<polygon fill="#e0e0e0" stroke="#999999" points="79,-53.5 0,-53.5 0,-32.5 79,-32.5 79,-53.5"/>
<text text-anchor="middle" x="39.5" y="-39.9" font-family="Arial" font-size="12.00">Component</text>
</a>
</g>
</g>
<!-- Node1 -->
<g id="Node000001" class="node">
<title>Node1</title>
<g id="a_Node000001"><a xlink:href="class_app_1_1_view_1_1_components_1_1_app_layout.html" target="_top" xlink:title=" ">
<polygon fill="white" stroke="#666666" points="254,-86 115,-86 115,-52 254,-52 254,-86"/>
<text text-anchor="start" x="123" y="-72.4" font-family="Arial" font-size="12.00">App\View\Components</text>
<text text-anchor="middle" x="184.5" y="-59.4" font-family="Arial" font-size="12.00">\AppLayout</text>
</a>
</g>
</g>
<!-- Node0&#45;&gt;Node1 -->
<g id="edge26_Node000000_Node000001" class="edge">
<title>Node0&#45;&gt;Node1</title>
<g id="a_edge26_Node000000_Node000001"><a xlink:title=" ">
<path fill="none" stroke="#63b8ff" d="M89.31,-51.87C97.51,-53.36 106.15,-54.94 114.74,-56.5"/>
<polygon fill="#63b8ff" stroke="#63b8ff" points="89.66,-48.38 79.2,-50.04 88.41,-55.27 89.66,-48.38"/>
</a>
</g>
</g>
<!-- Node2 -->
<g id="Node000002" class="node">
<title>Node2</title>
<g id="a_Node000002"><a xlink:href="class_app_1_1_view_1_1_components_1_1_guest_layout.html" target="_top" xlink:title=" ">
<polygon fill="white" stroke="#666666" points="254,-34 115,-34 115,0 254,0 254,-34"/>
<text text-anchor="start" x="123" y="-20.4" font-family="Arial" font-size="12.00">App\View\Components</text>
<text text-anchor="middle" x="184.5" y="-7.4" font-family="Arial" font-size="12.00">\GuestLayout</text>
</a>
</g>
</g>
<!-- Node0&#45;&gt;Node2 -->
<g id="edge27_Node000000_Node000002" class="edge">
<title>Node0&#45;&gt;Node2</title>
<g id="a_edge27_Node000000_Node000002"><a xlink:title=" ">
<path fill="none" stroke="#63b8ff" d="M89.31,-34.13C97.51,-32.64 106.15,-31.06 114.74,-29.5"/>
<polygon fill="#63b8ff" stroke="#63b8ff" points="88.41,-30.73 79.2,-35.96 89.66,-37.62 88.41,-30.73"/>
</a>
</g>
</g>
</g>
</svg>
