<?xml version="1.0" encoding="UTF-8" standalone="no"?>
<!DOCTYPE svg PUBLIC "-//W3C//DTD SVG 1.1//EN"
 "http://www.w3.org/Graphics/SVG/1.1/DTD/svg11.dtd">
<!-- Generated by graphviz version 2.43.0 (0)
 -->
<!-- Title: Graphe hiérarchique des classes Pages: 1 -->
<svg width="387pt" height="641pt"
 viewBox="0.00 0.00 387.00 641.00" xmlns="http://www.w3.org/2000/svg" xmlns:xlink="http://www.w3.org/1999/xlink">
<g id="graph0" class="graph" transform="scale(1 1) rotate(0) translate(4 637)">
<title>Graphe hiérarchique des classes</title>
<!-- Node0 -->
<g id="Node000000" class="node">
<title>Node0</title>
<g id="a_Node000000"><a xlink:href="class_app_1_1_http_1_1_controllers_1_1_controller.html" target="_top" xlink:title=" ">
<polygon fill="white" stroke="#666666" points="125,-320 0,-320 0,-286 125,-286 125,-320"/>
<text text-anchor="start" x="8" y="-306.4" font-family="Arial" font-size="12.00">App\Http\Controllers</text>
<text text-anchor="middle" x="62.5" y="-293.4" font-family="Arial" font-size="12.00">\Controller</text>
</a>
</g>
</g>
<!-- Node1 -->
<g id="Node000001" class="node">
<title>Node1</title>
<g id="a_Node000001"><a xlink:href="class_app_1_1_http_1_1_controllers_1_1_auth_1_1_authenticated_session_controller.html" target="_top" xlink:title=" ">
<polygon fill="white" stroke="#666666" points="378.5,-633 161.5,-633 161.5,-599 378.5,-599 378.5,-633"/>
<text text-anchor="start" x="169.5" y="-619.4" font-family="Arial" font-size="12.00">App\Http\Controllers</text>
<text text-anchor="middle" x="270" y="-606.4" font-family="Arial" font-size="12.00">\Auth\AuthenticatedSessionController</text>
</a>
</g>
</g>
<!-- Node0&#45;&gt;Node1 -->
<g id="edge1_Node000000_Node000001" class="edge">
<title>Node0&#45;&gt;Node1</title>
<g id="a_edge1_Node000000_Node000001"><a xlink:title=" ">
<path fill="none" stroke="#63b8ff" d="M64.43,-330.32C67.92,-387.45 84.32,-520.01 161,-590 164.7,-593.38 168.77,-596.34 173.08,-598.94"/>
<polygon fill="#63b8ff" stroke="#63b8ff" points="67.92,-330.06 63.91,-320.25 60.93,-330.42 67.92,-330.06"/>
</a>
</g>
</g>
<!-- Node2 -->
<g id="Node000002" class="node">
<title>Node2</title>
<g id="a_Node000002"><a xlink:href="class_app_1_1_http_1_1_controllers_1_1_auth_1_1_confirmable_password_controller.html" target="_top" xlink:title=" ">
<polygon fill="white" stroke="#666666" points="379,-581 161,-581 161,-547 379,-547 379,-581"/>
<text text-anchor="start" x="169" y="-567.4" font-family="Arial" font-size="12.00">App\Http\Controllers</text>
<text text-anchor="middle" x="270" y="-554.4" font-family="Arial" font-size="12.00">\Auth\ConfirmablePasswordController</text>
</a>
</g>
</g>
<!-- Node0&#45;&gt;Node2 -->
<g id="edge2_Node000000_Node000002" class="edge">
<title>Node0&#45;&gt;Node2</title>
<g id="a_edge2_Node000000_Node000002"><a xlink:title=" ">
<path fill="none" stroke="#63b8ff" d="M66.76,-330.17C74.15,-379.38 96.85,-483.21 161,-538 164.96,-541.38 169.29,-544.34 173.86,-546.92"/>
<polygon fill="#63b8ff" stroke="#63b8ff" points="70.22,-329.68 65.37,-320.26 63.29,-330.65 70.22,-329.68"/>
</a>
</g>
</g>
<!-- Node3 -->
<g id="Node000003" class="node">
<title>Node3</title>
<g id="a_Node000003"><a xlink:href="class_app_1_1_http_1_1_controllers_1_1_auth_1_1_email_verification_notification_controller.html" target="_top" xlink:title=" ">
<polygon fill="white" stroke="#666666" points="368.5,-528.5 171.5,-528.5 171.5,-481.5 368.5,-481.5 368.5,-528.5"/>
<text text-anchor="start" x="179.5" y="-514.9" font-family="Arial" font-size="12.00">App\Http\Controllers</text>
<text text-anchor="start" x="179.5" y="-501.9" font-family="Arial" font-size="12.00">\Auth\EmailVerificationNotification</text>
<text text-anchor="middle" x="270" y="-488.9" font-family="Arial" font-size="12.00">Controller</text>
</a>
</g>
</g>
<!-- Node0&#45;&gt;Node3 -->
<g id="edge3_Node000000_Node000003" class="edge">
<title>Node0&#45;&gt;Node3</title>
<g id="a_edge3_Node000000_Node000003"><a xlink:title=" ">
<path fill="none" stroke="#63b8ff" d="M71.76,-329.82C84.69,-367.39 113.31,-435.29 161,-473 164.91,-476.09 169.12,-478.89 173.51,-481.41"/>
<polygon fill="#63b8ff" stroke="#63b8ff" points="74.99,-328.47 68.52,-320.08 68.35,-330.68 74.99,-328.47"/>
</a>
</g>
</g>
<!-- Node4 -->
<g id="Node000004" class="node">
<title>Node4</title>
<g id="a_Node000004"><a xlink:href="class_app_1_1_http_1_1_controllers_1_1_auth_1_1_email_verification_prompt_controller.html" target="_top" xlink:title=" ">
<polygon fill="white" stroke="#666666" points="358,-463.5 182,-463.5 182,-416.5 358,-416.5 358,-463.5"/>
<text text-anchor="start" x="190" y="-449.9" font-family="Arial" font-size="12.00">App\Http\Controllers</text>
<text text-anchor="start" x="190" y="-436.9" font-family="Arial" font-size="12.00">\Auth\EmailVerificationPrompt</text>
<text text-anchor="middle" x="270" y="-423.9" font-family="Arial" font-size="12.00">Controller</text>
</a>
</g>
</g>
<!-- Node0&#45;&gt;Node4 -->
<g id="edge4_Node000000_Node000004" class="edge">
<title>Node0&#45;&gt;Node4</title>
<g id="a_edge4_Node000000_Node000004"><a xlink:title=" ">
<path fill="none" stroke="#63b8ff" d="M81.25,-328.53C98.91,-352.1 128.07,-386.49 161,-407 167.49,-411.04 174.51,-414.62 181.75,-417.78"/>
<polygon fill="#63b8ff" stroke="#63b8ff" points="84.01,-326.37 75.28,-320.37 78.37,-330.51 84.01,-326.37"/>
</a>
</g>
</g>
<!-- Node5 -->
<g id="Node000005" class="node">
<title>Node5</title>
<g id="a_Node000005"><a xlink:href="class_app_1_1_http_1_1_controllers_1_1_auth_1_1_new_password_controller.html" target="_top" xlink:title=" ">
<polygon fill="white" stroke="#666666" points="359,-398 181,-398 181,-364 359,-364 359,-398"/>
<text text-anchor="start" x="189" y="-384.4" font-family="Arial" font-size="12.00">App\Http\Controllers</text>
<text text-anchor="middle" x="270" y="-371.4" font-family="Arial" font-size="12.00">\Auth\NewPasswordController</text>
</a>
</g>
</g>
<!-- Node0&#45;&gt;Node5 -->
<g id="edge5_Node000000_Node000005" class="edge">
<title>Node0&#45;&gt;Node5</title>
<g id="a_edge5_Node000000_Node000005"><a xlink:title=" ">
<path fill="none" stroke="#63b8ff" d="M100.12,-325.38C117.98,-335.55 140.08,-347.05 161,-355 169.74,-358.32 179.05,-361.32 188.39,-363.99"/>
<polygon fill="#63b8ff" stroke="#63b8ff" points="101.6,-322.19 91.19,-320.21 98.09,-328.25 101.6,-322.19"/>
</a>
</g>
</g>
<!-- Node6 -->
<g id="Node000006" class="node">
<title>Node6</title>
<g id="a_Node000006"><a xlink:href="class_app_1_1_http_1_1_controllers_1_1_auth_1_1_password_controller.html" target="_top" xlink:title=" ">
<polygon fill="white" stroke="#666666" points="346.5,-346 193.5,-346 193.5,-312 346.5,-312 346.5,-346"/>
<text text-anchor="start" x="201.5" y="-332.4" font-family="Arial" font-size="12.00">App\Http\Controllers</text>
<text text-anchor="middle" x="270" y="-319.4" font-family="Arial" font-size="12.00">\Auth\PasswordController</text>
</a>
</g>
</g>
<!-- Node0&#45;&gt;Node6 -->
<g id="edge6_Node000000_Node000006" class="edge">
<title>Node0&#45;&gt;Node6</title>
<g id="a_edge6_Node000000_Node000006"><a xlink:title=" ">
<path fill="none" stroke="#63b8ff" d="M135.12,-312.06C153.9,-314.44 174.21,-317.01 193.21,-319.41"/>
<polygon fill="#63b8ff" stroke="#63b8ff" points="135.52,-308.58 125.16,-310.8 134.64,-315.53 135.52,-308.58"/>
</a>
</g>
</g>
<!-- Node7 -->
<g id="Node000007" class="node">
<title>Node7</title>
<g id="a_Node000007"><a xlink:href="class_app_1_1_http_1_1_controllers_1_1_auth_1_1_password_reset_link_controller.html" target="_top" xlink:title=" ">
<polygon fill="white" stroke="#666666" points="373.5,-294 166.5,-294 166.5,-260 373.5,-260 373.5,-294"/>
<text text-anchor="start" x="174.5" y="-280.4" font-family="Arial" font-size="12.00">App\Http\Controllers</text>
<text text-anchor="middle" x="270" y="-267.4" font-family="Arial" font-size="12.00">\Auth\PasswordResetLinkController</text>
</a>
</g>
</g>
<!-- Node0&#45;&gt;Node7 -->
<g id="edge7_Node000000_Node000007" class="edge">
<title>Node0&#45;&gt;Node7</title>
<g id="a_edge7_Node000000_Node000007"><a xlink:title=" ">
<path fill="none" stroke="#63b8ff" d="M135.09,-293.94C145.19,-292.66 155.73,-291.33 166.27,-290"/>
<polygon fill="#63b8ff" stroke="#63b8ff" points="134.64,-290.47 125.16,-295.2 135.52,-297.42 134.64,-290.47"/>
</a>
</g>
</g>
<!-- Node8 -->
<g id="Node000008" class="node">
<title>Node8</title>
<g id="a_Node000008"><a xlink:href="class_app_1_1_http_1_1_controllers_1_1_auth_1_1_registered_user_controller.html" target="_top" xlink:title=" ">
<polygon fill="white" stroke="#666666" points="362,-242 178,-242 178,-208 362,-208 362,-242"/>
<text text-anchor="start" x="186" y="-228.4" font-family="Arial" font-size="12.00">App\Http\Controllers</text>
<text text-anchor="middle" x="270" y="-215.4" font-family="Arial" font-size="12.00">\Auth\RegisteredUserController</text>
</a>
</g>
</g>
<!-- Node0&#45;&gt;Node8 -->
<g id="edge8_Node000000_Node000008" class="edge">
<title>Node0&#45;&gt;Node8</title>
<g id="a_edge8_Node000000_Node000008"><a xlink:title=" ">
<path fill="none" stroke="#63b8ff" d="M100.12,-280.62C117.98,-270.45 140.08,-258.95 161,-251 169.74,-247.68 179.05,-244.68 188.39,-242.01"/>
<polygon fill="#63b8ff" stroke="#63b8ff" points="98.09,-277.75 91.19,-285.79 101.6,-283.81 98.09,-277.75"/>
</a>
</g>
</g>
<!-- Node9 -->
<g id="Node000009" class="node">
<title>Node9</title>
<g id="a_Node000009"><a xlink:href="class_app_1_1_http_1_1_controllers_1_1_auth_1_1_verify_email_controller.html" target="_top" xlink:title=" ">
<polygon fill="white" stroke="#666666" points="350.5,-190 189.5,-190 189.5,-156 350.5,-156 350.5,-190"/>
<text text-anchor="start" x="197.5" y="-176.4" font-family="Arial" font-size="12.00">App\Http\Controllers</text>
<text text-anchor="middle" x="270" y="-163.4" font-family="Arial" font-size="12.00">\Auth\VerifyEmailController</text>
</a>
</g>
</g>
<!-- Node0&#45;&gt;Node9 -->
<g id="edge9_Node000000_Node000009" class="edge">
<title>Node0&#45;&gt;Node9</title>
<g id="a_edge9_Node000000_Node000009"><a xlink:title=" ">
<path fill="none" stroke="#63b8ff" d="M80.68,-277.43C98.12,-253.51 127.28,-218.62 161,-199 169.75,-193.91 179.46,-189.81 189.35,-186.52"/>
<polygon fill="#63b8ff" stroke="#63b8ff" points="77.75,-275.52 74.81,-285.69 83.45,-279.57 77.75,-275.52"/>
</a>
</g>
</g>
<!-- Node10 -->
<g id="Node000010" class="node">
<title>Node10</title>
<g id="a_Node000010"><a xlink:href="class_app_1_1_http_1_1_controllers_1_1_profile_controller.html" target="_top" xlink:title=" ">
<polygon fill="white" stroke="#666666" points="332.5,-138 207.5,-138 207.5,-104 332.5,-104 332.5,-138"/>
<text text-anchor="start" x="215.5" y="-124.4" font-family="Arial" font-size="12.00">App\Http\Controllers</text>
<text text-anchor="middle" x="270" y="-111.4" font-family="Arial" font-size="12.00">\ProfileController</text>
</a>
</g>
</g>
<!-- Node0&#45;&gt;Node10 -->
<g id="edge10_Node000000_Node000010" class="edge">
<title>Node0&#45;&gt;Node10</title>
<g id="a_edge10_Node000000_Node000010"><a xlink:title=" ">
<path fill="none" stroke="#63b8ff" d="M72.83,-276.24C86.52,-241.03 115.48,-179.79 161,-147 174.54,-137.25 191.26,-131.12 207.46,-127.28"/>
<polygon fill="#63b8ff" stroke="#63b8ff" points="69.46,-275.26 69.22,-285.85 76.01,-277.72 69.46,-275.26"/>
</a>
</g>
</g>
<!-- Node11 -->
<g id="Node000011" class="node">
<title>Node11</title>
<g id="a_Node000011"><a xlink:href="class_app_1_1_http_1_1_controllers_1_1_redirect_controller.html" target="_top" xlink:title=" ">
<polygon fill="white" stroke="#666666" points="332.5,-86 207.5,-86 207.5,-52 332.5,-52 332.5,-86"/>
<text text-anchor="start" x="215.5" y="-72.4" font-family="Arial" font-size="12.00">App\Http\Controllers</text>
<text text-anchor="middle" x="270" y="-59.4" font-family="Arial" font-size="12.00">\RedirectController</text>
</a>
</g>
</g>
<!-- Node0&#45;&gt;Node11 -->
<g id="edge11_Node000000_Node000011" class="edge">
<title>Node0&#45;&gt;Node11</title>
<g id="a_edge11_Node000000_Node000011"><a xlink:title=" ">
<path fill="none" stroke="#63b8ff" d="M68.34,-276.09C77.82,-231.41 103.21,-142.15 161,-95 174.08,-84.33 190.83,-77.92 207.22,-74.1"/>
<polygon fill="#63b8ff" stroke="#63b8ff" points="64.9,-275.44 66.35,-285.94 71.76,-276.83 64.9,-275.44"/>
</a>
</g>
</g>
<!-- Node12 -->
<g id="Node000012" class="node">
<title>Node12</title>
<g id="a_Node000012"><a xlink:href="class_app_1_1_http_1_1_controllers_1_1_short_url_controller.html" target="_top" xlink:title="Class ShortUrlController Handles the logic for the shortened URLs.">
<polygon fill="white" stroke="#666666" points="332.5,-34 207.5,-34 207.5,0 332.5,0 332.5,-34"/>
<text text-anchor="start" x="215.5" y="-20.4" font-family="Arial" font-size="12.00">App\Http\Controllers</text>
<text text-anchor="middle" x="270" y="-7.4" font-family="Arial" font-size="12.00">\ShortUrlController</text>
</a>
</g>
</g>
<!-- Node0&#45;&gt;Node12 -->
<g id="edge12_Node000000_Node000012" class="edge">
<title>Node0&#45;&gt;Node12</title>
<g id="a_edge12_Node000000_Node000012"><a xlink:title=" ">
<path fill="none" stroke="#63b8ff" d="M65.55,-275.64C71.05,-222.48 90.9,-105 161,-43 173.86,-31.63 190.83,-25.02 207.5,-21.24"/>
<polygon fill="#63b8ff" stroke="#63b8ff" points="62.06,-275.39 64.6,-285.68 69.03,-276.05 62.06,-275.39"/>
</a>
</g>
</g>
</g>
</svg>
