<?xml version="1.0" encoding="UTF-8" standalone="no"?>
<!DOCTYPE svg PUBLIC "-//W3C//DTD SVG 1.1//EN"
 "http://www.w3.org/Graphics/SVG/1.1/DTD/svg11.dtd">
<!-- Generated by graphviz version 2.43.0 (0)
 -->
<!-- Title: Graphe hiérarchique des classes Pages: 1 -->
<svg width="436pt" height="459pt"
 viewBox="0.00 0.00 436.00 458.50" xmlns="http://www.w3.org/2000/svg" xmlns:xlink="http://www.w3.org/1999/xlink">
<g id="graph0" class="graph" transform="scale(1 1) rotate(0) translate(4 454.5)">
<title>Graphe hiérarchique des classes</title>
<!-- Node0 -->
<g id="Node000000" class="node">
<title>Node0</title>
<g id="a_Node000000"><a xlink:href="class_base_test_case.html" target="_top" xlink:title=" ">
<polygon fill="white" stroke="#666666" points="95,-210 0,-210 0,-189 95,-189 95,-210"/>
<text text-anchor="middle" x="47.5" y="-196.4" font-family="Arial" font-size="12.00">BaseTestCase</text>
</a>
</g>
</g>
<!-- Node1 -->
<g id="Node000001" class="node">
<title>Node1</title>
<g id="a_Node000001"><a xlink:href="class_tests_1_1_test_case.html" target="_top" xlink:title=" ">
<polygon fill="white" stroke="#666666" points="229,-210 131,-210 131,-189 229,-189 229,-210"/>
<text text-anchor="middle" x="180" y="-196.4" font-family="Arial" font-size="12.00">Tests\TestCase</text>
</a>
</g>
</g>
<!-- Node0&#45;&gt;Node1 -->
<g id="edge14_Node000000_Node000001" class="edge">
<title>Node0&#45;&gt;Node1</title>
<g id="a_edge14_Node000000_Node000001"><a xlink:title=" ">
<path fill="none" stroke="#63b8ff" d="M105.44,-199.5C113.9,-199.5 122.56,-199.5 130.82,-199.5"/>
<polygon fill="#63b8ff" stroke="#63b8ff" points="105.24,-196 95.24,-199.5 105.24,-203 105.24,-196"/>
</a>
</g>
</g>
<!-- Node2 -->
<g id="Node000002" class="node">
<title>Node2</title>
<g id="a_Node000002"><a xlink:href="class_tests_1_1_feature_1_1_auth_1_1_authentication_test.html" target="_top" xlink:title=" ">
<polygon fill="white" stroke="#666666" points="405.5,-450.5 287.5,-450.5 287.5,-416.5 405.5,-416.5 405.5,-450.5"/>
<text text-anchor="start" x="295.5" y="-436.9" font-family="Arial" font-size="12.00">Tests\Feature\Auth</text>
<text text-anchor="middle" x="346.5" y="-423.9" font-family="Arial" font-size="12.00">\AuthenticationTest</text>
</a>
</g>
</g>
<!-- Node1&#45;&gt;Node2 -->
<g id="edge15_Node000001_Node000002" class="edge">
<title>Node1&#45;&gt;Node2</title>
<g id="a_edge15_Node000001_Node000002"><a xlink:title=" ">
<path fill="none" stroke="#63b8ff" d="M183.56,-220.42C189.75,-262.05 209.39,-355.72 265,-407.5 271.34,-413.4 279.04,-417.97 287.12,-421.5"/>
<polygon fill="#63b8ff" stroke="#63b8ff" points="187,-219.78 182.17,-210.35 180.07,-220.73 187,-219.78"/>
</a>
</g>
</g>
<!-- Node3 -->
<g id="Node000003" class="node">
<title>Node3</title>
<g id="a_Node000003"><a xlink:href="class_tests_1_1_feature_1_1_auth_1_1_email_verification_test.html" target="_top" xlink:title=" ">
<polygon fill="white" stroke="#666666" points="412,-398.5 281,-398.5 281,-364.5 412,-364.5 412,-398.5"/>
<text text-anchor="start" x="289" y="-384.9" font-family="Arial" font-size="12.00">Tests\Feature\Auth</text>
<text text-anchor="middle" x="346.5" y="-371.9" font-family="Arial" font-size="12.00">\EmailVerificationTest</text>
</a>
</g>
</g>
<!-- Node1&#45;&gt;Node3 -->
<g id="edge16_Node000001_Node000003" class="edge">
<title>Node1&#45;&gt;Node3</title>
<g id="a_edge16_Node000001_Node000003"><a xlink:title=" ">
<path fill="none" stroke="#63b8ff" d="M186.7,-220.39C196.86,-253.77 221.26,-319.06 265,-355.5 269.74,-359.45 275.09,-362.8 280.72,-365.65"/>
<polygon fill="#63b8ff" stroke="#63b8ff" points="189.94,-219.01 183.79,-210.39 183.22,-220.97 189.94,-219.01"/>
</a>
</g>
</g>
<!-- Node4 -->
<g id="Node000004" class="node">
<title>Node4</title>
<g id="a_Node000004"><a xlink:href="class_tests_1_1_feature_1_1_auth_1_1_password_confirmation_test.html" target="_top" xlink:title=" ">
<polygon fill="white" stroke="#666666" points="428,-346.5 265,-346.5 265,-312.5 428,-312.5 428,-346.5"/>
<text text-anchor="start" x="273" y="-332.9" font-family="Arial" font-size="12.00">Tests\Feature\Auth</text>
<text text-anchor="middle" x="346.5" y="-319.9" font-family="Arial" font-size="12.00">\PasswordConfirmationTest</text>
</a>
</g>
</g>
<!-- Node1&#45;&gt;Node4 -->
<g id="edge17_Node000001_Node000004" class="edge">
<title>Node1&#45;&gt;Node4</title>
<g id="a_edge17_Node000001_Node000004"><a xlink:title=" ">
<path fill="none" stroke="#63b8ff" d="M191.72,-218.69C205.68,-242 232.21,-280.98 265,-303.5 269.84,-306.83 275.14,-309.75 280.62,-312.31"/>
<polygon fill="#63b8ff" stroke="#63b8ff" points="194.74,-216.92 186.68,-210.04 188.69,-220.44 194.74,-216.92"/>
</a>
</g>
</g>
<!-- Node5 -->
<g id="Node000005" class="node">
<title>Node5</title>
<g id="a_Node000005"><a xlink:href="class_tests_1_1_feature_1_1_auth_1_1_password_reset_test.html" target="_top" xlink:title=" ">
<polygon fill="white" stroke="#666666" points="409.5,-294.5 283.5,-294.5 283.5,-260.5 409.5,-260.5 409.5,-294.5"/>
<text text-anchor="start" x="291.5" y="-280.9" font-family="Arial" font-size="12.00">Tests\Feature\Auth</text>
<text text-anchor="middle" x="346.5" y="-267.9" font-family="Arial" font-size="12.00">\PasswordResetTest</text>
</a>
</g>
</g>
<!-- Node1&#45;&gt;Node5 -->
<g id="edge18_Node000001_Node000005" class="edge">
<title>Node1&#45;&gt;Node5</title>
<g id="a_edge18_Node000001_Node000005"><a xlink:title=" ">
<path fill="none" stroke="#63b8ff" d="M203.96,-215.83C220.39,-226.97 243.33,-241.47 265,-251.5 271.93,-254.71 279.37,-257.68 286.82,-260.39"/>
<polygon fill="#63b8ff" stroke="#63b8ff" points="205.78,-212.83 195.56,-210.04 201.81,-218.59 205.78,-212.83"/>
</a>
</g>
</g>
<!-- Node6 -->
<g id="Node000006" class="node">
<title>Node6</title>
<g id="a_Node000006"><a xlink:href="class_tests_1_1_feature_1_1_auth_1_1_password_update_test.html" target="_top" xlink:title=" ">
<polygon fill="white" stroke="#666666" points="413.5,-242.5 279.5,-242.5 279.5,-208.5 413.5,-208.5 413.5,-242.5"/>
<text text-anchor="start" x="287.5" y="-228.9" font-family="Arial" font-size="12.00">Tests\Feature\Auth</text>
<text text-anchor="middle" x="346.5" y="-215.9" font-family="Arial" font-size="12.00">\PasswordUpdateTest</text>
</a>
</g>
</g>
<!-- Node1&#45;&gt;Node6 -->
<g id="edge19_Node000001_Node000006" class="edge">
<title>Node1&#45;&gt;Node6</title>
<g id="a_edge19_Node000001_Node000006"><a xlink:title=" ">
<path fill="none" stroke="#63b8ff" d="M239.23,-208.7C252.22,-210.76 266.09,-212.95 279.38,-215.05"/>
<polygon fill="#63b8ff" stroke="#63b8ff" points="239.45,-205.19 229.02,-207.09 238.35,-212.11 239.45,-205.19"/>
</a>
</g>
</g>
<!-- Node7 -->
<g id="Node000007" class="node">
<title>Node7</title>
<g id="a_Node000007"><a xlink:href="class_tests_1_1_feature_1_1_auth_1_1_registration_test.html" target="_top" xlink:title=" ">
<polygon fill="white" stroke="#666666" points="404.5,-190.5 288.5,-190.5 288.5,-156.5 404.5,-156.5 404.5,-190.5"/>
<text text-anchor="start" x="296.5" y="-176.9" font-family="Arial" font-size="12.00">Tests\Feature\Auth</text>
<text text-anchor="middle" x="346.5" y="-163.9" font-family="Arial" font-size="12.00">\RegistrationTest</text>
</a>
</g>
</g>
<!-- Node1&#45;&gt;Node7 -->
<g id="edge20_Node000001_Node000007" class="edge">
<title>Node1&#45;&gt;Node7</title>
<g id="a_edge20_Node000001_Node000007"><a xlink:title=" ">
<path fill="none" stroke="#63b8ff" d="M239.29,-190.29C255.24,-187.77 272.52,-185.04 288.4,-182.52"/>
<polygon fill="#63b8ff" stroke="#63b8ff" points="238.35,-186.89 229.02,-191.91 239.45,-193.81 238.35,-186.89"/>
</a>
</g>
</g>
<!-- Node8 -->
<g id="Node000008" class="node">
<title>Node8</title>
<g id="a_Node000008"><a xlink:href="class_tests_1_1_feature_1_1_example_test.html" target="_top" xlink:title=" ">
<polygon fill="white" stroke="#666666" points="427,-138 266,-138 266,-117 427,-117 427,-138"/>
<text text-anchor="middle" x="346.5" y="-124.4" font-family="Arial" font-size="12.00">Tests\Feature\ExampleTest</text>
</a>
</g>
</g>
<!-- Node1&#45;&gt;Node8 -->
<g id="edge21_Node000001_Node000008" class="edge">
<title>Node1&#45;&gt;Node8</title>
<g id="a_edge21_Node000001_Node000008"><a xlink:title=" ">
<path fill="none" stroke="#63b8ff" d="M203.46,-182.91C219.8,-171.52 242.86,-156.83 265,-147.5 273.76,-143.81 283.35,-140.69 292.77,-138.1"/>
<polygon fill="#63b8ff" stroke="#63b8ff" points="201.24,-180.19 195.12,-188.84 205.3,-185.89 201.24,-180.19"/>
</a>
</g>
</g>
<!-- Node9 -->
<g id="Node000009" class="node">
<title>Node9</title>
<g id="a_Node000009"><a xlink:href="class_tests_1_1_feature_1_1_profile_test.html" target="_top" xlink:title=" ">
<polygon fill="white" stroke="#666666" points="420.5,-99 272.5,-99 272.5,-78 420.5,-78 420.5,-99"/>
<text text-anchor="middle" x="346.5" y="-85.4" font-family="Arial" font-size="12.00">Tests\Feature\ProfileTest</text>
</a>
</g>
</g>
<!-- Node1&#45;&gt;Node9 -->
<g id="edge22_Node000001_Node000009" class="edge">
<title>Node1&#45;&gt;Node9</title>
<g id="a_edge22_Node000001_Node000009"><a xlink:title=" ">
<path fill="none" stroke="#63b8ff" d="M193.36,-180.55C207.97,-159.7 234.22,-126.72 265,-108.5 271.44,-104.69 278.59,-101.6 285.89,-99.09"/>
<polygon fill="#63b8ff" stroke="#63b8ff" points="190.39,-178.69 187.66,-188.92 196.18,-182.62 190.39,-178.69"/>
</a>
</g>
</g>
<!-- Node10 -->
<g id="Node000010" class="node">
<title>Node10</title>
<g id="a_Node000010"><a xlink:href="class_tests_1_1_feature_1_1_redirect_test.html" target="_top" xlink:title=" ">
<polygon fill="white" stroke="#666666" points="425.5,-60 267.5,-60 267.5,-39 425.5,-39 425.5,-60"/>
<text text-anchor="middle" x="346.5" y="-46.4" font-family="Arial" font-size="12.00">Tests\Feature\RedirectTest</text>
</a>
</g>
</g>
<!-- Node1&#45;&gt;Node10 -->
<g id="edge23_Node000001_Node000010" class="edge">
<title>Node1&#45;&gt;Node10</title>
<g id="a_edge23_Node000001_Node000010"><a xlink:title=" ">
<path fill="none" stroke="#63b8ff" d="M188.43,-179.32C200.13,-150.41 225.66,-97.6 265,-69.5 270.39,-65.65 276.44,-62.54 282.74,-60.02"/>
<polygon fill="#63b8ff" stroke="#63b8ff" points="185.1,-178.21 184.74,-188.8 191.63,-180.75 185.1,-178.21"/>
</a>
</g>
</g>
<!-- Node11 -->
<g id="Node000011" class="node">
<title>Node11</title>
<g id="a_Node000011"><a xlink:href="class_tests_1_1_feature_1_1_short_url_test.html" target="_top" xlink:title=" ">
<polygon fill="white" stroke="#666666" points="425.5,-21 267.5,-21 267.5,0 425.5,0 425.5,-21"/>
<text text-anchor="middle" x="346.5" y="-7.4" font-family="Arial" font-size="12.00">Tests\Feature\ShortUrlTest</text>
</a>
</g>
</g>
<!-- Node1&#45;&gt;Node11 -->
<g id="edge24_Node000001_Node000011" class="edge">
<title>Node1&#45;&gt;Node11</title>
<g id="a_edge24_Node000001_Node000011"><a xlink:title=" ">
<path fill="none" stroke="#63b8ff" d="M185.27,-179.03C193.84,-143.23 216.61,-69.35 265,-30.5 269.72,-26.71 275.05,-23.63 280.68,-21.12"/>
<polygon fill="#63b8ff" stroke="#63b8ff" points="181.85,-178.31 183.05,-188.84 188.67,-179.86 181.85,-178.31"/>
</a>
</g>
</g>
</g>
</svg>
